<?xml version="1.0" encoding="utf-8"?>
<!-- Generator: Adobe Illustrator 18.0.0, SVG Export Plug-In . SVG Version: 6.00 Build 0)  -->
<!DOCTYPE svg PUBLIC "-//W3C//DTD SVG 1.1//EN" "http://www.w3.org/Graphics/SVG/1.1/DTD/svg11.dtd">
<svg version="1.1" id="Layer_1" xmlns="http://www.w3.org/2000/svg" xmlns:xlink="http://www.w3.org/1999/xlink" x="0px" y="0px"
	 width="64px" height="64px" viewBox="0 0 64 64" enable-background="new 0 0 64 64" xml:space="preserve">
<g>
	<path fill="#2D3E4F" d="M57.611,36.416c-0.816-5.119-2.335-11.872-7.793-17.606l-0.183-0.192l-0.258,0.061
		c-1.082,0.255-2.198,0.624-3.319,1.096l-0.661,0.278l0.526,0.488c5.476,5.078,6.974,11.523,7.768,16.5
		c0.676,4.225,1.336,9.75,0.438,15.026c-0.183,1.075-0.741,4.345-2.073,5.735c-1.13,1.178-3.514,1.881-6.377,1.881
		c-0.475,0-0.937-0.02-1.374-0.059c-7.208-0.63-14.528-3.919-22.377-10.055C15.313,44.4,11.403,39.317,9.974,34.03
		c-0.795-2.946-0.708-6.011,0.254-8.862c0.45-1.332,1.148-2.593,1.886-3.929l0.018-0.032c0.63-1.138,1.281-2.315,1.805-3.592
		c0.133-0.323,1.703-4.823,2.369-6.77c0.157-0.458-3.712-1.579-3.868-1.12c-0.64,1.897-2.096,6.184-2.174,6.382
		c-0.033,0.08-0.066,0.159-0.1,0.238c-0.419,0.974-0.943,1.922-1.497,2.924l-0.015,0.028c-0.796,1.437-1.618,2.923-2.185,4.601
		c-1.214,3.6-1.326,7.461-0.325,11.167c1.661,6.147,6.025,11.914,13.34,17.631C27.953,59.32,35.96,62.88,43.959,63.58
		c0.556,0.049,1.134,0.073,1.72,0.073c2.341,0,6.654-0.403,9.243-3.104c1.952-2.037,2.716-5.438,3.121-7.819
		C59.036,46.887,58.334,40.942,57.611,36.416z"/>
	<path fill="#2E79BE" d="M34.519,13.021c-1.458,1.052-2.763,2.197-3.89,3.409c-0.517-0.327-0.182-0.012-0.749-0.244
		c-0.091-0.037-0.187-0.074-0.286-0.11c-0.605-0.222-1.338-0.413-2.103-0.495c-0.601-0.066-1.221-0.065-1.815,0.041
		c-0.607,0.109-1.188,0.326-1.691,0.693c-0.453,0.329-0.843,0.781-1.134,1.381c-1.219,2.513-0.43,6.424,2.345,11.627
		c0.654,1.225,0.189,2.748-1.036,3.401c-0.376,0.201-0.781,0.296-1.18,0.296c-0.898,0-1.768-0.483-2.22-1.331
		c-3.624-6.795-4.419-12.089-2.433-16.187c0.902-1.86,2.222-3.135,3.753-3.93c-0.872-1.739-6.947-3.954-9.745-4.371
		c-1.373-0.205-2.321-1.485-2.116-2.858c0.204-1.373,1.485-2.32,2.857-2.116c5.031,0.75,12.574,4.316,14.007,8.289
		c0.168,0.005,0.336,0.013,0.503,0.026c1.113-1.936,0.847-3.754-0.697-6.421c-0.696-1.201-0.287-2.74,0.914-3.436
		c1.201-0.696,2.74-0.286,3.436,0.916c2.207,3.809,2.653,7.111,1.298,10.263C33.568,12.357,33.639,12.354,34.519,13.021z"/>
	<path fill="#2E79BE" d="M44.748,27.36c-1.007,0.955-2.599,0.913-3.554-0.094c-0.499-0.527-1.526-1.748-2.451-2.857
		c0.99-1.137,2.324-2.249,3.87-3.206c0.868,1.043,1.797,2.148,2.228,2.603C45.797,24.815,45.756,26.405,44.748,27.36z"/>
	<g>
		<path fill="#2D3E4F" d="M55.938,9.663c-0.181-0.323-0.492-0.555-0.853-0.637c-1.016-0.232-2.133-0.35-3.319-0.35
			c-4.144,0-8.983,1.439-13.276,3.949c-5.291,3.093-8.899,7.254-10.159,11.717c-0.1,0.353-0.046,0.735,0.147,1.047
			c0.193,0.313,0.512,0.533,0.873,0.603c0.082,0.016,0.166,0.024,0.249,0.024c0.586,0,1.109-0.399,1.27-0.97
			c1.056-3.741,4.319-7.439,8.95-10.146c3.915-2.289,8.254-3.601,11.904-3.601c0.999,0,1.932,0.099,2.774,0.294
			c0.097,0.022,0.196,0.034,0.295,0.034c0.565,0,1.065-0.361,1.245-0.899C56.157,10.375,56.12,9.987,55.938,9.663z"/>
		<path fill="#2D3E4F" d="M53.346,13.936c-0.51-0.082-1.062-0.123-1.643-0.123c-3.143,0-7.109,1.221-10.608,3.267
			c-3.485,2.037-6.08,4.641-7.307,7.332c-0.319,0.7-0.339,1.472-0.054,2.119c0.329,0.747,0.977,1.277,1.779,1.452
			c1.374,0.301,1.544,0.76,1.296,3.509c-0.044,0.49-0.09,0.997-0.111,1.522c-0.03,0.765-0.071,1.507-0.239,2.179
			c-0.381,1.523-1.451,2.858-2.551,4.074c-0.482,0.533-0.447,1.364,0.078,1.852c0.244,0.227,0.562,0.351,0.895,0.351
			c0.373,0,0.731-0.159,0.982-0.437c0.69-0.764,1.548-1.772,2.21-2.924c0.67,0.406,1.284,0.848,1.827,1.319
			c0.024,0.02,0.047,0.041,0.071,0.062c-0.023,0.057-0.041,0.113-0.057,0.168c-0.106,0.374-0.321,0.742-0.606,1.034
			c-0.425,0.436-0.514,1.075-0.22,1.591c0.235,0.412,0.676,0.669,1.152,0.669c0.347,0,0.673-0.135,0.918-0.381
			c0.224-0.225,0.427-0.469,0.605-0.73l0.052,0.06c0.644,0.738,0.625,1.876,0.608,2.88l-0.002,0.14
			c-0.003,0.233-0.008,0.496-0.004,0.763c0.01,0.714,0.601,1.295,1.316,1.295c0.065,0,0.131-0.005,0.196-0.014
			c0.649-0.097,1.132-0.665,1.123-1.322c-0.003-0.214,0-0.433,0.003-0.658l0.001-0.049c0.007-0.529,0.014-1.077-0.05-1.652
			c-0.051-0.455-0.145-0.909-0.28-1.353c2.373,0.836,4.508,1.244,6.516,1.244c0.311,0,0.6-0.126,0.814-0.353
			c0.213-0.226,0.324-0.534,0.305-0.845l-0.022-0.37c-0.036-0.597-0.533-1.066-1.132-1.067c-1.895-0.004-3.984-0.457-6.387-1.384
			l-0.116-0.045c-0.981-0.378-1.996-0.769-2.806-1.434c-0.854-0.701-1.775-1.435-2.825-2.037c-0.003-0.002-0.007-0.004-0.01-0.006
			c0.189-0.845,0.235-1.674,0.268-2.517c0.018-0.456,0.061-0.93,0.102-1.388c0.206-2.283,0.488-5.4-3.217-6.288
			c1.006-2.151,3.258-4.361,6.209-6.086c3.066-1.792,6.633-2.906,9.31-2.906c0.43,0,0.831,0.03,1.194,0.088
			c0.07,0.011,0.141,0.017,0.212,0.017c0.569,0,1.071-0.361,1.251-0.898c0.123-0.367,0.078-0.768-0.122-1.099
			C54.067,14.224,53.731,13.998,53.346,13.936z"/>
	</g>
</g>
</svg>
