<?xml version="1.0" encoding="utf-8"?>
<!-- Generator: Adobe Illustrator 18.0.0, SVG Export Plug-In . SVG Version: 6.00 Build 0)  -->
<!DOCTYPE svg PUBLIC "-//W3C//DTD SVG 1.1//EN" "http://www.w3.org/Graphics/SVG/1.1/DTD/svg11.dtd">
<svg version="1.1" id="Layer_1" xmlns="http://www.w3.org/2000/svg" xmlns:xlink="http://www.w3.org/1999/xlink" x="0px" y="0px"
	 width="64px" height="64px" viewBox="0 0 64 64" enable-background="new 0 0 64 64" xml:space="preserve">
<g>
	<path fill="#2E79BE" d="M46.896,0.786c-0.096,0.04-0.182,0.087-0.258,0.149c-5.235,4.328-10.125,9.621-12.946,15.994
		c-1.5,3.39-2.432,7.002-3.157,10.679c-0.847,4.31-1.412,8.705-2.274,12.924c-0.507,2.481-1.54,4.853-2.065,7.331
		c-0.847,3.988,1.774,7.436,5.493,7.5c4.021,0.069,6.82-3.188,5.937-7.122c-1.507-6.724-2.561-13.735-1.914-20.633
		c0.131-1.392,0.329-2.776,0.609-4.155c0.298-1.478,0.696-2.919,1.176-4.328c2.161-6.358,5.973-12.068,9.832-17.539
		c0.056-0.08,0.098-0.169,0.131-0.265C47.585,0.973,47.238,0.644,46.896,0.786z"/>
	<path fill="#2D3E4F" d="M58.168,27.386c-3.753,0-7.507,0-11.26,0c-1.518,0-3.246-0.186-4.8,0.112
		c-1.064,0.204-2.046,0.636-2.822,1.511c-2.413,2.722-0.796,6.88,0.164,9.874c0.842,2.626,1.81,5.229,2.275,7.957
		c0.723,4.243-0.465,8.9-4.409,11.099c-2.891,1.612-6.547,1.753-9.613,0.561c-2.674-1.039-4.834-3.15-5.663-5.928
		c-0.052-0.174-0.099-0.349-0.143-0.525c-0.202-0.823-0.301-1.643-0.314-2.458c0.004-1.758,0.394-3.49,0.992-5.169
		c0.978-2.741,2.225-5.384,3.277-8.103c0.43-1.112,0.695-2.276,0.685-3.444c0.014-0.664-0.059-1.331-0.24-1.991
		c-0.513-1.863-1.838-3.076-3.723-3.497H5.832c-2.332,0-4.223,1.891-4.223,4.223v29.49c0,1.187,0.962,2.149,2.149,2.149h56.486
		c1.187,0,2.149-0.962,2.149-2.149v-29.49C62.392,29.276,60.501,27.386,58.168,27.386z M10.395,57.683
		c-1.397,0-2.529-1.132-2.529-2.529c0-1.397,1.132-2.529,2.529-2.529s2.529,1.132,2.529,2.529
		C12.925,56.551,11.792,57.683,10.395,57.683z M11.396,43.679c-1.397,0-2.529-1.132-2.529-2.529c0-1.397,1.132-2.529,2.529-2.529
		s2.529,1.132,2.529,2.529C13.925,42.547,12.793,43.679,11.396,43.679z M17.905,33.931c0-1.397,1.132-2.529,2.529-2.529
		s2.529,1.132,2.529,2.529c0,1.397-1.132,2.529-2.529,2.529S17.905,35.328,17.905,33.931z M47.072,46.347
		c-1.397,0-2.529-1.132-2.529-2.529c0-1.397,1.132-2.529,2.529-2.529c1.397,0,2.529,1.132,2.529,2.529
		C49.601,45.214,48.469,46.347,47.072,46.347z M55.407,60.35c-1.397,0-2.529-1.132-2.529-2.529c0-1.397,1.132-2.529,2.529-2.529
		c1.397,0,2.529,1.132,2.529,2.529C57.937,59.218,56.804,60.35,55.407,60.35z M56.407,37.011c-1.397,0-2.529-1.132-2.529-2.529
		s1.132-2.529,2.529-2.529c1.397,0,2.529,1.132,2.529,2.529S57.804,37.011,56.407,37.011z"/>
</g>
</svg>
