<?xml version="1.0" encoding="utf-8"?>
<!-- Generator: Adobe Illustrator 18.0.0, SVG Export Plug-In . SVG Version: 6.00 Build 0)  -->
<!DOCTYPE svg PUBLIC "-//W3C//DTD SVG 1.1//EN" "http://www.w3.org/Graphics/SVG/1.1/DTD/svg11.dtd">
<svg version="1.1" id="Layer_1" xmlns="http://www.w3.org/2000/svg" xmlns:xlink="http://www.w3.org/1999/xlink" x="0px" y="0px"
	 width="64px" height="64px" viewBox="0 0 64 64" enable-background="new 0 0 64 64" xml:space="preserve">
<g>
	<path fill="#2E79BE" d="M42.367,53.818c-0.015,0.014-0.057,0.045-0.157,0.075c-0.081,0.025-0.164,0.046-0.253,0.069
		c-0.203,0.052-0.413,0.107-0.615,0.205c-0.215,0.105-0.462,0.364-0.498,0.64c-0.036,0.281,0.09,0.582,0.219,0.77
		c0.399,0.579,0.813,1.16,1.214,1.723c0.239,0.335,0.478,0.671,0.715,1.007c0.063,0.09,0.076,0.14,0.078,0.158
		c-0.013,0.012-0.054,0.042-0.159,0.069c-0.453,0.118-0.907,0.232-1.36,0.347c-0.189,0.048-0.379,0.095-0.568,0.143l-0.57,0.145
		c-0.474,0.121-0.949,0.242-1.423,0.36c-0.124,0.031-0.159,0.017-0.159,0.017s-0.032-0.022-0.078-0.146
		c-0.205-0.555-0.388-1.042-0.562-1.488c-0.246-0.633-0.494-1.266-0.741-1.899c-0.286-0.731-0.572-1.463-0.856-2.195
		c-0.05-0.129-0.036-0.173-0.036-0.173s0.03-0.041,0.177-0.079c0.223-0.058,0.445-0.114,0.668-0.169
		c0.133-0.033,0.266-0.067,0.398-0.1c0.114-0.029,0.228-0.058,0.341-0.088c0.339-0.089,0.572-0.255,0.69-0.495
		c0.078-0.159,0.139-0.425-0.017-0.797c-0.368-0.876-0.759-1.757-1.137-2.61l-0.167-0.376c-0.037-0.084-0.113-0.286-0.014-0.357
		c0.027-0.019,0.053-0.032,0.079-0.039c0.108-0.027,0.221,0.077,0.278,0.142c1.707,1.925,3.114,3.517,4.427,5.01
		C42.343,53.756,42.362,53.8,42.367,53.818z"/>
	<path fill="#2E79BE" d="M22.484,53.818c0.015,0.014,0.057,0.045,0.157,0.075c0.081,0.025,0.164,0.046,0.253,0.069
		c0.203,0.052,0.413,0.107,0.615,0.205c0.215,0.105,0.462,0.364,0.498,0.64c0.036,0.281-0.09,0.582-0.219,0.77
		c-0.399,0.579-0.813,1.16-1.214,1.723c-0.239,0.335-0.478,0.671-0.715,1.007c-0.063,0.09-0.076,0.14-0.078,0.158
		c0.013,0.012,0.054,0.042,0.159,0.069c0.453,0.118,0.907,0.232,1.36,0.347c0.189,0.048,0.379,0.095,0.568,0.143l0.57,0.145
		c0.474,0.121,0.949,0.242,1.423,0.36c0.124,0.031,0.159,0.017,0.159,0.017c0,0,0.031-0.021,0.077-0.146
		c0.205-0.555,0.388-1.042,0.562-1.488c0.246-0.633,0.494-1.266,0.741-1.899c0.286-0.731,0.572-1.463,0.856-2.195
		c0.05-0.129,0.036-0.173,0.036-0.173s-0.03-0.041-0.177-0.079c-0.223-0.058-0.445-0.114-0.668-0.169
		c-0.133-0.033-0.266-0.067-0.398-0.1c-0.114-0.029-0.228-0.058-0.341-0.088c-0.339-0.089-0.572-0.255-0.69-0.495
		c-0.078-0.159-0.139-0.425,0.017-0.797c0.368-0.876,0.759-1.757,1.137-2.61l0.167-0.376c0.037-0.084,0.113-0.286,0.014-0.357
		c-0.027-0.019-0.053-0.032-0.079-0.039c-0.108-0.027-0.221,0.077-0.278,0.142c-1.707,1.925-3.114,3.517-4.427,5.01
		C22.508,53.756,22.49,53.8,22.484,53.818z"/>
	<path fill="#2D3E4F" d="M62.841,55.223c-2.478-5.771-7.258-8.808-15.043-9.559c-3.126-0.297-5.6-1.986-6.787-4.637
		c-0.519-1.157-0.767-2.46-0.719-3.766c0.048-1.303,0.394-2.653,1.001-3.904c0.224-0.461,0.485-0.915,0.776-1.35
		c0.201-0.301,0.914-1.959,0.919-1.971c0.258-0.58,0.477-1.154,0.65-1.707c0.023-0.074,0.045-0.147,0.064-0.22
		c1.132-0.266,1.974-0.903,2.505-1.897c0.801-1.499,1.208-3.195,1.209-5.042c0-1.492-0.677-2.511-1.964-2.969
		c0.014-0.091,0.027-0.182,0.039-0.274c0.394-3.042-0.169-5.528-1.721-7.601c-2.717-3.634-6.539-5.554-11.685-5.869L32,4.452
		l-0.086,0.005c-5.145,0.315-8.968,2.234-11.685,5.868c-1.551,2.073-2.114,4.56-1.72,7.603c0.012,0.091,0.025,0.182,0.038,0.272
		c-1.287,0.457-1.964,1.476-1.964,2.971c0.001,1.846,0.408,3.542,1.209,5.041c0.531,0.994,1.373,1.632,2.505,1.897
		c0.02,0.072,0.04,0.144,0.063,0.217c0.222,0.715,0.438,1.34,0.662,1.912c0.182,0.464,0.347,0.835,0.519,1.17
		c0.122,0.238,0.27,0.449,0.412,0.653c0.089,0.127,0.178,0.254,0.258,0.386c0.22,0.361,0.418,0.733,0.59,1.106
		c0.342,0.741,0.592,1.508,0.743,2.278c0.301,1.536,0.203,3.095-0.284,4.509c-0.079,0.231-0.17,0.46-0.268,0.679
		c-1.19,2.656-3.667,4.349-6.796,4.645c-7.779,0.75-12.558,3.787-15.038,9.558c-0.201,0.467-0.154,0.998,0.124,1.42
		c0.275,0.417,0.737,0.666,1.237,0.666c0.597,0,1.132-0.351,1.361-0.893c2.031-4.798,5.798-7.125,12.597-7.782
		c4.227-0.398,7.594-2.73,9.24-6.398c0.699-1.568,1.03-3.296,0.973-5.047c1.561,1.069,3.183,1.635,4.83,1.685
		c0.165,0.005,0.352,0.006,0.47,0.001c0.162,0.004,0.327,0.004,0.487-0.001c1.651-0.05,3.274-0.617,4.837-1.688
		c-0.059,1.755,0.273,3.487,0.973,5.06c1.645,3.661,5.008,5.989,9.226,6.388c6.809,0.658,10.579,2.985,12.606,7.782
		c0.23,0.543,0.765,0.894,1.362,0.894c0.5,0,0.962-0.249,1.237-0.666C62.995,56.221,63.042,55.69,62.841,55.223z M31.954,36.081
		c-0.114,0.003-0.227,0.004-0.347,0c-2.87-0.086-5.153-2.618-6.271-4.141c-0.372-0.746-0.817-1.47-1.306-2.139
		c-0.051-0.13-0.122-0.252-0.217-0.372c-0.33-0.671-0.593-1.321-0.783-1.933c-0.052-0.168-0.095-0.369-0.142-0.592
		c-0.025-0.122-0.052-0.245-0.08-0.368l-0.243-1.053l-1.08-0.03c-0.943-0.026-1.114-0.346-1.227-0.558
		c-0.582-1.09-0.878-2.343-0.879-3.724c0-0.23,0.017-0.297,0.021-0.308c0.011-0.01,0.082-0.058,0.426-0.107
		c0.163-0.022,0.315-0.052,0.451-0.08l1.471-0.281l-0.222-1.345c-0.031-0.191-0.063-0.375-0.094-0.553
		c-0.057-0.325-0.111-0.633-0.15-0.929c-0.296-2.284,0.092-4.106,1.186-5.568c2.182-2.918,5.3-4.471,9.533-4.748
		c4.233,0.277,7.351,1.83,9.533,4.748c1.095,1.463,1.483,3.284,1.187,5.567c-0.039,0.297-0.092,0.604-0.149,0.927
		c-0.032,0.179-0.064,0.363-0.095,0.556l-0.222,1.345l1.471,0.281c0.134,0.027,0.287,0.058,0.441,0.079
		c0.352,0.05,0.424,0.099,0.429,0.101c0.01,0.019,0.027,0.086,0.027,0.315c-0.001,1.382-0.297,2.636-0.879,3.726
		c-0.113,0.212-0.284,0.531-1.226,0.557l-1.08,0.03l-0.243,1.052c-0.029,0.124-0.055,0.248-0.081,0.37
		c-0.046,0.216-0.089,0.42-0.143,0.594c-0.191,0.614-0.456,1.267-0.788,1.941c-0.092,0.118-0.159,0.236-0.202,0.348l-0.006,0.014
		c-0.499,0.678-0.938,1.394-1.304,2.13c-1.119,1.527-3.405,4.063-6.28,4.149c-0.115,0.003-0.227,0.004-0.347,0l-0.031-0.001
		L31.954,36.081z"/>
	<path fill="#2E79BE" d="M36.722,46.471c-0.097-0.086-0.198-0.161-0.296-0.234c-0.331-0.248-0.535-0.416-0.543-0.743
		c-0.008-0.305,0.171-0.465,0.464-0.702c0.125-0.101,0.255-0.206,0.368-0.335l0.224-0.255l-0.338-0.037
		c-0.087-0.009-0.177-0.016-0.264-0.022c-0.482-0.034-0.781-0.076-0.875-0.368c-0.081-0.25-0.034-0.564,0.013-0.868
		c0.021-0.138,0.043-0.281,0.052-0.416l0.02-0.298l-0.271,0.127c-0.381,0.178-0.654,0.262-0.857,0.262
		c-0.277,0-0.576-0.151-0.696-1.268l-0.047-0.436l-0.268,0.347c-0.433,0.56-0.736,0.81-0.984,0.81c-0.274,0-0.573-0.306-0.968-0.801
		l-0.229-0.286l-0.082,0.357c-0.027,0.117-0.043,0.236-0.059,0.351c-0.047,0.348-0.089,0.648-0.387,0.819
		c-0.097,0.055-0.195,0.082-0.301,0.082c-0.18,0-0.368-0.076-0.568-0.157c-0.13-0.053-0.265-0.107-0.406-0.144l-0.305-0.079
		l0.092,0.302c0.041,0.135,0.096,0.261,0.15,0.383c0.157,0.36,0.245,0.595,0.076,0.871c-0.183,0.299-0.481,0.338-0.858,0.386
		c-0.119,0.015-0.242,0.031-0.364,0.057l-0.353,0.074l0.275,0.233c0.088,0.074,0.18,0.143,0.268,0.209
		c0.347,0.258,0.56,0.433,0.567,0.765c0.006,0.321-0.224,0.503-0.49,0.713c-0.111,0.087-0.225,0.177-0.326,0.282l-0.218,0.225
		l0.306,0.07c0.657,0.151,1.053,0.242,1.16,0.413c0.109,0.177,0.014,0.573-0.16,1.293l-0.075,0.311l0.303-0.103
		c0.111-0.038,0.221-0.085,0.328-0.131c0.209-0.09,0.407-0.174,0.576-0.174c0.106,0,0.193,0.035,0.274,0.109
		c0.19,0.175,0.307,0.463,0.42,0.742c0.054,0.132,0.109,0.268,0.173,0.394l0.115,0.23l0.173-0.19
		c0.067-0.073,0.128-0.158,0.192-0.248c0.16-0.224,0.326-0.456,0.561-0.456c0.036,0,0.074,0.005,0.114,0.015
		c0.258,0.065,0.503,0.266,0.74,0.46c0.109,0.09,0.222,0.182,0.336,0.261l0.247,0.171l0.03-0.298
		c0.006-0.062,0.01-0.127,0.014-0.189c0.023-0.356,0.044-0.691,0.383-0.881c0.101-0.056,0.204-0.084,0.315-0.084
		c0.202,0,0.417,0.089,0.644,0.183c0.106,0.044,0.215,0.089,0.328,0.128l0.375,0.128l-0.156-0.364
		c-0.031-0.073-0.064-0.144-0.096-0.214c-0.173-0.377-0.322-0.703-0.144-1.037c0.158-0.296,0.43-0.341,0.861-0.389
		c0.119-0.013,0.242-0.027,0.365-0.051l0.354-0.067L36.722,46.471z"/>
</g>
</svg>
