<?xml version="1.0" encoding="utf-8"?>
<!-- Generator: Adobe Illustrator 18.0.0, SVG Export Plug-In . SVG Version: 6.00 Build 0)  -->
<!DOCTYPE svg PUBLIC "-//W3C//DTD SVG 1.1//EN" "http://www.w3.org/Graphics/SVG/1.1/DTD/svg11.dtd">
<svg version="1.1" id="Layer_1" xmlns="http://www.w3.org/2000/svg" xmlns:xlink="http://www.w3.org/1999/xlink" x="0px" y="0px"
	 width="64px" height="64px" viewBox="0 0 64 64" enable-background="new 0 0 64 64" xml:space="preserve">
<g>
	<g>
		<path fill="#2D3E4F" d="M40.557,35.89c1.828,0.482,4.452-0.105,6.052-1.104c0.087,0.069,0.176,0.133,0.267,0.195
			c0.161,0.11,0.33,0.213,0.507,0.312c0.211,0.107,0.494,0.234,0.861,0.359c0.019,0.008,0.041,0.018,0.06,0.026
			c0.224,0.095,0.445,0.163,0.672,0.206c0.211,0.04,0.42,0.057,0.63,0.052c0.211,0.005,0.42-0.012,0.637-0.053
			c0.22-0.042,0.442-0.11,0.665-0.205c0.02-0.008,0.041-0.018,0.061-0.022c0.366-0.13,0.649-0.257,0.862-0.365
			c0.177-0.098,0.346-0.201,0.507-0.311c0.116-0.078,0.228-0.161,0.336-0.248c2.24,1.105,5.115,1.578,7.44,0.54
			c0.269-0.12,0.277-0.43,0.058-0.631c-0.082-0.076-0.181-0.133-0.271-0.2c-0.461-0.345-0.881-0.712-1.257-1.101
			c-1.283-1.33-2.063-2.924-2.31-4.814c-0.041-0.313-0.067-0.636-0.078-0.966c-0.008-0.247-0.023-0.494-0.042-0.741
			c-0.07-0.898-0.204-1.794-0.352-2.682c-0.02-0.128-0.046-0.254-0.077-0.38c-0.175-0.751-0.511-1.447-1.099-1.994
			c-2.476-2.301-6.232-2.635-9.1-0.847c-0.901,0.561-1.57,1.27-1.968,2.189c-0.119,0.276-0.214,0.571-0.283,0.887
			c-0.211,0.959-0.313,1.927-0.387,2.9c-0.016,0.201-0.029,0.402-0.042,0.604c-0.019,0.284-0.031,0.572-0.054,0.857
			c-0.022,0.265-0.052,0.529-0.106,0.787c-0.347,1.662-1.095,3.063-2.215,4.217c-0.406,0.419-0.863,0.806-1.365,1.161
			C38.187,35.21,40.041,35.754,40.557,35.89z"/>
		<path fill="#2D3E4F" d="M20.982,28.741c0.02,0.326,0.085,0.648,0.125,0.973c0.088,0.72,0.427,1.413,1.115,1.756
			c0.144,0.115,0.239,0.232,0.291,0.436c0.414,1.609,1.218,2.906,2.525,3.798c0.161,0.11,0.33,0.214,0.508,0.312
			c0.211,0.108,0.495,0.234,0.861,0.359c0.02,0.009,0.041,0.018,0.061,0.026c0.223,0.096,0.445,0.163,0.672,0.206
			c0.21,0.039,0.42,0.056,0.63,0.052c0.21,0.005,0.42-0.012,0.637-0.053c0.221-0.042,0.442-0.109,0.665-0.205
			c0.02-0.008,0.041-0.017,0.061-0.021c0.366-0.13,0.65-0.256,0.862-0.365c0.176-0.098,0.345-0.202,0.506-0.311
			c0.679-0.461,1.252-1.067,1.683-1.765c0.219-0.355,0.395-0.73,0.55-1.117c0.15-0.375,0.149-0.79,0.411-1.114
			c0.192-0.238,0.445-0.418,0.67-0.624c0.406-0.372,0.552-0.834,0.617-1.37c0.04-0.325,0.106-0.647,0.125-0.973
			c0.01-0.16,0.015-0.324,0.005-0.486c0.002-0.022,0.003-0.044,0.004-0.066c0.019-0.346-0.178-0.819-0.549-0.907
			c-0.188-0.044-0.359,0.034-0.45-0.169c-0.052-0.115,0.035-0.42,0.049-0.543c0.034-0.307,0.052-0.635,0.127-0.935
			c0.139-0.558,0.226-1.129,0.247-1.704c0.064-1.77-0.81-3.227-2.428-3.946c-0.184-0.082-0.37-0.157-0.558-0.226
			c-1.043-0.386-2.126-0.573-3.235-0.582c-0.239-0.002-0.48,0.004-0.722,0.019c-0.774,0.046-1.601,0.107-2.31,0.45
			c-0.07,0.034-0.138,0.072-0.203,0.114c-0.262,0.168-0.481,0.396-0.654,0.656c-0.176,0.264-0.234,0.413-0.493,0.62
			c-0.228,0.183-0.433,0.318-0.687,0.43c-0.225,0.1-0.427,0.259-0.549,0.477c-0.251,0.445-0.339,0.986-0.36,1.49
			c-0.026,0.632,0.002,1.265,0.046,1.896c0.016,0.224,0.058,0.448,0.103,0.671c0.069,0.342,0.142,0.683,0.129,1.029
			c-0.004,0.107-0.048,0.168-0.114,0.207c-0.021,0.005-0.043,0.008-0.066,0.011c-0.123,0.014-0.248,0.009-0.368,0.038
			c-0.372,0.088-0.568,0.561-0.549,0.907c0.001,0.022,0.002,0.044,0.004,0.066C20.967,28.417,20.972,28.581,20.982,28.741z"/>
		<path fill="#2D3E4F" d="M62.463,44.078c-0.411-2.931-3.281-5.261-6.235-5.261c-0.023,0-0.038,0-0.061,0.008
			c-0.183,0.015-0.396,0.084-0.533,0.19c-1.797,1.462-3.692,2.246-5.71,2.292c-0.183,0.008-0.373,0.015-0.563,0.008
			c-0.129,0-0.259,0-0.388-0.008c-1.949-0.091-3.791-0.868-5.535-2.292c-0.152-0.122-0.388-0.19-0.586-0.198
			c-0.046,0-0.084,0-0.129,0.008c-1.02,0.015-2.025,0.32-2.916,0.815c-0.373,0.213-0.792,0.312-1.203,0.289
			c-0.358-0.008-0.716-0.107-1.035-0.289c-0.929-0.518-1.979-0.822-3.045-0.822c-0.015,0-0.03,0-0.046,0.008
			c-0.19,0.008-0.404,0.076-0.548,0.19c-1.789,1.462-3.685,2.246-5.702,2.292c-0.183,0.008-0.373,0.015-0.563,0.008
			c-0.129,0-0.259,0-0.388-0.008c-1.949-0.091-3.799-0.868-5.535-2.292c-0.152-0.122-0.396-0.19-0.594-0.198
			c-0.038,0-0.076,0-0.114,0.008c-2.916,0.053-5.718,2.36-6.121,5.253c-0.647,4.642,1.625,9.159,4.545,12.745
			c1.157,1.424,2.581,2.779,4.324,3.913c1.028,0.525,2.185,1.127,3.068,1.606c0.822,0.449,1.401,0.792,1.401,0.875
			c0.015-0.114,0.038-0.228,0.053-0.343c0.107-0.685,0.221-1.37,0.411-2.033c0.449-1.576,1.271-2.855,3.022-3.274
			c0.404-0.099,0.708-0.061,1.013,0.206c0.015,0.015,0.038,0.03,0.053,0.046c1.271,1.203,2.847,1.766,4.553,1.865
			c0.426,0.023,0.845,0.023,1.249-0.023c1.568-0.137,2.984-0.746,4.241-1.842c0.213-0.19,0.624-0.289,0.914-0.244
			c0.244,0.046,0.48,0.107,0.693,0.198c0.952,0.358,1.622,1.096,1.987,2.063c0.419,1.119,0.609,2.314,0.876,3.487
			c0.023,0.084,0.251,0.023,0.632-0.16c0.008,0,0.023-0.008,0.038-0.015c0.312-0.084,0.617-0.175,0.914-0.274
			c0.502-0.16,0.99-0.335,1.454-0.533c1.119-0.457,2.139-0.997,3.061-1.606c1.751-1.134,3.175-2.489,4.332-3.913
			c2.208-2.71,4.378-6.578,4.751-10.301c0.03-0.274,0.046-0.548,0.053-0.822C62.562,45.152,62.539,44.611,62.463,44.078z
			 M34.766,56.122c-0.7-0.754-1.172-1.629-1.462-2.604c-0.053-0.198-0.137-0.32-0.35-0.381c-0.343-0.107-0.548-0.396-0.609-0.731
			c-0.099-0.563-0.145-1.218-0.107-1.789c0-0.015-0.008-0.03-0.008-0.046c-0.015-0.274,0.145-0.64,0.449-0.708
			c0.099-0.023,0.198-0.023,0.297-0.03c0.023,0,0.038-0.008,0.053-0.008c0.061-0.03,0.091-0.084,0.099-0.168
			c0.008-0.266-0.053-0.533-0.107-0.799c-0.038-0.175-0.068-0.35-0.084-0.525c-0.038-0.495-0.061-0.99-0.038-1.477
			c0.015-0.396,0.091-0.822,0.289-1.165c0.099-0.175,0.266-0.297,0.449-0.373c0.206-0.091,0.373-0.198,0.563-0.335
			c0.206-0.167,0.259-0.282,0.396-0.487c0.145-0.206,0.32-0.381,0.533-0.51c0.053-0.03,0.107-0.061,0.167-0.091
			c0.579-0.266,1.249-0.312,1.88-0.35c0.198-0.008,0.388-0.015,0.586-0.015c0.282,0,0.556,0.015,0.837,0.053
			c0.609,0.061,1.211,0.19,1.797,0.403c0.152,0.053,0.305,0.114,0.457,0.175c1.317,0.563,2.025,1.698,1.972,3.083
			c-0.015,0.449-0.084,0.891-0.198,1.332c-0.061,0.228-0.076,0.487-0.107,0.731c-0.008,0.091-0.084,0.335-0.038,0.419
			c0.076,0.16,0.213,0.099,0.365,0.137c0.305,0.068,0.464,0.434,0.449,0.708c0,0.015,0,0.03-0.008,0.046
			c-0.053,0.708,0.099,1.447-0.251,2.094c-0.091,0.175-0.274,0.343-0.457,0.411c-0.228,0.084-0.312,0.213-0.373,0.426
			c-0.32,1.043-0.837,1.979-1.622,2.741c-0.601,0.586-1.287,0.967-1.987,1.127C37.263,57.736,35.847,57.302,34.766,56.122z"/>
	</g>
	<polygon fill="#2E79BE" points="25.523,15.857 16.737,15.857 16.737,24.685 10.246,24.685 10.246,15.968 1.449,15.968 1.449,9.461 
		10.141,9.461 10.141,0.639 16.7,0.639 16.7,9.419 25.523,9.419 	"/>
</g>
</svg>
