<?xml version="1.0" encoding="utf-8"?>
<!-- Generator: Adobe Illustrator 18.0.0, SVG Export Plug-In . SVG Version: 6.00 Build 0)  -->
<!DOCTYPE svg PUBLIC "-//W3C//DTD SVG 1.1//EN" "http://www.w3.org/Graphics/SVG/1.1/DTD/svg11.dtd">
<svg version="1.1" id="Layer_1" xmlns="http://www.w3.org/2000/svg" xmlns:xlink="http://www.w3.org/1999/xlink" x="0px" y="0px"
	 width="64px" height="64px" viewBox="0 0 64 64" enable-background="new 0 0 64 64" xml:space="preserve">
<g>
	<g>
		<path fill="#2D3E4F" d="M56.743,19.457c-1.344-2.81-3.773-4.667-6.682-5.19c-0.006-0.001-0.011-0.002-0.017-0.003
			c-1.392-0.241-2.621-1.065-3.322-2.292c-0.233-0.409-0.448-0.817-0.637-1.229c-0.947-2.069-1.317-4.451-1.038-6.709
			c0.208-1.689-0.992-3.228-2.682-3.438c-1.689-0.21-3.228,0.992-3.438,2.682c-0.423,3.427,0.115,6.898,1.555,10.036
			c0.005,0.011,0.01,0.022,0.015,0.033c1.497,3.248-1.079,6.681-1.848,9.797c-0.754,3.058-2.155,5.947-4.016,8.483
			c-3.75,5.108-9.503,8.962-15.685,10.416c-0.035,0.008-0.072,0.016-0.115,0.027c-2.105,0.478-3.874,1.696-5.044,3.367
			c-0.629,0.898-1.431,1.654-2.371,2.218c-1.284,0.771-2.459,1.766-3.48,2.966c-2.33,2.733-3.608,6.31-3.51,9.814
			c0.047,1.671,1.416,2.996,3.078,2.996c0.031,0,0.06-0.002,0.088-0.002c1.701-0.047,3.043-1.465,2.996-3.169
			c-0.053-1.86,0.541-3.633,1.561-5.06c0.418-0.585,1.277-0.578,1.709-0.002c0.694,0.925,1.602,1.714,2.693,2.312
			c4.249,2.328,9.074,3.559,13.948,3.559c0.146,0,0.294,0,0.44-0.004c7.605-0.111,14.766-3.164,20.164-8.599
			c5.396-5.431,8.404-12.612,8.468-20.219C59.614,27.767,58.66,23.464,56.743,19.457z M30.875,56.542
			c-0.123,0.002-0.249,0.002-0.372,0.002c-4.118,0-8.19-1.038-11.778-3.004c-0.686-0.376-1.206-0.904-1.535-1.529
			c-0.349-0.664-0.481-1.438-0.366-2.262c0.173-1.233,0.986-2.688,2.745-3.203c0.084-0.027,0.173-0.049,0.263-0.07
			c0.078-0.016,0.154-0.035,0.23-0.053c5.795-1.482,11.028-4.426,15.136-8.519c4.159-4.14,6.956-9.249,8.09-14.778
			c0.01-0.053,0.023-0.113,0.033-0.181c0.187-1.171,0.686-2.09,1.352-2.772c1.011-1.042,2.412-1.535,3.676-1.535
			c0.781,0,2.558,0.203,3.795,1.895c0.187,0.257,0.362,0.547,0.52,0.875c1.619,3.382,2.423,7.015,2.392,10.796
			C54.943,45.428,44.096,56.347,30.875,56.542z"/>
		<g>
			<path fill="#2E79BE" d="M45.57,43.168c1.484-0.072,2.346,1.671,1.376,2.795c-3.885,4.503-9.592,7.403-15.922,7.497
				c-0.105,0.002-0.212,0.002-0.316,0.002c-3.057,0-6.084-0.654-8.846-1.902c-0.005-0.002-0.01-0.004-0.015-0.007
				c-0.962-0.445-0.98-1.813-0.042-2.309c0.109-0.058,0.197-0.099,0.251-0.114c5.306-1.519,10.152-4.176,14.161-7.76
				c0.481-0.43,1.167-0.555,1.762-0.307c0.119,0.05,0.237,0.103,0.354,0.161c0.836,0.413,1.564,1.025,2.412,1.414
				c1.475,0.674,3.169,0.61,4.79,0.532C45.546,43.169,45.558,43.168,45.57,43.168z"/>
		</g>
	</g>
</g>
</svg>
