<?xml version="1.0" encoding="utf-8"?>
<!-- Generator: Adobe Illustrator 18.0.0, SVG Export Plug-In . SVG Version: 6.00 Build 0)  -->
<!DOCTYPE svg PUBLIC "-//W3C//DTD SVG 1.1//EN" "http://www.w3.org/Graphics/SVG/1.1/DTD/svg11.dtd">
<svg version="1.1" id="Layer_1" xmlns="http://www.w3.org/2000/svg" xmlns:xlink="http://www.w3.org/1999/xlink" x="0px" y="0px"
	 width="64px" height="64px" viewBox="0 0 64 64" enable-background="new 0 0 64 64" xml:space="preserve">
<g>
	<path fill="#2E79BE" d="M20.17,36.943c-0.142-0.052-0.301-0.013-0.404,0.098L1.206,57.069c-0.407,0.427-0.422,0.81-0.362,1.056
		c0.122,0.502,0.647,0.918,1.562,1.235c0.331,0.115,0.733,0.167,1.195,0.156c3.307-0.081,10.242-3.598,15.679-9.139
		c2.931-2.987,5.904-6.174,8.528-8.986l0.872-1.048c0.105-0.126,0.041-0.319-0.118-0.358L20.17,36.943z"/>
	<rect x="39.12" y="55.558" fill="#2D3E4F" width="7.908" height="3.941"/>
	<rect x="23.304" y="55.558" fill="#2D3E4F" width="7.908" height="3.941"/>
	<rect x="55.274" y="55.558" fill="#2D3E4F" width="7.908" height="3.941"/>
	<path fill="#2D3E4F" d="M54.962,6.629c-2.861-2.861-7.501-2.861-10.362,0L20.843,32.366c-0.718,0.778-0.422,2.035,0.568,2.411
		l8.818,3.345c0.523,0.198,1.113,0.088,1.529-0.286l23.204-20.844C57.824,14.13,57.824,9.491,54.962,6.629z M33.902,31.091h-7.103
		l2.519-2.728h7.621L33.902,31.091z M41.378,24.379h-8.385l2.519-2.728h8.904L41.378,24.379z M51.009,15.729l-2.155,1.937h-9.668
		l2.519-2.728h9.877C51.437,15.22,51.246,15.484,51.009,15.729z"/>
</g>
</svg>
