<?xml version="1.0" encoding="utf-8"?>
<!-- Generator: Adobe Illustrator 18.0.0, SVG Export Plug-In . SVG Version: 6.00 Build 0)  -->
<!DOCTYPE svg PUBLIC "-//W3C//DTD SVG 1.1//EN" "http://www.w3.org/Graphics/SVG/1.1/DTD/svg11.dtd">
<svg version="1.1" id="Layer_1" xmlns="http://www.w3.org/2000/svg" xmlns:xlink="http://www.w3.org/1999/xlink" x="0px" y="0px"
	 width="64px" height="64px" viewBox="0 0 64 64" enable-background="new 0 0 64 64" xml:space="preserve">
<g>
	<path fill="#2D3E4F" d="M35.414,14.343c3.626-1.164,5.731-5.323,4.556-9.005c-1.243-3.896-5.232-5.941-9.152-4.694
		c-3.829,1.219-5.851,5.197-4.615,9.08C27.423,13.557,31.498,15.6,35.414,14.343z"/>
	<path fill="#2D3E4F" d="M44.322,31.684c-0.107-0.052-0.212-0.113-0.316-0.179c-0.022-0.201-0.062-0.402-0.125-0.602
		c-0.377-1.194-1.363-1.832-2.659-1.925c-1.263-0.092-2.568-0.166-3.761-0.546c-1.824-0.581-3.431-1.654-4.669-3.113
		c-1.001-1.179-2.073-2.567-2.315-4.193c-0.199-1.344,0.789-2.614-0.01-3.873c-1.442-2.279-4.866-2.5-6.657-0.423
		c-6.302,7.306-7.491,17.327-4.575,26.437c0.346,1.081,0.487,2.036,1.092,2.975c0.391,0.865,0.856,1.701,1.41,2.506
		c0.218,0.317,0.265,0.797,0.272,1.204c0.019,1.133,0.019,2.269,0.022,3.403c0.005,1.445,0.012,2.891,0.067,4.333
		c0.081,2.137,0.664,5.372,3.162,5.93c5.368,1.199,4.806-8.762,4.839-11.578c0.009-0.745,0.02-1.491,0.038-2.234
		c0.01-0.406,0.047-0.887,0.265-1.2c1.929-2.774,2.529-6.083,2.348-9.408c-0.112-2.065-0.397-4.516-1.259-6.523
		c-0.097-0.227,0.171-0.437,0.367-0.286c1.758,1.353,3.486,1.872,5.523,2.057c1.129,0.103,2.353,0.101,3.73,0.083
		c0.584-0.009,1.231-0.219,1.731-0.528c0.304-0.187,0.548-0.428,0.736-0.703c0.237-0.03,0.422,0.164,0.605,0.486
		c0.378,0.663,0.139,1.451-0.226,2.062c-0.327,0.548-1.048,0.975-1.048,1.662v21.278c0,0.615,0.498,1.113,1.113,1.113
		s1.113-0.498,1.113-1.113c0,0,0.026-10.463,0.003-15.319c-0.014-2.672,0.052-5.307,0.927-7.893
		C46.671,33.793,45.909,32.45,44.322,31.684z"/>
</g>
</svg>
