<?xml version="1.0" encoding="utf-8"?>
<!-- Generator: Adobe Illustrator 18.0.0, SVG Export Plug-In . SVG Version: 6.00 Build 0)  -->
<!DOCTYPE svg PUBLIC "-//W3C//DTD SVG 1.1//EN" "http://www.w3.org/Graphics/SVG/1.1/DTD/svg11.dtd">
<svg version="1.1" id="Layer_1" xmlns="http://www.w3.org/2000/svg" xmlns:xlink="http://www.w3.org/1999/xlink" x="0px" y="0px"
	 width="64px" height="64px" viewBox="0 0 64 64" enable-background="new 0 0 64 64" xml:space="preserve">
<g>
	<g>
		<path fill="#2D3E4F" d="M47.389,6.54c-0.453-1.325,0.561-2.697,1.945-2.697h0.167c0.597,0,1.146,0.274,1.515,0.704
			c-0.943,0.31-1.742,0.943-2.208,1.802c-0.274,0.501-0.442,1.038-0.477,1.587c-0.143,0-0.286,0.012-0.43,0.036
			C47.711,7.495,47.544,7.017,47.389,6.54z"/>
		<path fill="#2D3E4F" d="M59.823,34.391c-0.191,0.203-0.37,0.406-0.561,0.573c-0.298,0.358-0.656,0.668-1.062,0.955
			c-0.644,0.43-1.444,0.764-2.363,1.026c-0.322,0.095-0.668,0.167-1.038,0.251c-1.05,0.215-2.16,0.31-3.365,0.322
			c-0.979-0.012-1.957-0.072-3.007-0.179c-0.37-0.024-0.74-0.107-1.134-0.167c-0.346-0.072-1.146-0.215-1.659-0.215
			c-0.095,0-0.167,0.012-0.203,0.012c-0.632,0.585-1.241,1.241-1.897,1.957c-1.802,1.933-3.651,3.938-6.432,4.904
			c-1.026,0.358-2.1,0.561-3.186,0.597h-0.465c-1.086-0.036-2.148-0.239-3.174-0.597c-2.78-0.967-4.642-2.971-6.432-4.904
			c-0.644-0.716-1.277-1.372-1.909-1.957c-0.024,0-0.095-0.012-0.203-0.012c-0.513,0-1.313,0.143-1.647,0.215
			c-0.394,0.06-0.764,0.143-1.134,0.167c-1.05,0.107-2.029,0.167-2.995,0.179c-1.229-0.012-2.327-0.107-3.377-0.322
			c-0.37-0.084-0.704-0.155-1.026-0.251c-0.943-0.262-1.718-0.597-2.363-1.026c-0.418-0.286-0.776-0.597-1.074-0.955
			c-0.191-0.167-0.382-0.37-0.561-0.561c-3.007-3.305-3.819-7.16-2.315-11.181c0.68-1.802,1.766-3.52,3.329-5.274
			c2.971-3.293,5.274-7.088,6.849-11.241c0.179-0.465,0.346-0.943,0.501-1.42c0.286-0.847,1.062-1.444,1.957-1.444h0.155
			c1.396,0,2.399,1.372,1.957,2.697C19.8,7.101,19.597,7.662,19.394,8.21c-1.766,4.654-4.344,8.878-7.649,12.589
			c-1.205,1.336-2.029,2.625-2.518,3.914c-0.788,2.112-0.561,4.021,0.692,5.835c0.298-0.442,0.68-0.811,1.074-1.086
			c0.74-0.489,1.587-0.728,2.566-0.728c0.919,0,1.814,0.203,2.685,0.394l0.286,0.072c2.625,0.585,5.107,1.921,7.589,4.057
			c0.048,0.036,0.084,0.072,0.131,0.107l0.072,0.072c0.155,0.107,0.286,0.215,0.418,0.322c0.179,0.167,0.346,0.334,0.549,0.525
			c1.372,1.205,2.721,2.47,4.009,3.735c1.348,1.325,2.959,2.017,4.63,2.017c0.74,0,1.48-0.131,2.208-0.394
			c1.587-0.704,2.9-2.112,4.284-3.616c0.203-0.215,0.394-0.43,0.609-0.644c0.06-0.072,0.107-0.119,0.167-0.191v-0.012
			c0.382-0.394,0.895-0.919,1.444-1.42c0.167-0.143,0.346-0.286,0.549-0.418c1.826-1.492,3.866-2.613,6.038-3.353
			c1.348-0.453,2.756-0.692,4.129-0.919c0.442-0.072,0.919-0.155,1.372-0.239c0.119-0.024,0.263-0.024,0.382-0.024
			c0.382,0,0.74,0.072,1.038,0.143c0.692,0.179,1.301,0.453,1.79,0.823c0.764-1.492,0.883-3.055,0.298-4.761
			c1.444-0.394,2.482-1.432,2.864-2.852c0.048-0.179,0.083-0.382,0.107-0.609c0.048,0,0.095-0.012,0.143-0.024
			c0.298,0.561,0.561,1.122,0.776,1.694C63.63,27.231,62.842,31.098,59.823,34.391z"/>
		<path fill="#2E79BE" d="M33.836,33.652c-2.314-0.005-4.329-0.461-6.153-1.63c-0.73-0.467-1.481-0.901-2.212-1.365
			c-0.829-0.526-1.067-1.404-0.608-2.176c0.453-0.763,1.362-0.987,2.197-0.509c0.89,0.509,1.737,1.102,2.65,1.565
			c2.59,1.313,5.211,1.317,7.8-0.005c0.871-0.445,1.68-1.01,2.526-1.505c0.915-0.535,1.848-0.341,2.316,0.463
			c0.456,0.782,0.148,1.716-0.744,2.259c-0.741,0.45-1.49,0.886-2.221,1.351C37.638,33.212,35.702,33.62,33.836,33.652z"/>
	</g>
	<path fill="#2E79BE" d="M59.272,13.876c0.395-0.065,0.804-0.062,1.206-0.066c0.282-0.003,0.568,0.072,0.846,0.047
		c0.756-0.07,1.348-0.623,1.472-1.328c0.118-0.672-0.26-1.372-0.921-1.708c-0.623-0.317-1.37-0.161-1.891,0.398
		c-0.278,0.299-0.54,0.612-0.824,0.904c-0.622,0.64-1.597,0.443-1.908-0.38c-0.169-0.448,0.038-0.993,0.529-1.402
		c0.314-0.261,0.641-0.509,0.932-0.793c0.51-0.497,0.629-1.037,0.392-1.59c-0.306-0.713-0.944-1.141-1.667-1.12
		c-0.631,0.018-1.162,0.405-1.343,1.097c-0.104,0.401-0.035,0.843-0.092,1.26c-0.063,0.463-0.137,0.934-0.288,1.372
		c-0.136,0.394-0.551,0.5-0.893,0.391c-0.323-0.103-0.708-0.321-0.851-0.599c-0.171-0.334-0.138-0.784-0.151-1.185
		c-0.011-0.353,0.075-0.711,0.05-1.061c-0.054-0.766-0.473-1.225-1.186-1.371c-0.721-0.147-1.47,0.169-1.793,0.758
		c-0.324,0.59-0.228,1.396,0.248,1.883c0.297,0.304,0.619,0.584,0.933,0.871c0.5,0.459,0.59,1.275,0.189,1.732
		c-0.372,0.423-1.055,0.438-1.58-0.031c-0.394-0.351-0.697-0.803-1.085-1.161c-0.603-0.556-1.465-0.621-2.064-0.211
		c-0.582,0.399-0.808,1.172-0.541,1.854c0.314,0.804,0.93,1.136,1.804,1.077c0.504-0.034,1.033-0.006,1.522,0.111
		c0.426,0.102,0.753,0.432,0.721,0.934c-0.032,0.497-0.268,0.894-0.767,1.043c-0.264,0.079-0.555,0.093-0.833,0.088
		c-0.372-0.006-0.744-0.089-1.115-0.082c-0.773,0.015-1.39,0.49-1.549,1.149c-0.183,0.754,0.171,1.529,0.862,1.886
		c0.619,0.32,1.351,0.162,1.89-0.401c0.307-0.32,0.605-0.65,0.937-0.943c0.333-0.294,0.72-0.449,1.18-0.269
		c0.828,0.324,0.936,1.344,0.201,1.999c-0.318,0.284-0.654,0.549-0.969,0.836c-0.723,0.657-0.731,1.61-0.028,2.299
		c0.679,0.665,1.656,0.597,2.302-0.126c0.48-0.537,0.509-1.12,0.369-1.789c-0.135-0.649,0.034-1.235,0.634-1.63
		c0.363-0.239,0.706-0.181,1.043,0.047c0.574,0.389,0.607,0.957,0.515,1.565c-0.024,0.158-0.08,0.317-0.073,0.474
		c0.015,0.334,0.011,0.682,0.104,0.998c0.234,0.799,1.065,1.227,1.863,1.009c0.618-0.169,1.028-0.562,1.193-1.176
		c0.176-0.657-0.106-1.181-0.562-1.629c-0.303-0.298-0.62-0.581-0.93-0.871c-0.487-0.684-0.408-1.304,0.24-1.706
		c0.502-0.312,1.076-0.192,1.517,0.321c0.302,0.35,0.59,0.712,0.901,1.054c0.416,0.457,0.955,0.571,1.512,0.371
		c0.612-0.219,1.091-0.63,1.177-1.324c0.074-0.604-0.125-1.119-0.655-1.472c-0.553-0.368-1.164-0.354-1.797-0.329
		c-0.374,0.015-0.785-0.038-1.123-0.189c-0.378-0.169-0.641-0.521-0.579-0.989C58.557,14.315,58.79,13.955,59.272,13.876z
		 M53.625,16.249c-0.074,0.071-0.152,0.14-0.236,0.208c-0.272,0.665-1.685,0.712-1.579-0.198c0.182-0.659,0.692-1.145,1.364-1.46
		c0.251-0.077,0.664,0.017,0.825,0.187C54.405,15.41,54.056,16.066,53.625,16.249z M54.384,14.366
		c-0.439-0.525-0.549-1.22-0.427-1.952c0.079-0.25,0.391-0.537,0.622-0.573c0.58-0.091,0.921,0.567,0.827,1.027
		c0.016,0.101,0.029,0.205,0.037,0.312C55.836,13.781,55.074,14.97,54.384,14.366z M57.456,16.552
		c-0.287,0.512-1.016,0.372-1.318,0.014c-0.089-0.049-0.179-0.104-0.268-0.164c-0.715-0.064-1.178-1.4-0.277-1.567
		c0.684-0.02,1.298,0.324,1.798,0.873C57.538,15.925,57.571,16.347,57.456,16.552z"/>
	<path fill="#2E79BE" d="M13.677,51.262c0.395-0.065,0.804-0.062,1.206-0.066c0.282-0.003,0.568,0.072,0.846,0.047
		c0.756-0.07,1.348-0.623,1.472-1.328c0.118-0.672-0.26-1.372-0.921-1.708c-0.623-0.317-1.37-0.161-1.891,0.398
		c-0.278,0.299-0.54,0.612-0.824,0.904c-0.622,0.64-1.597,0.443-1.908-0.38c-0.169-0.448,0.038-0.993,0.529-1.402
		c0.314-0.261,0.641-0.509,0.932-0.793c0.51-0.497,0.629-1.037,0.392-1.59c-0.306-0.713-0.944-1.141-1.667-1.12
		c-0.631,0.018-1.162,0.405-1.343,1.097c-0.104,0.401-0.035,0.843-0.092,1.26c-0.063,0.463-0.137,0.934-0.288,1.372
		c-0.136,0.394-0.551,0.5-0.893,0.391c-0.323-0.103-0.708-0.321-0.851-0.599c-0.171-0.334-0.138-0.784-0.151-1.185
		c-0.011-0.353,0.075-0.711,0.05-1.061c-0.054-0.766-0.473-1.225-1.186-1.371c-0.721-0.147-1.47,0.169-1.793,0.758
		c-0.324,0.59-0.228,1.396,0.248,1.883c0.297,0.304,0.619,0.584,0.933,0.871c0.5,0.459,0.59,1.275,0.189,1.732
		c-0.372,0.423-1.055,0.438-1.58-0.031c-0.394-0.351-0.697-0.803-1.085-1.161c-0.603-0.556-1.465-0.621-2.064-0.211
		c-0.582,0.399-0.808,1.172-0.541,1.854c0.314,0.804,0.93,1.136,1.804,1.077c0.504-0.034,1.033-0.006,1.522,0.111
		c0.426,0.102,0.753,0.432,0.721,0.934c-0.032,0.497-0.268,0.894-0.767,1.043c-0.264,0.079-0.555,0.093-0.833,0.088
		C3.472,53.074,3.1,52.99,2.729,52.997c-0.773,0.015-1.39,0.49-1.549,1.149c-0.183,0.754,0.171,1.529,0.862,1.886
		c0.619,0.32,1.351,0.162,1.89-0.401c0.307-0.32,0.605-0.65,0.937-0.943c0.333-0.294,0.72-0.449,1.18-0.269
		c0.828,0.324,0.936,1.344,0.201,1.999c-0.318,0.284-0.654,0.549-0.969,0.836c-0.723,0.657-0.731,1.61-0.028,2.299
		c0.679,0.665,1.656,0.597,2.302-0.126c0.48-0.537,0.509-1.12,0.369-1.789c-0.135-0.649,0.034-1.235,0.634-1.63
		c0.363-0.239,0.706-0.181,1.043,0.047c0.574,0.389,0.607,0.957,0.515,1.565c-0.024,0.158-0.08,0.317-0.073,0.474
		c0.015,0.334,0.011,0.682,0.104,0.998c0.234,0.799,1.065,1.227,1.863,1.009c0.618-0.169,1.028-0.562,1.193-1.176
		c0.176-0.657-0.106-1.181-0.562-1.629c-0.303-0.298-0.62-0.581-0.93-0.871c-0.487-0.684-0.408-1.304,0.24-1.706
		c0.502-0.312,1.076-0.192,1.517,0.321c0.302,0.35,0.59,0.712,0.901,1.054c0.416,0.457,0.955,0.571,1.512,0.371
		c0.612-0.219,1.091-0.63,1.177-1.324c0.074-0.604-0.125-1.119-0.655-1.472c-0.553-0.368-1.164-0.354-1.797-0.329
		c-0.374,0.015-0.785-0.038-1.123-0.189c-0.378-0.169-0.641-0.521-0.579-0.989C12.962,51.702,13.195,51.341,13.677,51.262z
		 M8.03,53.636c-0.074,0.071-0.152,0.14-0.236,0.208c-0.272,0.665-1.685,0.712-1.579-0.198c0.182-0.659,0.692-1.145,1.364-1.46
		c0.251-0.077,0.664,0.017,0.825,0.187C8.81,52.797,8.462,53.452,8.03,53.636z M8.789,51.753c-0.439-0.525-0.549-1.22-0.427-1.952
		c0.079-0.25,0.391-0.537,0.622-0.573c0.58-0.091,0.921,0.567,0.827,1.027c0.016,0.101,0.029,0.205,0.037,0.312
		C10.241,51.168,9.479,52.357,8.789,51.753z M11.861,53.939c-0.287,0.512-1.016,0.372-1.318,0.014
		c-0.089-0.049-0.179-0.104-0.268-0.164c-0.715-0.064-1.178-1.4-0.277-1.567c0.684-0.02,1.298,0.324,1.798,0.873
		C11.943,53.312,11.976,53.734,11.861,53.939z"/>
</g>
</svg>
