<?xml version="1.0" encoding="utf-8"?>
<!-- Generator: Adobe Illustrator 18.0.0, SVG Export Plug-In . SVG Version: 6.00 Build 0)  -->
<!DOCTYPE svg PUBLIC "-//W3C//DTD SVG 1.1//EN" "http://www.w3.org/Graphics/SVG/1.1/DTD/svg11.dtd">
<svg version="1.1" id="Layer_1" xmlns="http://www.w3.org/2000/svg" xmlns:xlink="http://www.w3.org/1999/xlink" x="0px" y="0px"
	 width="64px" height="64px" viewBox="0 0 64 64" enable-background="new 0 0 64 64" xml:space="preserve">
<g>
	<g>
		<path fill="#2E79BE" d="M61.448,51.616c-0.95-1.526-1.998-2.993-3.06-4.447c-1.445-1.998-3.339-3.699-3.947-6.229
			c-0.023-0.099-0.221-0.234-0.315-0.221c-0.108,0.022-0.257,0.176-0.284,0.288c-0.261,1.409-1.094,2.511-1.917,3.623
			c-1.472,1.994-3.002,3.951-4.415,5.99c-1.22,1.76-1.616,3.74-1.242,5.882c0.743,4.213,4.397,7.039,8.758,6.733
			c4.001-0.279,7.282-3.888,7.304-8.214C62.415,53.92,62.109,52.692,61.448,51.616z"/>
		<path fill="#2E79BE" d="M40.932,28.685c-2.435-3.913-5.124-7.675-7.848-11.403c-3.705-5.124-8.564-9.487-10.122-15.973
			c-0.058-0.254-0.566-0.6-0.808-0.566c-0.277,0.058-0.658,0.45-0.727,0.739c-0.669,3.612-2.805,6.44-4.917,9.291
			c-3.774,5.113-7.698,10.133-11.322,15.362c-3.128,4.513-4.143,9.591-3.185,15.084c1.904,10.803,11.276,18.051,22.459,17.266
			c10.26-0.716,18.674-9.972,18.732-21.063C43.413,34.594,42.628,31.443,40.932,28.685z M11.727,48.306
			c-1.861-2.073-3.16-4.701-3.693-7.725c-0.723-4.143,0.025-7.743,2.287-11.006c0.015-0.021,0.03-0.043,0.045-0.064
			c1.148-1.655,3.769-0.758,3.654,1.252c-0.067,1.159-0.101,2.334-0.101,3.523c0,4.297,0.443,8.419,1.257,12.249
			C15.6,48.527,13.088,49.822,11.727,48.306z"/>
	</g>
</g>
</svg>
