<?xml version="1.0" encoding="utf-8"?>
<!-- Generator: Adobe Illustrator 18.0.0, SVG Export Plug-In . SVG Version: 6.00 Build 0)  -->
<!DOCTYPE svg PUBLIC "-//W3C//DTD SVG 1.1//EN" "http://www.w3.org/Graphics/SVG/1.1/DTD/svg11.dtd">
<svg version="1.1" id="Layer_1" xmlns="http://www.w3.org/2000/svg" xmlns:xlink="http://www.w3.org/1999/xlink" x="0px" y="0px"
	 width="64px" height="64px" viewBox="0 0 64 64" enable-background="new 0 0 64 64" xml:space="preserve">
<g>
	<g>
		<g>
			<path fill="#2D3E4F" d="M62.013,18.422c-0.79,2.217-2.744,3.939-3.838,4.759c-2.177,1.65-4.425,3.271-6.592,4.84
				c-0.982,0.719-2.005,1.458-3.007,2.187c0.01-0.537,0.01-0.891,0-1.094c-0.061-1.073-0.152-2.116-0.253-3.109
				c0.122-0.091,0.233-0.182,0.344-0.263c1.681-1.256,3.271-2.562,4.597-3.655c0.446-0.365,0.871-0.759,1.316-1.164
				c0.719-0.668,1.458-1.347,2.278-1.924c0.111-0.071,0.233-0.152,0.365-0.243c0.253-0.162,0.527-0.344,0.759-0.537
				c0.456-0.385,0.375-0.496,0.294-0.608c-0.385-0.537-1.428-0.901-2.116-1.144l-0.04-0.01c-0.921-0.324-1.954-0.496-3.068-0.506
				c-1.306-0.01-2.319-0.02-3.271-0.02c-1.205,0-2.299,0.01-3.331,0.04c-0.051-0.304-0.081-0.608-0.111-0.911
				c-0.051-0.699-0.071-1.387-0.04-2.066c0.01-0.172,0.04-0.476,0.101-0.881c0.79,0.02,1.58,0.04,2.349,0.061
				c0.719,0.02,1.438,0.04,2.147,0.061c0.365,0,0.709,0.03,1.053,0.071c0.365,0.03,0.719,0.061,1.053,0.061h0.101
				c2.39,0,5.255,0.79,7.29,1.995C62.479,15.618,62.428,17.258,62.013,18.422z"/>
			<path fill="#2D3E4F" d="M32.912,38.329l-0.365,0.314l-0.081,0.091c-0.051,0.061-0.101,0.111-0.162,0.172
				c-1.367,1.266-2.582,2.298-4.182,2.714c0.02-0.324,0.051-0.638,0.071-0.962c0.101-1.367,0.203-2.653,0.344-3.959
				c0.395-3.898,1.043-8.465,2.734-12.738c0.932-2.369,2.278-4.212,4.01-5.498c-0.071-0.122-0.152-0.243-0.223-0.354
				c-0.547-0.861-1.154-1.63-1.782-2.298c-0.608-0.638-2.714-2.238-4.243-3.372c-0.84-0.03-1.701-0.051-2.552-0.051
				c-0.435,0-0.83,0-1.225,0.01c-2.066,0.061-4.212,0.334-6.399,0.83c-1.276,0.284-2.491,0.77-3.655,1.235
				c-0.314,0.122-0.628,0.243-0.932,0.365l-0.091,0.04c-0.385,0.203-0.84,0.486-1.205,0.719h-0.03l-0.415,0.304
				c-0.203,0.162-0.405,0.314-0.618,0.456c-2.785,1.954-4.982,4.617-6.713,8.141c-2.086,4.233-3.169,9.002-3.402,15.016
				c-0.111,2.947,0.041,5.923,0.213,8.445c0.132,1.843,0.273,3.929,0.81,5.964c0.395,1.519,0.992,3.807,3.028,4.293
				c0.344,0.081,0.709,0.122,1.073,0.122c2.319,0,4.749-1.61,6.521-2.785c0.203-0.142,0.405-0.273,0.597-0.405
				c0.223-0.142,0.446-0.294,0.668-0.435c0.223-0.142,0.435-0.283,0.648-0.435c-0.365,0.628-0.739,1.276-1.094,1.924
				c-0.719,1.316-1.397,2.744-2.136,4.516c-0.415,0.972-0.304,1.853,0.304,2.41c0.253,0.233,0.557,0.354,0.891,0.354
				c0.77,0,1.833-0.496,3.949-4.212c1.164-2.055,2.147-4.222,2.349-4.739c0.658-1.6,1.225-3.26,1.782-4.87
				c0.142-0.395,0.273-0.8,0.415-1.205c0.557-1.6,1.519-2.359,3.109-2.44c0.81-0.04,1.6-0.182,2.329-0.324
				c3.109-0.597,5.853-2.187,8.88-5.124c0.638-0.628,1.337-1.306,2.086-2.005c0.061-1.458,0.142-3.554,0.203-5.144
				C36.476,35.14,34.208,37.165,32.912,38.329z M26.715,26.887c-0.233,0.851-0.466,1.731-0.729,2.582l-0.03,0.061l-0.324,2.622
				l-0.091,0.719c-0.122,0.851-0.233,1.711-0.344,2.562l-0.091,0.608l-0.446,2.602l-0.142,1.61c-0.02,0.051-0.03,0.132-0.03,0.243
				c0.03,1.428-0.354,1.863-1.772,2.045c-2.562,0.334-4.374,2.461-5.832,4.162c-0.132,0.162-0.273,0.314-0.405,0.476
				c-1.681,1.934-3.716,4.121-6.116,5.62L10.14,52.93c-0.678,0.425-1.944,1.225-2.764,1.225c-0.152,0-0.263-0.03-0.354-0.081
				c-0.304-0.203-0.304-1.144-0.304-1.701c0-0.243-0.01-0.476-0.02-0.689c-0.051-0.547-0.091-1.104-0.132-1.65
				c-0.061-0.729-0.122-1.468-0.182-2.197c-0.182-2.369-0.344-4.921-0.354-7.503C6.009,34.947,6.94,30.35,8.864,26.27
				c2.622-5.529,6.926-8.688,12.778-9.396c1.205-0.142,2.501-0.213,4.07-0.213c1.134,0,2.288,0.041,3.402,0.071
				c0.689,0.02,1.377,0.04,2.076,0.061c-0.162,0.273-0.324,0.537-0.486,0.81c-0.891,1.458-1.812,2.977-2.491,4.587
				C27.576,23.718,27.141,25.328,26.715,26.887z"/>
		</g>
		<g>
			<path fill="#2E79BE" d="M45.539,29.294c-0.16-2.707-0.451-5.124-0.889-7.39c-0.156-0.807-0.351-1.611-0.54-2.389
				c-0.349-1.435-0.679-2.791-0.795-4.207c-0.067-0.814-0.083-1.635-0.048-2.44c0.065-1.543,1.408-8.269,1.828-9.726
				c0.151-0.526,0.088-1.079-0.177-1.557c-0.265-0.479-0.7-0.825-1.226-0.976c-0.185-0.053-0.375-0.08-0.566-0.08
				c-0.907,0-1.716,0.609-1.969,1.482c-0.424,1.474-1.798,8.212-1.921,9.77c-2.075-2.434-7.59-6.241-7.673-6.287
				c-0.303-0.168-0.646-0.257-0.991-0.257c-0.746,0-1.433,0.405-1.795,1.058c-0.545,0.988-0.184,2.236,0.802,2.781
				c0.009,0.005,4.644,3.334,5.888,4.635c0.772,0.806,1.495,1.734,2.149,2.758c2.485,3.892,3.797,8.827,3.899,14.668
				c0.017,0.967-0.28,8.131-0.331,9.126c-0.042,0.873-0.113,1.79-0.21,2.723c-0.058,0.544,0.1,1.078,0.444,1.503
				c0.344,0.424,0.833,0.69,1.382,0.748c0.071,0.007,0.142,0.01,0.211,0.01c0.151,0,0.301-0.016,0.447-0.049
				c0.859-0.195,1.497-0.912,1.589-1.786c0.191-1.811,0.287-3.596,0.287-5.306C45.335,37.21,45.589,30.15,45.539,29.294z"/>
		</g>
	</g>
</g>
</svg>
