<?xml version="1.0" encoding="utf-8"?>
<!-- Generator: Adobe Illustrator 18.0.0, SVG Export Plug-In . SVG Version: 6.00 Build 0)  -->
<!DOCTYPE svg PUBLIC "-//W3C//DTD SVG 1.1//EN" "http://www.w3.org/Graphics/SVG/1.1/DTD/svg11.dtd">
<svg version="1.1" id="Layer_1" xmlns="http://www.w3.org/2000/svg" xmlns:xlink="http://www.w3.org/1999/xlink" x="0px" y="0px"
	 width="64px" height="64px" viewBox="0 0 64 64" enable-background="new 0 0 64 64" xml:space="preserve">
<g>
	<path fill="#2E79BE" d="M57.619,30.642c0,0.157-0.013,0.328-0.052,0.486l-0.682,3.045l-0.066,0.236l-0.853,3.36l-0.013,0.013
		c-0.669,0.577-1.496,0.971-2.415,1.102c-0.223,0.039-0.446,0.053-0.682,0.053H21.529c-2.638,0-4.764-2.139-4.764-4.764
		c0-1.312,0.538-2.507,1.391-3.373c0.866-0.853,2.06-1.391,3.373-1.391h2.414c6.709,0,13.285,1.56,19.452,4.201
		c0.803,0.344,1.6,0.562,2.331,0.562h4.553c1.206,0,2.252-0.836,2.517-2.013l0.452-2.003c0.262-1.194,1.457-1.942,2.651-1.68
		C56.923,28.713,57.619,29.632,57.619,30.642z"/>
	<circle fill="#2E79BE" cx="11.68" cy="27.098" r="4.593"/>
	<path fill="#2E79BE" d="M48.103,6.262c0.028-2.666-2.077-4.364-4.314-4.338c-6.137,0.072-12.275,0.063-18.413,0.002
		c-2.422-0.024-4.352,1.796-4.33,4.322c0.036,3.987,0.009,7.975,0.015,11.963c0.004,2.445,1.732,4.181,4.174,4.186
		c3.131,0.007,6.263,0.002,9.394,0.001c3.09,0,6.179,0.005,9.269-0.002c2.469-0.005,4.192-1.748,4.194-4.234
		C48.096,14.195,48.061,10.228,48.103,6.262z M43.978,11.176c-0.514,0-1.003-0.229-1.334-0.62c-0.288-0.001-0.578-0.001-0.868-0.005
		c-0.775,1.563-1.566,3.14-2.332,4.669l-0.579,1.153c-0.429,0.858-1.056,1.294-1.866,1.294c-0.079,0-0.16-0.004-0.245-0.013
		c-0.846-0.088-1.456-0.626-1.763-1.555c-0.512-1.55-1.339-4.01-1.958-5.855l-0.558,1.117c-0.255,0.512-0.507,1.015-0.759,1.518
		c-0.443,0.878-1.168,1.298-2.065,1.216c-0.845-0.081-1.468-0.608-1.755-1.486c-0.191-0.585-0.498-1.499-0.766-2.288
		c-0.263,0.122-0.539,0.197-0.803,0.216c-0.502,0.035-0.995,0.027-1.471,0.018l-0.323-0.005c-0.62-0.008-1.119-0.519-1.111-1.14
		c0.009-0.613,0.515-1.111,1.129-1.111l0.345,0.005c0.443,0.008,0.862,0.017,1.271-0.013h-0.001c-0.012,0,0.037-0.017,0.08-0.051
		c0.093-0.071,0.212-0.205,0.336-0.346c0.311-0.349,0.793-0.517,1.254-0.424c0.461,0.092,0.842,0.425,0.995,0.869
		c0.218,0.634,0.725,2.126,1.063,3.146l2.026-4.05c0.241-0.482,0.724-0.78,1.261-0.78l0.099,0.003
		c0.57,0.04,1.056,0.414,1.238,0.955c0.477,1.407,1.738,5.155,2.493,7.43l0.417-0.832c0.818-1.63,1.663-3.314,2.485-4.976
		c0.303-0.615,0.819-0.941,1.494-0.941c0.43,0.008,0.832,0.01,1.229,0.01c0.331-0.394,0.821-0.626,1.34-0.626
		c0.965,0,1.749,0.785,1.749,1.749C45.728,10.391,44.943,11.176,43.978,11.176z"/>
	<path fill="#2D3E4F" d="M59.471,41.54H30.298H19.472c-2.541,0-4.928-0.992-6.735-2.789l-5.423-5.423
		c-0.506-0.506-1.116-0.837-1.756-1.002c-0.64-0.176-1.312-0.176-1.952,0c-0.64,0.165-1.25,0.496-1.756,1.002
		c-0.754,0.754-1.136,1.746-1.136,2.737V48.22c0,2.216,1.796,4.012,4.012,4.012c0,0,8.508,0.114,9.087,0.134v6.921
		c0,1.529,1.25,2.789,2.789,2.789s2.799-1.26,2.799-2.789v-6.911h26.9v6.911c0,1.529,1.25,2.789,2.789,2.789
		c1.539,0,2.789-1.26,2.789-2.789v-6.911h7.593c2.128,0,3.817-2.032,3.817-5.449C63.288,44.006,61.599,41.54,59.471,41.54z"/>
</g>
</svg>
