<?xml version="1.0" encoding="utf-8"?>
<!-- Generator: Adobe Illustrator 18.0.0, SVG Export Plug-In . SVG Version: 6.00 Build 0)  -->
<!DOCTYPE svg PUBLIC "-//W3C//DTD SVG 1.1//EN" "http://www.w3.org/Graphics/SVG/1.1/DTD/svg11.dtd">
<svg version="1.1" id="Layer_1" xmlns="http://www.w3.org/2000/svg" xmlns:xlink="http://www.w3.org/1999/xlink" x="0px" y="0px"
	 width="64px" height="64px" viewBox="0 0 64 64" enable-background="new 0 0 64 64" xml:space="preserve">
<g>
	<path fill="#2E79BE" d="M63.391,7.862c-0.053-1.742-0.915-3.279-2.213-4.266c-0.96-0.72-2.16-1.155-3.448-1.155
		c-5.572,0-9.66,0.062-15.224-0.018c-2.817-0.044-5.643,2.168-5.67,5.572v0.178c0,3.617,0,22.787,0,22.787
		c0,0.347,0.427,0.524,0.675,0.284c1.093-1.093,3.244-3.235,4.444-4.417l0.116-0.116c0.133-0.133,0.364-0.222,0.551-0.222
		c2.471-0.009,4.95-0.018,7.43-0.018c2.417,0,3.599,0.32,5.945-0.364c2.044-0.595,3.893-1.92,5.199-3.59
		c0.595-0.764,1.102-1.617,1.484-2.542C63.507,17.966,63.453,9.941,63.391,7.862z M57.001,16.793h-4.817v4.835h-4.106v-4.772h-4.817
		v-4.115h4.755V7.906h4.15v4.808h4.835V16.793z"/>
	<g>
		<g>
			<path fill="#2D3E4F" d="M46.012,52.765l-0.021,0.545v0.395c-0.004,0.167-0.009,0.343-0.009,0.515
				c0.009,0.656-0.429,1.819-1.146,2.244c-0.103,0.056-0.202,0.116-0.279,0.172c-0.798,0.498-1.66,1.017-2.557,1.42
				c-2.857,1.27-6.183,2.18-10.46,2.853c-1.429,0.227-2.78,0.39-4.132,0.502c-1.287,0.112-2.557,0.167-3.891,0.167h-0.416
				c-1.334,0-2.604-0.056-3.891-0.167c-1.347-0.112-2.699-0.275-4.132-0.502c-4.282-0.678-7.603-1.583-10.452-2.853
				c-0.897-0.403-1.763-0.918-2.549-1.412c-0.094-0.064-0.189-0.124-0.283-0.176c-0.721-0.425-1.158-1.587-1.15-2.253
				c0-0.322-0.009-0.665-0.017-0.922l-0.03-0.584c-0.039-1.51-0.082-3.068,0.498-4.355c0.682-1.515,2.107-2.652,3.51-3.69
				c0.661-0.498,1.399-0.991,2.197-1.463c0.18,0.386,0.395,0.811,0.661,1.33c0.124,0.24,0.253,0.481,0.386,0.725
				c-1.841,1.639-2.536,4.78-1.72,7.92c0.06,0.249,0.137,0.515,0.227,0.785l0.12,0.373c0.107,0.335,0.219,0.682,0.395,1.038
				c0.468,0.957,1.064,1.442,1.772,1.442c0.129,0,0.262-0.017,0.408-0.051l0.064-0.021c0.129-0.03,0.219-0.056,0.322-0.086
				c0.378,0.159,0.824,0.18,1.206,0.047c0.592-0.202,1.025-0.708,1.137-1.313l0.064-0.378h-0.051
				c-0.026-0.922-0.781-1.665-1.703-1.665c-0.528,0-1.008,0.236-1.326,0.622c-0.043-0.12-0.082-0.249-0.124-0.386
				c-0.017-0.056-0.039-0.112-0.056-0.167c-0.017-0.064-0.039-0.124-0.06-0.184c-1.004-2.969-0.318-5.977,1.497-6.689
				c1.978-0.541,4.303,1.463,5.299,4.406c0.039,0.103,0.077,0.202,0.124,0.343l0.021,0.069c0.021,0.051,0.039,0.103,0.056,0.154
				c-0.142,0.013-0.287,0.043-0.425,0.09c-0.429,0.142-0.777,0.446-0.978,0.854c-0.202,0.408-0.232,0.871-0.086,1.3
				c0.232,0.695,0.88,1.158,1.609,1.158c0.193,0,0.373-0.03,0.549-0.09c0.425-0.146,0.764-0.438,0.965-0.828
				c0.416-0.206,0.858-0.648,0.858-1.587c0-0.24-0.026-0.498-0.082-0.785c-0.077-0.39-0.197-0.725-0.313-1.047l-0.03-0.073
				c-0.039-0.103-0.069-0.202-0.103-0.313c-1.206-3.544-4.016-6.024-6.826-6.024c-0.163,0-0.33,0.013-0.528,0.034
				c-0.215-0.395-0.403-0.747-0.571-1.081c-0.202-0.39-0.395-0.789-0.562-1.15l0.026-0.013c0.193-0.099,0.382-0.197,0.583-0.3
				l0.978-0.506c0.438-0.223,0.875-0.446,1.33-0.661l0.021-0.009c0.764-0.352,1.403-0.601,2.029-0.789
				c0.039-0.017,0.077-0.03,0.12-0.047l0.06,0.099c0.154,0.236,0.309,0.472,0.472,0.704c0.618,0.905,1.137,1.639,1.626,2.304
				c0.974,1.339,1.948,2.596,2.772,3.647c0.232,0.296,0.468,0.588,0.704,0.884c0.236,0.296,0.476,0.596,0.712,0.897
				c0.051,0.064,0.103,0.124,0.154,0.184c0.047,0.056,0.09,0.112,0.137,0.167l0.438,0.558l0.129-0.699
				c0.279-1.472,0.644-3.492,0.682-3.81l0.017-0.249c0-0.03-0.004-0.064-0.009-0.077l-0.034-0.172
				c-0.034-0.077-0.077-0.163-0.137-0.253l-0.309-0.472c-0.163-0.249-0.326-0.498-0.476-0.747c-0.009-0.009-0.009-0.034-0.009-0.047
				l0.047-0.142c0.069-0.197,0.137-0.403,0.219-0.609l0.09-0.27c0.103-0.275,0.202-0.558,0.296-0.832
				c0.017-0.009,0.03-0.017,0.039-0.021c0.103-0.034,0.669-0.082,1.613-0.082c0.983,0,1.575,0.052,1.669,0.082l0.047,0.017
				c0.064,0.206,0.137,0.412,0.21,0.614l0.227,0.635c0.069,0.206,0.142,0.416,0.21,0.588c0.004,0.017-0.004,0.056-0.004,0.064
				c-0.159,0.253-0.322,0.506-0.485,0.755l-0.313,0.485c-0.056,0.077-0.09,0.159-0.12,0.236l-0.026,0.086
				c-0.021,0.064-0.021,0.124-0.021,0.163l0.021,0.257c0.034,0.3,0.382,2.253,0.661,3.724l0.137,0.734l0.438-0.601
				c0.064-0.086,0.133-0.172,0.215-0.262c0.266-0.339,0.532-0.674,0.798-1.004l0.768-0.961c0.85-1.094,1.755-2.261,2.617-3.458
				c0.601-0.828,1.141-1.592,1.652-2.338c0.172-0.253,0.339-0.511,0.515-0.781c0.043,0.017,0.09,0.034,0.142,0.056
				c0.609,0.185,1.249,0.433,2.008,0.785l0.03,0.017c0.442,0.206,0.884,0.429,1.317,0.652l0.995,0.511
				c0.493,0.253,1.013,0.528,1.54,0.815c-0.12,0.506-0.253,0.987-0.395,1.437c-0.42,1.309-0.957,2.523-1.596,3.613
				c-0.511-0.202-1.06-0.313-1.613-0.313c-2.377,0-4.308,1.935-4.308,4.308c0,2.248,1.755,4.132,3.99,4.29
				c0.103,0.009,0.215,0.009,0.317,0.009c1.064,0,2.081-0.386,2.857-1.085c0.922-0.815,1.45-1.986,1.45-3.214
				c0-0.922-0.3-1.828-0.854-2.574c0.686-1.128,1.27-2.364,1.738-3.686c0.167-0.468,0.322-0.978,0.476-1.557
				c0.442,0.283,0.922,0.609,1.386,0.961c1.403,1.043,2.832,2.188,3.51,3.686C46.111,49.659,46.06,51.238,46.012,52.765z"/>
		</g>
		<g>
			<path fill="#2D3E4F" d="M36.968,51.525c0,1.103-0.901,1.999-2.004,1.999c-1.103,0-1.999-0.897-1.999-1.999
				c0-1.107,0.897-2.004,1.999-2.004c0.232,0,0.463,0.043,0.682,0.12c0.463,0.172,0.85,0.506,1.086,0.944
				C36.886,50.873,36.968,51.195,36.968,51.525z"/>
		</g>
	</g>
	<path fill="#2D3E4F" d="M34.231,23.131c0.03-0.556-0.285-1.316-0.882-1.457c-0.302-0.071-0.576,0.055-0.723-0.272
		c-0.083-0.185,0.056-0.675,0.078-0.873c0.055-0.493,0.083-1.02,0.204-1.502c0.224-0.896,0.363-1.814,0.396-2.738
		c0.103-2.844-1.301-5.185-3.901-6.342c-0.296-0.132-0.595-0.253-0.896-0.364c-1.676-0.62-3.416-0.92-5.198-0.935
		c-0.385-0.004-0.771,0.006-1.16,0.03c-1.244,0.074-2.573,0.172-3.713,0.722c-0.113,0.055-0.221,0.116-0.326,0.182
		c-0.421,0.27-0.772,0.636-1.05,1.054c-0.283,0.424-0.377,0.664-0.792,0.997c-0.367,0.294-0.695,0.511-1.104,0.691
		c-0.362,0.161-0.686,0.416-0.882,0.766c-0.403,0.715-0.545,1.584-0.579,2.395c-0.042,1.016,0.003,2.033,0.074,3.046
		c0.025,0.36,0.094,0.72,0.166,1.078c0.111,0.549,0.228,1.098,0.207,1.653c-0.007,0.172-0.078,0.27-0.183,0.332
		c-0.033,0.008-0.069,0.014-0.107,0.018c-0.197,0.023-0.398,0.014-0.592,0.061c-0.597,0.141-0.912,0.901-0.882,1.458
		c0.002,0.035,0.004,0.071,0.006,0.107c-0.016,0.26-0.007,0.524,0.008,0.78c0.032,0.524,0.137,1.041,0.201,1.563
		c0.142,1.158,0.685,2.271,1.792,2.822c0.231,0.184,0.384,0.373,0.468,0.701c0.665,2.585,1.958,4.669,4.057,6.103
		c0.259,0.176,0.53,0.343,0.815,0.501c0.34,0.173,0.795,0.377,1.384,0.577c0.033,0.014,0.066,0.029,0.098,0.042
		c0.359,0.154,0.714,0.262,1.08,0.331c0.338,0.063,0.675,0.09,1.012,0.083c0.338,0.007,0.675-0.02,1.023-0.086
		c0.355-0.067,0.711-0.175,1.069-0.329c0.033-0.014,0.066-0.028,0.098-0.034c0.589-0.209,1.044-0.412,1.385-0.586
		c0.284-0.157,0.554-0.324,0.814-0.5c1.091-0.741,2.011-1.715,2.704-2.837c0.352-0.57,0.635-1.173,0.884-1.795
		c0.241-0.602,0.239-1.269,0.66-1.79c0.309-0.382,0.714-0.671,1.077-1.003c0.653-0.598,0.887-1.341,0.992-2.201
		c0.064-0.522,0.17-1.039,0.201-1.563c0.015-0.256,0.024-0.52,0.008-0.78C34.228,23.203,34.23,23.167,34.231,23.131z"/>
</g>
</svg>
