<?xml version="1.0" encoding="utf-8"?>
<!-- Generator: Adobe Illustrator 18.0.0, SVG Export Plug-In . SVG Version: 6.00 Build 0)  -->
<!DOCTYPE svg PUBLIC "-//W3C//DTD SVG 1.1//EN" "http://www.w3.org/Graphics/SVG/1.1/DTD/svg11.dtd">
<svg version="1.1" id="Layer_1" xmlns="http://www.w3.org/2000/svg" xmlns:xlink="http://www.w3.org/1999/xlink" x="0px" y="0px"
	 width="64px" height="64px" viewBox="0 0 64 64" enable-background="new 0 0 64 64" xml:space="preserve">
<g id="Bacteria">
	<g>
		<path fill="#2D3E4F" d="M21.837,58.629c0.979,0.108,1.883,0,2.704-0.297c0.818-0.3,1.542-0.79,2.174-1.423
			c0.555-0.563,1.109-1.126,1.664-1.689c3.885-3.935,7.763-7.879,11.526-11.931c1.481-1.597,2.773-3.478,3.711-5.441
			c1.023-2.141,0.596-4.357-1.204-6.09c-1.758-1.697-3.827-2.23-6.079-1.145c-0.286,0.136-0.571,0.283-0.854,0.438
			c-0.286,0.155-0.563,0.322-0.838,0.496c-3.553,2.579-6.603,5.353-9.216,8.872c-0.313,0.333-0.627,0.66-0.94,0.99
			c-0.946,0.979-1.886,1.964-2.815,2.959c-1.378,1.478-2.757,3.037-3.877,4.723c-0.372,0.563-0.721,1.137-1.051,1.722
			C13.617,54.65,18.332,58.255,21.837,58.629z M35.249,36.265c0.383-0.177,0.799-0.28,1.234-0.291
			c1.83-0.05,3.345,1.428,3.367,3.284c0.025,1.941-1.326,3.328-3.25,3.336c-1.417,0.008-2.582-0.793-3.076-1.986
			c-0.166-0.399-0.258-0.84-0.258-1.312C33.308,38.01,34.14,36.623,35.249,36.265z M19.217,50.401
			c0.388-0.71,0.907-1.467,1.567-1.889c2.435-1.559,4.956-2.987,7.444-4.46c0.119-0.072,0.25-0.128,0.38-0.166
			c1.95-0.557,2.929,0.202,2.998,2.271c-0.189,0.657-0.305,1.345-0.571,1.969c-1.778,4.124-6.024,6.323-10.358,5.397
			C18.831,53.133,18.296,52.071,19.217,50.401z"/>
		<path fill="#2D3E4F" d="M30.071,19.401c0.935,0.557,1.98,1.084,3.037,1.256c6.589,1.082,13.193,2.072,19.796,3.062
			c2.119,0.319,4.238,0.361,6.248-0.571c1.975-0.912,3.081-2.429,3.128-4.651c0.069-3.395-1.756-5.666-5.255-6.418
			c-1.844-0.397-3.708-0.727-5.574-1.001c-3.609-0.53-7.211-1.112-10.826-1.595c-3.217-0.43-6.274-0.947-9.427,0.128
			c-2.025,0.691-3.286,2.172-3.58,4.346C27.304,16.269,28.027,18.183,30.071,19.401z M53.34,14.348
			c1.792-0.031,3.359,1.564,3.322,3.378c-0.039,1.767-1.536,3.212-3.334,3.212c-1.753,0-3.264-1.528-3.256-3.292
			C50.081,15.89,51.581,14.378,53.34,14.348z M33.031,11.94c0.832-0.832,1.941-1.109,3.281-1.065
			c0.458,0.039,0.915,0.086,1.37,0.147c0.388,0.047,0.774,0.116,1.151,0.211c2.635,0.652,4.9,2.452,6.043,4.948
			c0.189,0.488,0.291,0.929,0.305,1.317c0.042,1.159-0.71,1.819-2.263,1.761c-0.649-0.025-1.306-0.108-1.955-0.244
			c-0.324-0.067-0.646-0.144-0.965-0.236c-1.265-0.508-2.59-1.037-3.922-1.631c-0.444-0.197-0.887-0.399-1.328-0.613
			C33.031,15.823,31.089,13.882,33.031,11.94z"/>
		<g>
			<g>
				<path fill="#2E79BE" d="M41.808,27.008c1.586,2.862,3.203,5.71,4.923,8.492c1.889,3.053,3.799,6.107,5.913,9.008
					c1.312,1.808,3.25,2.979,5.619,2.599c4.285-0.685,6.129-4.659,3.941-8.614c-2.274-4.11-4.74-8.115-7.144-12.153
					c-0.197-0.33-0.535-0.754-0.857-0.799c-1.489-0.208-2.995-0.297-4.448-0.424c-0.804,1.991-1.805,2.732-3.406,2.615
					c-1.875-0.136-2.46-0.796-3.195-3.639c-0.749-0.111-1.511-0.227-2.665-0.399C40.993,24.986,41.284,26.062,41.808,27.008z
					 M54.108,33.572c3.605-1.664,6.379,2.773,6.933,5.824c0.277,2.219,0,4.437-1.941,5.824c-1.387,1.109-3.051-0.555-3.051-1.941
					c0-1.664,0.277-3.051-0.277-4.715c-0.277-0.555-0.832-1.109-1.076-1.7c-0.144-0.33-0.269-0.638-0.374-0.924
					C54.108,35.236,53.276,33.85,54.108,33.572z"/>
			</g>
		</g>
		<g>
			<g>
				<path fill="#2E79BE" d="M22.185,16.059c-3.633-3.17-7.217-6.407-10.991-9.4C8.667,4.655,5.501,5.01,3.522,7.097
					c-2.016,2.122-2.05,4.806-0.048,7.533c0.515,0.703,1.116,1.349,1.735,1.963c1.734,1.716,3.665,3.265,5.207,5.135
					c1.91,2.311,3.845,2.905,6.407,1.165c0.554-0.377,0.957-0.561,1.027-1.372c0.212-2.401,2.952-3.75,4.833-2.275
					c1.043,0.815,1.737,0.705,2.8,0.023C24.352,18.162,23.319,17.051,22.185,16.059z M15.579,22.038
					c-0.582,0.457-1.252,0.34-1.866-0.993c0.092-4.307-3.739-5.929-6.226-8.882c-0.018-0.456,0.084-0.895,0.292-1.123
					c0.25-0.271,0.668-0.467,1.125-0.581s0.953-0.145,1.358-0.085c3.662,0.391,6.627,4.055,6.863,7.768
					C17.192,19.195,16.493,21.322,15.579,22.038z"/>
			</g>
		</g>
		<path fill="#2D3E4F" d="M2.402,48.019c1.617,1.683,3.567,2.305,5.794,1.462c1.015-0.385,2.077-0.876,2.87-1.597
			c3.757-3.415,7.504-6.848,11.058-10.476c2.756-2.813,7.296-6.033,7.251-10.386c-0.031-0.316-0.092-0.624-0.183-0.921
			c-0.275-0.896-0.826-1.703-1.683-2.41c-2.615-2.166-5.527-2.147-8.295,0.128c-1.456,1.198-2.873,2.449-4.249,3.741
			c-2.457,2.309-4.903,4.63-7.348,6.952c-2.493,2.368-5.2,4.658-6.394,8C0.505,44.527,0.882,46.438,2.402,48.019z M18.701,28.114
			c0.818-1.068,2.274-1.467,3.539-1.112c0.422,0.119,0.824,0.322,1.17,0.61c1.578,1.245,1.301,3.464,0.391,4.49
			c-0.269,0.349-0.599,0.638-0.965,0.854c-0.899,0.616-1.731,0.061-2.438,0.344c-0.41-0.111-0.801-0.302-1.145-0.577
			C17.883,31.625,17.63,29.512,18.701,28.114z M6.989,39.499c0.377-0.521,0.779-0.996,1.223-1.403
			c0.968-1.195,2.077-0.918,3.32-1.414c0.657-0.031,1.364,0.061,2.127,0.297c1.506,0.469,1.914,1.412,0.899,2.596
			c-0.635,0.743-1.434,1.392-2.26,1.911c-2.008,0.962-3.949,3.181-5.613,1.794C5.574,42.447,6.129,40.783,6.989,39.499z"/>
	</g>
</g>
</svg>
