<?xml version="1.0" encoding="utf-8"?>
<!-- Generator: Adobe Illustrator 18.0.0, SVG Export Plug-In . SVG Version: 6.00 Build 0)  -->
<!DOCTYPE svg PUBLIC "-//W3C//DTD SVG 1.1//EN" "http://www.w3.org/Graphics/SVG/1.1/DTD/svg11.dtd">
<svg version="1.1" id="Layer_1" xmlns="http://www.w3.org/2000/svg" xmlns:xlink="http://www.w3.org/1999/xlink" x="0px" y="0px"
	 width="64px" height="64px" viewBox="0 0 64 64" enable-background="new 0 0 64 64" xml:space="preserve">
<g>
	<path fill="#2D3E4F" d="M14.803,40.35c-4.455,0-8.13-2.177-10.935-6.48c-1.352-2.074-2.201-4.54-2.673-7.761
		c-0.141-0.962-0.217-1.927-0.291-2.86c-0.032-0.407-0.065-0.827-0.103-1.235l-0.008-0.085l0.003-0.085
		c0.093-2.805,0.338-6.05,2.086-9.05c2.982-5.119,7.481-7.592,13.373-7.354c2.341,0.095,4.242,0.635,5.811,1.65
		c2.94,1.902,4.471,4.807,4.549,8.636c0.027,1.332-0.22,2.577-0.735,3.699c-0.311,0.678-1.113,0.975-1.792,0.664
		s-0.975-1.113-0.664-1.792c0.348-0.759,0.509-1.582,0.489-2.516c-0.06-2.918-1.144-5.019-3.315-6.423
		c-1.168-0.756-2.583-1.143-4.453-1.219c-4.881-0.199-8.456,1.769-10.929,6.014c-1.275,2.189-1.612,4.662-1.717,7.695
		c0.036,0.398,0.068,0.798,0.099,1.186c0.074,0.93,0.143,1.808,0.271,2.682C4.281,28.538,5,30.66,6.131,32.394
		c2.3,3.529,5.146,5.253,8.68,5.253c0.232,0,0.467-0.007,0.706-0.022c2.024-0.126,3.565-0.857,4.711-2.233
		c1.403-1.685,2.079-4.257-0.23-6.421c-0.544-0.51-0.572-1.365-0.062-1.909c0.51-0.545,1.365-0.572,1.91-0.062
		c1.546,1.448,2.361,3.237,2.359,5.173c-0.002,1.722-0.677,3.479-1.9,4.948c-1.625,1.952-3.852,3.029-6.619,3.202
		C15.388,40.341,15.093,40.35,14.803,40.35z"/>
	<path fill="#2E79BE" d="M27.404,25.338c-2.132-2.648-5.291-4.032-7.826-4.939c-0.289-0.706-0.689-1.332-1.107-1.931
		c0.554-0.447,0.911-1.054,1.17-1.497l1.175-2.006c0.251-0.429,0.107-0.981-0.322-1.232c-0.429-0.251-0.981-0.107-1.232,0.322
		l-1.175,2.006c-0.21,0.359-0.42,0.699-0.652,0.923c-0.392-0.604-0.709-1.217-0.845-1.894c-0.098-0.487-0.573-0.804-1.061-0.705
		c-0.487,0.098-0.804,0.573-0.706,1.061c0.286,1.415,1.064,2.503,1.816,3.554c0.492,0.688,0.963,1.344,1.259,2.05
		c0.061,0.142,0.113,0.287,0.158,0.433c0.111,0.366,0.163,0.724,0.156,1.077c-0.01,0.57-0.173,1.128-0.49,1.689
		c-0.466,0.825-1.218,1.565-2.095,2.191l-3.454-1.597l-1.185-0.338c-0.478-0.136-0.977,0.141-1.113,0.619s0.141,0.977,0.619,1.113
		l1.05,0.299l2.181,1.008c-0.755,0.356-1.518,0.629-2.213,0.805c-0.483,0.123-0.775,0.612-0.652,1.094
		c0.102,0.409,0.469,0.68,0.871,0.68c0.073,0,0.149-0.009,0.222-0.028c1.279-0.323,2.712-0.912,4.009-1.719
		c0.002-0.001,0.003-0.002,0.005-0.003c0.205-0.047,0.392-0.165,0.522-0.34c0.001-0.001,0.003-0.002,0.004-0.003
		c1.157-0.798,2.165-1.777,2.797-2.894c0.338-0.597,0.557-1.207,0.659-1.825c1.927,0.78,4.021,1.894,5.437,3.652
		c2.585,3.209,2.41,7.841,1.809,11.164c-0.288,1.596-0.708,3.222-1.115,4.794c-0.651,2.523-1.325,5.133-1.528,7.829
		c-0.172,2.285-0.005,4.579,0.498,6.816c0.135,0.602,0.67,1.011,1.262,1.011c0.095,0,0.189-0.01,0.285-0.032
		c0.698-0.158,1.136-0.85,0.979-1.547c-0.446-1.987-0.594-4.024-0.442-6.055c0.186-2.466,0.802-4.851,1.453-7.375
		c0.418-1.618,0.85-3.29,1.155-4.981C30.442,34.734,30.602,29.308,27.404,25.338z"/>
	<path fill="#2D3E4F" d="M49.197,40.35c4.455,0,8.13-2.177,10.935-6.48c1.352-2.074,2.201-4.54,2.673-7.761
		c0.141-0.962,0.217-1.927,0.291-2.86c0.032-0.407,0.065-0.827,0.103-1.235l0.008-0.085l-0.003-0.085
		c-0.093-2.805-0.338-6.05-2.086-9.05c-2.982-5.119-7.481-7.592-13.373-7.354c-2.341,0.095-4.242,0.635-5.811,1.65
		c-2.94,1.902-4.471,4.807-4.549,8.636c-0.027,1.332,0.22,2.577,0.735,3.699c0.311,0.678,1.113,0.975,1.792,0.664
		s0.975-1.113,0.664-1.792c-0.348-0.759-0.509-1.582-0.489-2.516c0.06-2.918,1.144-5.019,3.315-6.423
		c1.168-0.756,2.583-1.143,4.453-1.219c4.881-0.199,8.456,1.769,10.929,6.014c1.275,2.189,1.612,4.662,1.717,7.695
		c-0.036,0.398-0.068,0.798-0.099,1.186c-0.074,0.93-0.143,1.808-0.271,2.682c-0.413,2.821-1.133,4.942-2.263,6.677
		c-2.3,3.529-5.146,5.253-8.68,5.253c-0.232,0-0.467-0.007-0.706-0.022c-2.024-0.126-3.565-0.857-4.711-2.233
		c-1.403-1.685-2.079-4.257,0.23-6.421c0.544-0.51,0.572-1.365,0.062-1.909c-0.51-0.545-1.365-0.572-1.91-0.062
		c-1.546,1.448-2.361,3.237-2.359,5.173c0.002,1.722,0.677,3.479,1.9,4.948c1.625,1.952,3.852,3.029,6.619,3.202
		C48.612,40.341,48.907,40.35,49.197,40.35z"/>
	<path fill="#2E79BE" d="M36.596,25.338c2.132-2.648,5.291-4.032,7.826-4.939c0.289-0.706,0.689-1.332,1.107-1.931
		c-0.554-0.447-0.911-1.054-1.17-1.497l-1.175-2.006c-0.251-0.429-0.107-0.981,0.322-1.232c0.429-0.251,0.981-0.107,1.232,0.322
		l1.175,2.006c0.21,0.359,0.42,0.699,0.652,0.923c0.392-0.604,0.709-1.217,0.845-1.894c0.098-0.487,0.573-0.804,1.061-0.705
		c0.487,0.098,0.804,0.573,0.706,1.061c-0.286,1.415-1.064,2.503-1.816,3.554c-0.492,0.688-0.963,1.344-1.259,2.05
		c-0.061,0.142-0.113,0.287-0.158,0.433c-0.111,0.366-0.163,0.724-0.156,1.077c0.01,0.57,0.173,1.128,0.49,1.689
		c0.466,0.825,1.218,1.565,2.095,2.191l3.454-1.597l1.185-0.338c0.478-0.136,0.977,0.141,1.113,0.619s-0.141,0.977-0.619,1.113
		l-1.05,0.299l-2.181,1.008c0.755,0.356,1.518,0.629,2.213,0.805c0.483,0.123,0.775,0.612,0.652,1.094
		c-0.102,0.409-0.469,0.68-0.871,0.68c-0.073,0-0.149-0.009-0.222-0.028c-1.279-0.323-2.712-0.912-4.009-1.719
		c-0.002-0.001-0.003-0.002-0.005-0.003c-0.205-0.047-0.392-0.165-0.522-0.34c-0.001-0.001-0.003-0.002-0.004-0.003
		c-1.157-0.798-2.165-1.777-2.797-2.894c-0.338-0.597-0.557-1.207-0.659-1.825c-1.927,0.78-4.021,1.894-5.437,3.652
		c-2.585,3.209-2.41,7.841-1.809,11.164c0.288,1.596,0.708,3.222,1.115,4.794c0.651,2.523,1.325,5.133,1.528,7.829
		c0.172,2.285,0.005,4.579-0.498,6.816c-0.135,0.602-0.67,1.011-1.262,1.011c-0.095,0-0.189-0.01-0.285-0.032
		c-0.698-0.158-1.136-0.85-0.979-1.547c0.446-1.987,0.594-4.024,0.442-6.055c-0.186-2.466-0.802-4.851-1.453-7.375
		c-0.418-1.618-0.85-3.29-1.155-4.981C33.558,34.734,33.398,29.308,36.596,25.338z"/>
</g>
</svg>
