<?xml version="1.0" encoding="utf-8"?>
<!-- Generator: Adobe Illustrator 18.0.0, SVG Export Plug-In . SVG Version: 6.00 Build 0)  -->
<!DOCTYPE svg PUBLIC "-//W3C//DTD SVG 1.1//EN" "http://www.w3.org/Graphics/SVG/1.1/DTD/svg11.dtd">
<svg version="1.1" id="Layer_1" xmlns="http://www.w3.org/2000/svg" xmlns:xlink="http://www.w3.org/1999/xlink" x="0px" y="0px"
	 width="64px" height="64px" viewBox="0 0 64 64" enable-background="new 0 0 64 64" xml:space="preserve">
<path fill="#2E79BE" d="M62.726,25.434c-0.066-0.227-0.132-0.444-0.199-0.658l-0.086-0.275c-0.162-0.531-0.271-1.071-0.346-1.71
	c-0.057-0.498-0.088-0.98-0.125-1.605c-0.064-1.098-0.125-2.124-0.427-3.226c-0.765-2.782-2.65-4.904-5.601-6.308l-0.424-0.201
	l-0.252-0.396c-1.416-2.223-3.594-3.62-6.475-4.152c-0.557-0.104-1.108-0.142-1.64-0.179L46.789,6.7l-0.246-0.102
	C44.131,5.6,41.52,4.922,38.756,4.203c-0.873-0.227-1.746-0.454-2.615-0.691C32.668,2.565,29.94,2.244,27.27,2.47
	c-2.765,0.236-5.025,0.959-6.91,2.21c-0.827,0.548-1.775,0.938-2.819,1.16c-0.484,0.102-0.958,0.182-1.402,0.254l-0.082,0.013
	c-0.338,0.055-0.657,0.108-0.955,0.176c-4.461,1.032-7.102,3.097-8.561,6.697c-0.546,1.353-1.47,2.124-2.285,2.805
	c-0.264,0.22-0.513,0.428-0.743,0.65c-2.303,2.217-3.307,6.011-2.388,9.022c0.366,1.2,0.985,1.815,1.923,2.746
	c0.247,0.245,0.502,0.499,0.764,0.774c0.547,0.575,0.954,1.234,1.313,1.815c0.449,0.726,0.837,1.353,1.356,1.651
	c0.338,0.194,0.783,0.288,1.361,0.288c0.777,0,1.661-0.165,2.596-0.339c1.076-0.2,2.2-0.407,3.271-0.378
	c1.431,0.039,3.718,2.035,3.738,2.056c0.731,0.707,1.116,1.538,1.455,2.271c0.206,0.446,0.401,0.867,0.639,1.173
	c0.695,0.89,2.205,1.509,4.142,1.698c1.23,0.12,2.473,0.042,3.605-0.226c0.087-0.031,0.343-0.132,0.828-0.344
	c0.653-0.286,1.374-0.431,2.144-0.431c4.123,0,8.736,4.069,8.814,7.774l0.009,0.368c0.013,0.508,0.031,1.017,0.049,1.528
	c0.058,1.635,0.118,10.862,0.013,13.718h11.318l0.177-9.909c0.028-0.227,0.048-0.445,0.065-0.641l0.004-0.043
	c0.037-0.396,0.071-0.771,0.146-1.125c0.468-2.196,1.563-6.124,3.648-7.82c0.289-0.237,0.684-0.459,1.107-0.619
	c3.582-1.359,5.515-3.898,5.59-7.344l0.01-0.454l0.244-0.384c0.431-0.679,0.764-1.438,0.964-2.195l0.048-0.182l0.089-0.167
	c0.071-0.133,0.138-0.273,0.198-0.415C63.529,28.493,63.183,26.968,62.726,25.434z M9.995,25.111
	c-0.094,0.281-0.402,0.441-0.687,0.352L8.69,25.268c-0.174-0.055-0.343-0.12-0.492-0.178c-0.079-0.03-0.141-0.055-0.205-0.078
	c-0.139-0.062-0.269-0.121-0.395-0.181c0.157,0.443,0.295,0.932,0.409,1.446l0.15,0.678c0.036,0.165-0.002,0.333-0.105,0.462
	c-0.105,0.13-0.267,0.208-0.435,0.208c-0.193,0-0.369-0.101-0.469-0.269l-0.355-0.597c-0.106-0.179-0.202-0.365-0.279-0.514
	c-0.042-0.081-0.078-0.151-0.115-0.221c-0.128-0.249-0.25-0.492-0.366-0.737L6.02,25.258c-0.097-0.244-0.205-0.524-0.304-0.811
	l-0.024-0.091L5.643,24.1c-0.039-0.198-0.076-0.388-0.106-0.58L5.46,23.028c-0.025-0.159,0.021-0.32,0.125-0.442
	c0.147-0.172,0.396-0.238,0.609-0.158l0.458,0.17c0.067,0.025,0.136,0.049,0.204,0.074c0.162,0.058,0.346,0.123,0.522,0.2
	l0.12,0.064c0.205,0.116,0.399,0.226,0.585,0.343c0.179,0.117,0.347,0.234,0.513,0.352l0.093,0.065
	c0.058,0.04,0.12,0.081,0.182,0.123c0.139,0.093,0.279,0.187,0.416,0.29l0.516,0.39C9.996,24.643,10.071,24.884,9.995,25.111z
	 M19.132,23.614l-0.163,0.144c-0.103,0.091-0.21,0.184-0.324,0.274l-0.116,0.08c-0.151,0.102-0.321,0.218-0.519,0.317
	c-0.084,0.043-0.167,0.082-0.249,0.119c0.035,0.061,0.071,0.127,0.106,0.194l0.082,0.156c0.203,0.46,0.328,0.837,0.395,1.188
	c0.073,0.326,0.113,0.69,0.114,1.042c0.001,0.345-0.042,0.624-0.078,0.797c-0.056,0.219-0.089,0.317-0.089,0.317l-0.282,0.852
	c-0.076,0.229-0.281,0.377-0.521,0.377h0c-0.276,0-0.505-0.198-0.545-0.47l-0.166-1.124c-0.02-0.122-0.062-0.319-0.114-0.534
	c-0.052-0.198-0.127-0.469-0.223-0.749c-0.098-0.291-0.207-0.565-0.325-0.816l-0.05-0.101c-0.05-0.103-0.085-0.175-0.121-0.229
	l-0.024-0.039c-0.075-0.123-0.128-0.211-0.181-0.274l-0.017-0.023c-0.044-0.061-0.078-0.097-0.126-0.146l-0.066-0.07
	c-0.03-0.021-0.059-0.045-0.091-0.072c-0.194-0.034-0.41-0.091-0.606-0.163c-0.019-0.007-0.038-0.014-0.056-0.022l-3.059-0.39
	l1.532-0.549c-0.254-0.221-0.499-0.471-0.731-0.745c-0.457-0.534-0.856-1.153-1.218-1.891c-0.555-1.139-0.71-1.981-0.726-2.073
	l-0.163-0.95c-0.028-0.161,0.016-0.323,0.119-0.446c0.106-0.126,0.261-0.197,0.426-0.197c0.181,0,0.345,0.087,0.45,0.238
	l0.548,0.794c0.115,0.165,0.53,0.753,1.127,1.522c0.166,0.206,0.356,0.438,0.56,0.674c0.209,0.243,0.445,0.48,0.649,0.683
	c0.207,0.211,0.462,0.402,0.709,0.587c0.231,0.159,0.47,0.286,0.705,0.374c0.405,0.149,0.86,0.136,1.293-0.04
	c0.066-0.024,0.105-0.046,0.143-0.066c0.093-0.05,0.171-0.091,0.249-0.125c0.028-0.018,0.066-0.042,0.107-0.068l0.047-0.03
	l0.312-0.217c0.18-0.134,0.322-0.241,0.438-0.35c0.203-0.175,0.38-0.339,0.552-0.512c0.151-0.145,0.3-0.289,0.405-0.405
	c0.268-0.279,0.422-0.425,0.422-0.425l0.694-0.661c0.239-0.227,0.652-0.179,0.836,0.09c0.103,0.151,0.123,0.336,0.056,0.508
	l-0.349,0.893l-0.001,0c-0.03,0.085-0.093,0.234-0.23,0.536c-0.1,0.231-0.211,0.444-0.336,0.645
	c-0.15,0.273-0.313,0.522-0.489,0.747C19.691,23.025,19.462,23.288,19.132,23.614z M30.867,28.05l-0.35,0.894
	c0,0-0.077,0.196-0.231,0.536c-0.099,0.231-0.211,0.444-0.337,0.645c-0.093,0.17-0.256,0.451-0.488,0.745
	c-0.159,0.235-0.389,0.498-0.72,0.826l-0.164,0.144c-0.107,0.094-0.212,0.186-0.325,0.275l-0.112,0.077
	c-0.152,0.104-0.324,0.219-0.522,0.319c-0.084,0.042-0.167,0.082-0.249,0.118c0.039,0.068,0.078,0.141,0.117,0.215l0.071,0.135
	c0.202,0.459,0.328,0.836,0.395,1.187c0.073,0.329,0.113,0.694,0.114,1.044c0.002,0.343-0.042,0.623-0.078,0.796
	c-0.056,0.219-0.089,0.317-0.089,0.317l-0.281,0.852c-0.076,0.23-0.28,0.378-0.521,0.378c-0.276,0-0.505-0.197-0.545-0.47
	l-0.166-1.126c-0.023-0.132-0.065-0.329-0.114-0.532c-0.047-0.18-0.124-0.463-0.222-0.75c-0.097-0.289-0.206-0.563-0.326-0.818
	l-0.049-0.098c-0.046-0.097-0.083-0.173-0.12-0.229l-0.027-0.043c-0.074-0.123-0.128-0.211-0.178-0.271l-0.018-0.024
	c-0.045-0.063-0.079-0.098-0.127-0.147l-0.065-0.069c-0.028-0.02-0.056-0.042-0.085-0.067c-0.218-0.044-0.423-0.101-0.611-0.167
	l-0.055-0.023l-3.061-0.389l1.53-0.549c-0.254-0.221-0.499-0.471-0.732-0.746c-0.458-0.534-0.857-1.153-1.218-1.89
	c-0.553-1.137-0.71-1.979-0.726-2.071l-0.163-0.951c-0.027-0.161,0.016-0.323,0.119-0.446c0.106-0.126,0.261-0.197,0.426-0.197
	c0.181,0,0.345,0.087,0.45,0.238l0.547,0.793c0.081,0.117,0.508,0.726,1.127,1.522c0.167,0.207,0.357,0.438,0.56,0.675
	c0.202,0.235,0.431,0.467,0.649,0.683c0.209,0.212,0.465,0.404,0.713,0.589c0.228,0.158,0.467,0.285,0.702,0.372
	c0.406,0.149,0.86,0.136,1.293-0.04c0.067-0.025,0.11-0.049,0.152-0.072c0.091-0.048,0.166-0.087,0.241-0.119
	c0.032-0.021,0.075-0.048,0.12-0.078l0.043-0.027l0.295-0.205c0.182-0.136,0.326-0.243,0.445-0.355
	c0.201-0.173,0.377-0.336,0.552-0.512c0.151-0.144,0.3-0.288,0.404-0.404c0.269-0.28,0.423-0.426,0.423-0.426l0.694-0.662
	c0.239-0.228,0.653-0.179,0.836,0.09C30.914,27.692,30.934,27.877,30.867,28.05z M32.631,27.793l-0.008,0.028l-0.128,0.362
	c-0.077,0.219-0.286,0.367-0.519,0.367c-0.028,0-0.057-0.002-0.086-0.007l-0.283-0.045c-0.257-0.041-0.451-0.259-0.463-0.518
	l-0.016-0.35c-0.012-0.109-0.053-0.281-0.129-0.534c-0.079-0.261-0.203-0.588-0.366-0.968c-0.052-0.128-0.109-0.247-0.167-0.369
	c-0.042-0.087-0.076-0.16-0.111-0.235l-0.143-0.267c-0.065-0.119-0.115-0.187-0.139-0.217l-0.016-0.021
	c-0.228-0.331-0.575-0.674-1.025-1.089c-0.229-0.213-0.5-0.47-0.784-0.762c-0.043,0.393-0.076,0.608-0.076,0.61l-0.118,0.781
	c-0.041,0.271-0.27,0.468-0.544,0.468c-0.28,0-0.509-0.201-0.545-0.478l-0.227-1.73c-0.061-0.494-0.143-1.167-0.273-1.938
	c-0.022-0.11-0.049-0.242-0.077-0.375c-0.017-0.04-0.032-0.076-0.046-0.111l-0.105-0.255c-0.25-0.605-0.509-1.231-0.672-1.926
	c-0.018-0.074-0.036-0.154-0.052-0.236c-0.157-0.274-0.355-0.554-0.605-0.856c-0.119-0.151-0.249-0.277-0.388-0.411l-0.107-0.104
	c-0.037-0.035-0.092-0.078-0.148-0.122c-0.058-0.046-0.103-0.082-0.146-0.118l-0.134-0.108l-0.114-0.072
	c-0.347-0.25-0.742-0.428-1.265-0.574c-0.425-0.125-0.898-0.209-1.45-0.257c-0.626-0.032-1.089-0.034-1.405-0.007
	c-0.416,0.027-0.841,0.081-1.307,0.164c-0.39,0.081-0.747,0.172-1.052,0.269l-0.093,0.034c-0.266,0.094-0.494,0.176-0.651,0.256
	c-0.189,0.084-0.338,0.161-0.489,0.254l-0.939,0.543c-0.086,0.05-0.182,0.076-0.277,0.076c-0.222,0-0.421-0.135-0.508-0.345
	c-0.086-0.208-0.039-0.436,0.122-0.597l0.804-0.801c0.1-0.102,0.254-0.258,0.482-0.42c0.207-0.169,0.493-0.354,0.873-0.565
	c0.41-0.219,0.827-0.402,1.245-0.544c0.398-0.133,0.932-0.298,1.542-0.391c0.503-0.094,1.065-0.143,1.66-0.143l0.096,0
	c0.663,0.025,1.301,0.063,1.96,0.249c0.768,0.199,1.409,0.477,1.951,0.849l0.048,0.032c0.056,0.037,0.11,0.072,0.198,0.139
	l0.193,0.161c0.04,0.034,0.072,0.061,0.104,0.087c0.075,0.062,0.142,0.118,0.21,0.179c0.119-0.235,0.265-0.426,0.392-0.586
	c0.12-0.172,0.28-0.338,0.432-0.491c0.143-0.156,0.308-0.299,0.441-0.414c0.202-0.187,0.416-0.347,0.622-0.503
	c0.079-0.06,0.144-0.109,0.207-0.158c0.132-0.099,0.251-0.191,0.361-0.281l0.311-0.245l0.126-0.117l0.106-0.128
	c0.011-0.016,0.024-0.037,0.035-0.054c0.029-0.046,0.059-0.092,0.09-0.135c0.074-0.138,0.159-0.312,0.202-0.478
	c0.131-0.421,0.179-0.828,0.225-1.279l0.093-1.129c0.055-0.637,0.131-1.021,0.145-1.091l0.115-0.54l0.743,0.018
	c0.262,0.006,0.484,0.198,0.529,0.456l0.186,1.082c0.063,0.35,0.129,0.74,0.175,1.201c0.045,0.443,0.083,1.044-0.03,1.754
	c-0.049,0.326-0.156,0.681-0.326,1.084l-0.023,0.049c-0.028,0.051-0.045,0.084-0.062,0.117c-0.071,0.135-0.153,0.292-0.289,0.459
	l-0.236,0.293l-0.396,0.388l-0.189,0.161c-0.126,0.106-0.25,0.199-0.374,0.292l-0.848,0.631c-0.103,0.077-0.221,0.165-0.308,0.248
	l-0.019,0.017c-0.095,0.083-0.194,0.169-0.251,0.241l-0.018,0.021c-0.055,0.06-0.158,0.172-0.193,0.234l-0.017,0.028l-0.135,0.219
	c-0.017,0.041-0.035,0.085-0.054,0.124c-0.079,0.175-0.143,0.381-0.19,0.607c0.08,0.161,0.149,0.314,0.21,0.464
	c0.223,0.525,0.39,1.115,0.495,1.747c0.105,0.542,0.134,1.077,0.153,1.48c0.146,0.161,0.318,0.318,0.522,0.474
	c0.239,0.19,0.492,0.362,0.737,0.528c0.292,0.199,0.589,0.4,0.87,0.632c0.579,0.465,1.054,0.996,1.408,1.575
	c0.106,0.166,0.178,0.325,0.24,0.471l0.163,0.407c0.106,0.29,0.174,0.557,0.23,0.785c0.114,0.447,0.179,0.892,0.193,1.319
	C32.737,27.163,32.703,27.53,32.631,27.793z M45.094,30.53l-0.35,0.893c0,0-0.076,0.196-0.229,0.535
	c-0.065,0.148-0.173,0.382-0.337,0.646c-0.147,0.268-0.309,0.518-0.488,0.745c-0.163,0.239-0.386,0.494-0.721,0.826l-0.162,0.143
	c-0.104,0.092-0.212,0.185-0.326,0.275l-0.115,0.08c-0.175,0.119-0.335,0.225-0.52,0.318c-0.084,0.043-0.167,0.082-0.248,0.118
	c0.04,0.07,0.08,0.143,0.118,0.215l0.071,0.135c0.205,0.47,0.327,0.836,0.394,1.186c0.073,0.328,0.113,0.692,0.114,1.042
	c0.001,0.268-0.025,0.533-0.076,0.788l-0.008,0.033c-0.052,0.198-0.083,0.293-0.083,0.293l-0.283,0.853
	c-0.076,0.229-0.28,0.377-0.521,0.377c-0.276,0-0.505-0.198-0.545-0.47l-0.164-1.125c-0.023-0.129-0.065-0.327-0.115-0.532
	c-0.046-0.178-0.123-0.458-0.223-0.751c-0.097-0.289-0.206-0.563-0.326-0.816l-0.066-0.135c-0.036-0.076-0.068-0.141-0.099-0.186
	l-0.014-0.022c-0.084-0.14-0.139-0.232-0.194-0.298l-0.018-0.023c-0.043-0.06-0.076-0.095-0.122-0.142l-0.071-0.075
	c-0.028-0.02-0.056-0.042-0.085-0.067c-0.22-0.044-0.426-0.1-0.611-0.167l-0.042-0.017l-3.069-0.397l1.526-0.546
	c-0.254-0.221-0.499-0.47-0.731-0.746c-0.459-0.536-0.857-1.155-1.217-1.891c-0.536-1.1-0.698-1.916-0.725-2.069l-0.164-0.954
	c-0.028-0.161,0.016-0.324,0.119-0.446c0.106-0.126,0.261-0.198,0.426-0.198c0.181,0,0.345,0.087,0.45,0.238l0.549,0.794
	c0.005,0.007,0.455,0.658,1.127,1.522c0.166,0.207,0.357,0.439,0.56,0.675c0.207,0.24,0.444,0.478,0.649,0.682
	c0.203,0.207,0.454,0.396,0.696,0.578c0.238,0.164,0.482,0.295,0.718,0.384c0.405,0.148,0.861,0.136,1.294-0.04
	c0.062-0.023,0.101-0.045,0.139-0.065c0.096-0.052,0.175-0.092,0.252-0.126l0.163-0.104l0.307-0.214
	c0.155-0.115,0.309-0.229,0.434-0.347c0.203-0.175,0.38-0.339,0.552-0.512c0.142-0.136,0.297-0.286,0.404-0.405
	c0.269-0.279,0.423-0.426,0.423-0.426l0.694-0.661c0.239-0.228,0.653-0.178,0.836,0.09C45.142,30.172,45.162,30.357,45.094,30.53z
	 M51.79,34.012v0.038c-0.001,0.09-0.004,0.2-0.027,0.33l-0.072,0.349c-0.05,0.279-0.144,0.528-0.238,0.754
	c-0.073,0.208-0.186,0.419-0.294,0.616c-0.093,0.186-0.215,0.374-0.321,0.535c-0.144,0.237-0.318,0.467-0.471,0.67l-0.153,0.205
	c-0.1,0.131-0.188,0.249-0.266,0.362l-0.317,0.462l-0.059,0.152c-0.016,0.058-0.034,0.117-0.055,0.172
	c-0.021,0.111-0.049,0.275-0.046,0.418c-0.011,0.465,0.07,0.919,0.129,1.251l0.221,1.109c0.107,0.553,0.148,0.935,0.161,1.091
	l0.003,0.036l0.02,0.295c0.018,0.263-0.154,0.502-0.41,0.569l-0.674,0.176c-0.045,0.012-0.092,0.018-0.139,0.018
	c-0.21,0-0.404-0.122-0.495-0.311l-0.565-1.174c-0.161-0.329-0.335-0.695-0.504-1.125c-0.17-0.424-0.378-1.009-0.468-1.755
	c-0.045-0.346-0.039-0.737,0.017-1.192l0.005-0.029l0.037-0.181c0.03-0.143,0.071-0.336,0.164-0.559l0.115-0.281
	c0.011-0.025,0.022-0.049,0.036-0.072l0.436-0.733c0.089-0.13,0.177-0.247,0.266-0.363l0.662-0.865
	c0.077-0.1,0.157-0.205,0.211-0.297c0.076-0.116,0.143-0.218,0.175-0.295l0.017-0.037c0.027-0.055,0.09-0.184,0.102-0.227
	l0.008-0.028l0.066-0.203c0.005-0.08,0.013-0.129,0.021-0.174c0.064-0.444,0.003-0.969-0.179-1.505
	c-0.199-0.563-0.502-1.105-0.875-1.563c-0.181-0.238-0.352-0.408-0.563-0.563c-0.184-0.127-0.41-0.245-0.685-0.354
	c-0.267-0.111-0.537-0.202-0.838-0.301c-0.339-0.112-0.687-0.228-1.03-0.377c-0.712-0.3-1.338-0.696-1.856-1.175
	c-0.161-0.142-0.286-0.289-0.386-0.414l-0.271-0.351c-0.19-0.262-0.334-0.51-0.454-0.722c-0.24-0.411-0.432-0.837-0.568-1.262
	c-0.117-0.352-0.189-0.742-0.192-1.039l0.001-0.034l0.037-0.601c0.017-0.265,0.22-0.481,0.483-0.512l0.755-0.087
	c0.237,0,0.447,0.151,0.522,0.376l0.175,0.524c0.029,0.071,0.112,0.216,0.244,0.424c0.137,0.213,0.339,0.485,0.601,0.807
	c0.084,0.107,0.166,0.201,0.253,0.298l0.381,0.413c0.053,0.053,0.11,0.105,0.152,0.134l0.021,0.016
	c0.304,0.25,0.72,0.48,1.252,0.748c0.5,0.255,1.157,0.604,1.823,1.05c0.292,0.188,0.563,0.413,0.824,0.632l0.107,0.09
	c0.406,0.387,0.674,0.68,0.887,0.965l0.165,0.208c0.413,0.521,0.84,1.059,1.199,1.704C51.61,32.189,51.851,33.12,51.79,34.012z
	 M45.693,23.272l0.15,0.678c0.036,0.165-0.002,0.333-0.105,0.462c-0.105,0.13-0.267,0.208-0.435,0.208
	c-0.193,0-0.369-0.101-0.469-0.269l-0.355-0.597c-0.106-0.179-0.202-0.365-0.278-0.514c-0.042-0.081-0.078-0.151-0.115-0.221
	c-0.128-0.249-0.25-0.492-0.366-0.737l-0.012-0.028c-0.097-0.244-0.205-0.524-0.304-0.811l-0.024-0.091l-0.049-0.257
	c-0.039-0.198-0.076-0.388-0.106-0.58l-0.077-0.492c-0.025-0.159,0.021-0.32,0.125-0.442c0.148-0.172,0.396-0.238,0.609-0.158
	l0.458,0.17c0.067,0.025,0.136,0.049,0.204,0.074c0.162,0.058,0.346,0.123,0.522,0.2l0.12,0.064
	c0.205,0.116,0.399,0.226,0.585,0.343c0.179,0.117,0.347,0.234,0.513,0.352l0.093,0.065c0.058,0.04,0.12,0.081,0.182,0.123
	c0.139,0.093,0.279,0.187,0.416,0.29l0.516,0.39c0.192,0.145,0.267,0.385,0.191,0.612c-0.094,0.281-0.402,0.441-0.687,0.352
	l-0.617-0.194c-0.174-0.055-0.343-0.12-0.492-0.178c-0.079-0.03-0.141-0.055-0.205-0.078c-0.139-0.062-0.269-0.121-0.395-0.181
	C45.441,22.269,45.58,22.758,45.693,23.272z M53.642,23.931l-0.229-1.752c-0.06-0.488-0.142-1.157-0.271-1.915
	c-0.08-0.407-0.164-0.838-0.291-1.279c-0.115-0.424-0.28-0.861-0.493-1.305c-0.171-0.372-0.416-0.744-0.774-1.176
	c-0.118-0.15-0.242-0.27-0.386-0.409l-0.109-0.106c-0.038-0.035-0.094-0.079-0.15-0.123l-0.025-0.02
	c-0.041-0.032-0.081-0.064-0.12-0.097l-0.133-0.107l-0.114-0.072c-0.347-0.25-0.742-0.428-1.265-0.574
	c-0.426-0.125-0.899-0.209-1.45-0.258c-0.637-0.032-1.088-0.035-1.405-0.007c-0.142,0.009-0.272,0.021-0.398,0.035
	c-0.093,0.079-0.184,0.143-0.266,0.201c-0.053,0.038-0.09,0.063-0.126,0.09l-0.081,0.053c-0.435,0.239-0.903,0.405-1.391,0.493
	c-0.391,0.077-0.692,0.103-1.041,0.134l-1.436,0.107c-0.304,0.023-0.601,0.048-0.898,0.08c-0.294,0.029-0.599,0.076-0.989,0.152
	l-0.13,0.032c-0.268,0.064-0.52,0.124-0.736,0.21c-0.286,0.109-0.538,0.239-0.678,0.35c-0.345,0.273-0.486,0.631-0.649,1.108
	c-0.02,0.058-0.047,0.132-0.079,0.218c-0.043,0.118-0.095,0.259-0.146,0.409c-0.183,0.543-0.605,1.001-1.189,1.288
	c-0.028,0.014-0.053,0.03-0.072,0.047c-0.194,0.17-0.225,0.482-0.171,0.716c0.076,0.329,0.303,0.628,0.492,0.853
	c0.164,0.194,0.141,0.36,0.092,0.464l-0.099,0.213l-0.248,0.006c-0.331,0-1.157-0.704-1.55-1.321c-0.175-0.276-0.4-0.696-0.331-1.17
	c0.066-0.453,0.366-0.823,0.917-1.13c0.129-0.072,0.227-0.117,0.304-0.152c0.021-0.01,0.039-0.017,0.055-0.025
	c0.015-0.06,0.033-0.171,0.041-0.218c0.026-0.16,0.047-0.319,0.068-0.477c0.091-0.699,0.185-1.421,0.722-2.068
	c0.129-0.155,0.222-0.267,0.437-0.443c0.414-0.364,0.841-0.576,1.208-0.746c0.84-0.375,1.678-0.522,2.458-0.624
	c0.619-0.087,1.23-0.118,1.82-0.149c0.154-0.008,0.307-0.016,0.459-0.025c0.436-0.027,0.766-0.059,0.978-0.096
	c0.091-0.011,0.158-0.023,0.221-0.036c0.215-0.095,0.424-0.176,0.638-0.249c0.001-0.001,0.003-0.002,0.005-0.003l0.14-0.143
	l0.133-0.193c0.007-0.012,0.034-0.079,0.053-0.123c0.022-0.052,0.043-0.103,0.066-0.152l0.039-0.094
	c0.006-0.023,0.013-0.045,0.019-0.062l0.066-0.236c0.042-0.198,0.089-0.451,0.055-0.654c-0.025-0.165-0.118-0.344-0.291-0.566
	c-0.091-0.116-0.193-0.23-0.296-0.346c-0.138-0.154-0.286-0.319-0.424-0.5c-0.205-0.257-0.38-0.541-0.515-0.839
	c-0.156-0.345-0.005-0.758,0.338-0.92c0.291-0.137,0.65-0.051,0.846,0.201c0.122,0.158,0.277,0.317,0.471,0.486
	c0.096,0.081,0.199,0.163,0.303,0.246l0.022,0.017c0.18,0.142,0.362,0.287,0.548,0.456c0.295,0.261,0.689,0.706,0.871,1.328
	c0.137,0.448,0.162,0.952,0.076,1.535l-0.01,0.051c0.227-0.016,0.46-0.024,0.695-0.024l0.094,0c0.662,0.025,1.3,0.063,1.96,0.249
	c0.768,0.199,1.408,0.477,1.95,0.849l0.047,0.031c0.057,0.037,0.111,0.073,0.2,0.14l0.192,0.16c0.042,0.036,0.076,0.064,0.109,0.092
	c0.092,0.076,0.176,0.146,0.263,0.229l0.024,0.023c0.243,0.24,0.49,0.484,0.7,0.761c0.399,0.483,0.741,1.066,1.006,1.723
	c0.222,0.523,0.389,1.113,0.494,1.747c0.11,0.567,0.137,1.126,0.156,1.534c0.029,0.905-0.028,1.648-0.088,2.256
	c-0.045,0.444-0.084,0.732-0.099,0.835l-0.12,0.791c-0.041,0.271-0.269,0.468-0.544,0.468
	C53.907,24.409,53.678,24.208,53.642,23.931z M58.574,30.995c-0.094,0.281-0.402,0.441-0.687,0.352l-0.617-0.194
	c-0.174-0.055-0.343-0.12-0.492-0.178c-0.079-0.03-0.141-0.055-0.205-0.078c-0.139-0.062-0.269-0.121-0.395-0.181
	c0.157,0.443,0.295,0.932,0.409,1.446l0.15,0.678c0.036,0.165-0.002,0.333-0.105,0.462c-0.105,0.13-0.267,0.208-0.435,0.208
	c-0.193,0-0.369-0.101-0.469-0.269l-0.355-0.597c-0.106-0.179-0.202-0.365-0.279-0.514c-0.042-0.081-0.078-0.151-0.115-0.221
	c-0.128-0.249-0.25-0.492-0.366-0.737l-0.012-0.028c-0.097-0.244-0.205-0.524-0.304-0.811l-0.024-0.091l-0.049-0.257
	c-0.039-0.198-0.076-0.388-0.106-0.58l-0.077-0.492c-0.025-0.159,0.021-0.32,0.125-0.442c0.147-0.172,0.396-0.238,0.609-0.158
	l0.458,0.17c0.067,0.025,0.136,0.049,0.204,0.074c0.162,0.058,0.346,0.123,0.522,0.2l0.12,0.064
	c0.205,0.116,0.399,0.226,0.585,0.343c0.179,0.117,0.347,0.234,0.513,0.352l0.093,0.065c0.058,0.04,0.12,0.081,0.182,0.123
	c0.139,0.093,0.279,0.187,0.416,0.29l0.516,0.39C58.575,30.528,58.65,30.768,58.574,30.995z"/>
</svg>
