<?xml version="1.0" encoding="utf-8"?>
<!-- Generator: Adobe Illustrator 18.0.0, SVG Export Plug-In . SVG Version: 6.00 Build 0)  -->
<!DOCTYPE svg PUBLIC "-//W3C//DTD SVG 1.1//EN" "http://www.w3.org/Graphics/SVG/1.1/DTD/svg11.dtd">
<svg version="1.1" id="Layer_1" xmlns="http://www.w3.org/2000/svg" xmlns:xlink="http://www.w3.org/1999/xlink" x="0px" y="0px"
	 width="64px" height="64px" viewBox="0 0 64 64" enable-background="new 0 0 64 64" xml:space="preserve">
<g>
	<path fill="#2D3E4F" d="M58.787,20.225c-1.813-8.717-7.062-14.827-15.601-18.16c-5.099-1.986-10.744-2.293-16.737-0.903
		c-5.131,1.192-8.804,3.442-11.909,7.294c-3.089,3.843-4.615,8.104-4.536,12.682c0.017,0.688,0.072,1.384,0.162,2.068
		c-0.07,0.248-0.187,0.505-0.354,0.78c-0.07,0.113-0.139,0.234-0.195,0.346c-0.503,0.906-0.997,1.803-1.5,2.715
		c-0.923,1.683-1.878,3.424-2.827,5.129c-0.582,1.05-0.705,2.207-0.356,3.477c0.192,0.648,0.502,1.239,0.953,1.798
		c0.628,0.743,1.475,1.287,2.581,1.66c-0.354,0.917-0.304,1.75,0.148,2.478c-0.014,0.073-0.026,0.151-0.037,0.232
		c-0.176,1.317,0.259,2.446,1.26,3.277c-0.691,2.635,0.287,5.518,2.425,7.072c0.648,0.463,1.35,0.859,2.136,1.196
		c0.326,0.134,0.697,0.286,1.095,0.412c2.517,0.82,5.076,1.137,7.55,1.442l0.52,0.065c3.37,0.446,4.871,3.401,6.352,6.927
		c0.378,0.9,1.254,1.481,2.23,1.481c0.382,0,0.763-0.092,1.101-0.266c1.099-0.563,5.088-2.62,8.407-4.331l2.376-1.225
		c2.378-1.235,4.838-2.51,7.313-3.785l0.261-0.134l0.27-0.255c0.473-0.471,0.971-1.304,0.659-2.594
		c-0.379-1.594-0.641-2.819-0.548-4.068c0.13-1.727,0.635-3.467,1.592-5.473c0.497-1.046,1.027-2.11,1.54-3.139l0.032-0.065
		c0.63-1.262,1.281-2.566,1.901-3.901C59.203,29.825,59.786,25.036,58.787,20.225z M48.122,50.949
		c-1.678,0.866-3.342,1.729-4.972,2.574l-10.097,5.208c-1.414-3.042-3.877-7.009-8.944-7.678l-0.543-0.068
		c-2.382-0.295-4.632-0.573-6.779-1.273c-0.233-0.073-0.485-0.177-0.761-0.291c-0.453-0.196-0.882-0.438-1.273-0.716
		c-0.708-0.518-1.042-1.622-0.779-2.557l0.032-0.102c0.047-0.147,0.099-0.312,0.147-0.495c0.358-1.365-0.089-2.648-1.198-3.471
		c0.248-0.688,0.188-1.369-0.179-2.029c0.236-0.464,0.666-1.433,0.384-2.562c-0.295-1.162-1.165-1.913-2.582-2.229l-0.466-0.108
		c-0.492-0.135-0.815-0.285-0.947-0.432c-0.061-0.078-0.103-0.16-0.132-0.254c-0.044-0.164-0.029-0.189-0.013-0.218
		c0.953-1.713,1.911-3.459,2.841-5.156l0.236-0.427c0.42-0.761,0.84-1.525,1.27-2.298l0.083-0.152
		c0.524-0.86,0.847-1.714,0.988-2.608l0.051-0.328l-0.05-0.328c-0.096-0.624-0.153-1.267-0.17-1.909
		c-0.061-3.585,1.115-6.826,3.594-9.911c2.498-3.098,5.354-4.837,9.55-5.813c5.153-1.192,9.922-0.95,14.222,0.722
		c7.109,2.776,11.474,7.84,12.974,15.054c0.809,3.893,0.329,7.785-1.426,11.568c-0.589,1.265-1.229,2.549-1.853,3.801
		c-0.532,1.066-1.082,2.169-1.603,3.269c-1.19,2.497-1.824,4.718-1.995,6.989C47.617,48.284,47.869,49.783,48.122,50.949z"/>
	<path fill="#2E79BE" d="M49.28,20.402l-0.134-0.44c-0.066-0.216-0.111-0.439-0.142-0.702c-0.025-0.223-0.04-0.438-0.057-0.716
		c-0.029-0.507-0.06-1.032-0.215-1.598c-0.394-1.435-1.356-2.525-2.861-3.241l-0.105-0.093c-0.734-1.151-1.854-1.873-3.33-2.146
		c-0.276-0.051-0.55-0.071-0.815-0.089l-0.125-0.022c-1.152-0.477-2.376-0.795-3.672-1.131c-0.402-0.104-0.804-0.209-1.205-0.318
		c-1.679-0.458-2.996-0.609-4.283-0.499c-1.365,0.117-2.488,0.478-3.433,1.105c-0.33,0.219-0.711,0.375-1.131,0.464
		c-0.217,0.045-0.429,0.081-0.666,0.12c-0.167,0.027-0.326,0.054-0.475,0.088c-2.21,0.511-3.582,1.592-4.315,3.401
		c-0.206,0.511-0.566,0.811-0.919,1.106c-0.13,0.109-0.253,0.211-0.366,0.321c-1.194,1.15-1.715,3.12-1.237,4.685
		c0.206,0.675,0.563,1.03,1.016,1.48c0.112,0.111,0.227,0.225,0.345,0.349c0.218,0.229,0.392,0.51,0.545,0.758
		c0.233,0.378,0.454,0.734,0.805,0.935c0.5,0.287,1.313,0.195,2.173,0.035c0.423-0.079,0.941-0.175,1.41-0.167
		c0.32,0.009,1.026,0.485,1.397,0.812c0.271,0.263,0.422,0.588,0.567,0.902c0.103,0.223,0.209,0.453,0.356,0.642
		c0.412,0.527,1.216,0.874,2.264,0.976c0.627,0.064,1.235,0.028,1.885-0.131c0.043-0.015,0.173-0.065,0.418-0.173
		c0.237-0.104,0.504-0.157,0.792-0.157c1.644,0,3.552,1.657,3.582,3.111l0.026,0.885c0.026,0.75,0.054,5.027,0.006,6.317
		l-0.019,0.519h6.252l0.087-5.029c0.014-0.111,0.023-0.218,0.033-0.332c0.015-0.164,0.028-0.317,0.059-0.462
		c0.345-1.619,0.897-2.835,1.518-3.34c0.092-0.075,0.228-0.15,0.372-0.205c1.84-0.697,2.874-2.067,2.912-3.857l0.039-0.131
		c0.227-0.356,0.402-0.756,0.528-1.211c0.04-0.074,0.078-0.152,0.112-0.231C49.696,22.004,49.507,21.169,49.28,20.402z"/>
</g>
</svg>
