<?xml version="1.0" encoding="utf-8"?>
<!-- Generator: Adobe Illustrator 18.0.0, SVG Export Plug-In . SVG Version: 6.00 Build 0)  -->
<!DOCTYPE svg PUBLIC "-//W3C//DTD SVG 1.1//EN" "http://www.w3.org/Graphics/SVG/1.1/DTD/svg11.dtd">
<svg version="1.1" id="Layer_1" xmlns="http://www.w3.org/2000/svg" xmlns:xlink="http://www.w3.org/1999/xlink" x="0px" y="0px"
	 width="64px" height="64px" viewBox="0 0 64 64" enable-background="new 0 0 64 64" xml:space="preserve">
<g>
	<path fill="#2D3E4F" d="M62.838,22.015c-0.832-1.702-1.692-3.452-2.867-4.919c-2.272-2.83-4.759-5.49-7.182-8.19
		c-0.551-0.616-1.081-1.257-1.605-1.904c-0.504-0.588-0.981-1.194-1.453-1.805c-0.404-0.525-0.8-1.055-1.201-1.579H19.696
		c-1.54,1.986-3.274,3.822-5.265,5.514c-3.269,2.778-5.018,5.323-3.04,9.682c0.359,0.792,0.391,1.584,0.184,2.353
		c-0.197,0.716-0.59,1.414-1.118,2.08c-1.595,2.009-3.531,3.468-5.267,5.304c-3.174,3.347-4.588,7.794-4.336,12.371v0.013
		c-0.084,3.303,0.874,6.527,2.747,9.142c1.094,1.928,2.505,3.749,4.226,5.38c0.005,0.003,0.008,0.008,0.011,0.01
		c0.714,0.677,1.296,1.48,1.679,2.385c0.357,0.832,0.693,1.679,1.076,2.51h3.966v0.01h14.834c4.509,0,9.019,0,13.533,0.008
		c0.079,0,0.147-0.003,0.21-0.018c0.223-0.034,0.372-0.144,0.514-0.386c0.071-0.126,0.142-0.249,0.212-0.375
		c1.097-1.981,1.91-4.066,2.204-6.327c0.365-2.765-0.005-5.459-0.965-8.053c-0.86-2.327-1.855-4.604-2.762-6.915
		c-0.535-1.364-1.01-2.752-1.052-4.229c0.073-0.029,0.147-0.058,0.218-0.087c6.563-2.773,13.135-5.532,19.701-8.321
		C62.846,24.974,63.691,23.762,62.838,22.015z M32.348,54.291c-5.598,5.908-15.661,5.462-22.471-0.994
		c-6.81-6.456-7.794-16.479-2.196-22.384c5.598-5.908,15.661-5.462,22.471,0.997C36.962,38.365,37.946,48.386,32.348,54.291z
		 M50.16,22.461c-2.534,1.797-5.047,3.628-7.673,5.273c0.858-2.628,1.768-5.246,2.608-7.883c0.365-1.138,0.682-2.287,0.929-3.45
		c1.511,1.343,2.972,2.647,4.418,3.964C51.293,21.138,50.889,21.936,50.16,22.461z"/>
	<path fill="#2E79BE" d="M25.592,44.81c-0.164,0.193-0.338,0.374-0.521,0.541c-0.312,0.289-0.643,0.538-0.997,0.741
		c-0.672,0.39-1.423,0.63-2.26,0.692c-0.613,0.046-1.223,0.007-1.725-0.659c0.377-0.154,0.682-0.282,0.99-0.4
		c0.489-0.184,0.99-0.338,1.466-0.551c0.397-0.177,0.603-0.525,0.459-0.954c-0.312-0.951-0.895-1.709-1.846-2.069
		c-0.223-0.089-0.682,0.023-0.81,0.2c-0.161,0.226-0.134,0.617-0.108,0.931c0.01,0.154,0.2,0.289,0.443,0.613
		c-0.669,0.144-1.184,0.298-1.712,0.348c-0.256,0.02-0.689-0.102-0.758-0.272c-0.092-0.236-0.007-0.656,0.164-0.859
		c0.41-0.482,0.905-0.895,1.381-1.315c1.066-0.938,1.2-1.804,0.344-2.922c-0.374-0.485-0.505-0.964-0.515-1.561
		c-0.039-2.515-2.043-4.824-4.532-5.175c-2.073-0.295-3.949,0.331-5.562,1.6c-1.81,1.42-2.155,3.388-1.814,5.552
		c0.407,2.574,1.322,4.749,4.083,5.621c0.728,0.23,1.01,0.902,1.135,1.594c0.171,0.922,0.272,1.853,0.426,2.771
		c0.282,1.666,0.882,3.168,2.273,4.237c2.847,2.184,7.92,2.292,10.855,0.239c1.859-1.302,2.381-3.125,1.489-5.218
		c-0.289-0.676-0.059-1.168,0.679-1.292c0.367-0.062,0.771-0.003,1.141,0.079c0.489,0.108,0.961,0.289,1.436,0.443
		c1.584,0.505,2.42-0.23,2.797-1.81c0.082-0.348-0.112-0.761-0.177-1.141c-0.38,0.102-0.761,0.207-1.141,0.315
		c-0.02,0.003-0.039,0.023-0.052,0.039c-0.567,0.695-1.177,0.482-1.827,0.125c-0.797-0.439-1.591-0.908-2.433-1.24
		C27.12,43.571,26.461,43.8,25.592,44.81z"/>
</g>
</svg>
