<?xml version="1.0" encoding="utf-8"?>
<!-- Generator: Adobe Illustrator 18.0.0, SVG Export Plug-In . SVG Version: 6.00 Build 0)  -->
<!DOCTYPE svg PUBLIC "-//W3C//DTD SVG 1.1//EN" "http://www.w3.org/Graphics/SVG/1.1/DTD/svg11.dtd">
<svg version="1.1" id="Layer_1" xmlns="http://www.w3.org/2000/svg" xmlns:xlink="http://www.w3.org/1999/xlink" x="0px" y="0px"
	 width="64px" height="64px" viewBox="0 0 64 64" enable-background="new 0 0 64 64" xml:space="preserve">
<g>
	<g>
		<path fill="#2E79BE" d="M45.568,26.194c0.328-0.497,0.653-1.054,1.024-1.763c0.642-1.26,1.122-2.57,1.428-3.902
			c0.301-1.369,0.422-2.744,0.357-4.098l-0.033-0.527l-0.167-1.357c-0.106-0.686-0.264-1.316-0.41-1.856
			c-0.331-1.157-0.784-2.277-1.349-3.332c-0.534-0.985-1.169-1.916-1.885-2.767c-1.257-1.497-2.772-2.744-4.5-3.705
			c-0.712-0.397-1.459-0.739-2.222-1.018c-0.701-0.256-1.366-0.453-1.965-0.584c-0.621-0.146-1.176-0.226-1.651-0.289
			c-0.162-0.019-0.316-0.033-0.46-0.046l-0.176-0.016c-0.034-0.003-0.068-0.006-0.101-0.008V0.885l-0.905,0L31.588,0.85l0,0.036
			L30.93,0.904c-0.153,0.007-0.323,0.015-0.486,0.03l-0.14,0.013c-0.155,0.013-0.321,0.029-0.526,0.053
			c-0.256,0.035-0.533,0.073-0.825,0.124c-0.254,0.044-0.52,0.096-0.772,0.156c-0.619,0.134-1.289,0.333-1.989,0.589
			c-0.772,0.283-1.519,0.625-2.219,1.017c-1.73,0.961-3.245,2.208-4.501,3.704c-0.715,0.849-1.351,1.781-1.891,2.777
			c-0.563,1.051-1.016,2.171-1.352,3.348c-0.141,0.525-0.299,1.152-0.401,1.817l-0.047,0.284c-0.01,0.059-0.019,0.115-0.021,0.15
			l-0.135,1.486c-0.064,1.337,0.057,2.71,0.361,4.089c0.304,1.324,0.784,2.635,1.431,3.904c0.352,0.674,0.685,1.246,1.013,1.743
			l5.945,9.142l5.68-7.603l-4.641-6.297c-0.238-0.325-0.442-0.663-0.616-0.954c-0.359-0.633-0.633-1.278-0.809-1.902
			c-0.173-0.65-0.26-1.292-0.262-1.849l0.066-1.081c0.031-0.313,0.098-0.633,0.16-0.925c0.148-0.619,0.357-1.215,0.618-1.763
			c0.257-0.528,0.567-1.032,0.924-1.499c0.615-0.808,1.381-1.499,2.277-2.054c0.364-0.226,0.746-0.423,1.137-0.585
			c0.255-0.107,0.483-0.192,0.709-0.266c0.112-0.038,0.224-0.069,0.346-0.103c0.317-0.09,0.61-0.145,0.827-0.186l1.211-0.118
			L32.69,8.19l0.468,0.063c0.273,0.05,0.566,0.105,0.911,0.203c0.293,0.077,0.639,0.198,1.027,0.359
			c0.392,0.163,0.774,0.36,1.139,0.587c0.896,0.555,1.66,1.245,2.277,2.057c0.353,0.459,0.662,0.961,0.916,1.483
			c0.267,0.561,0.475,1.154,0.616,1.741c0.066,0.31,0.136,0.64,0.166,0.934l0.065,1.039c0,0.619-0.087,1.261-0.255,1.893
			c-0.182,0.642-0.455,1.287-0.801,1.899c-0.218,0.367-0.408,0.675-0.628,0.974L11.954,57.077l8.499,6.066l20.511-30.15
			L45.568,26.194z"/>
		<polygon fill="#2E79BE" points="39.7,40.467 34.041,48.785 43.537,63.15 52.046,57.078 		"/>
	</g>
</g>
</svg>
