<?xml version="1.0" encoding="utf-8"?>
<!-- Generator: Adobe Illustrator 18.0.0, SVG Export Plug-In . SVG Version: 6.00 Build 0)  -->
<!DOCTYPE svg PUBLIC "-//W3C//DTD SVG 1.1//EN" "http://www.w3.org/Graphics/SVG/1.1/DTD/svg11.dtd">
<svg version="1.1" id="Layer_1" xmlns="http://www.w3.org/2000/svg" xmlns:xlink="http://www.w3.org/1999/xlink" x="0px" y="0px"
	 width="64px" height="64px" viewBox="0 0 64 64" enable-background="new 0 0 64 64" xml:space="preserve">
<g>
	<path fill="#2E79BE" d="M32.03,61.669c-7.057,0-12.335-2.233-15.521-4.106c-1.012-0.594-1.357-1.906-0.769-2.925l8.721-15.115
		c0.383-0.663,1.096-1.075,1.861-1.075c0.337,0,0.674,0.081,0.975,0.235c1.58,0.808,3.165,1.217,4.711,1.217
		c1.548,0,3.135-0.411,4.718-1.221c0.3-0.154,0.638-0.236,0.976-0.236c0.765,0,1.478,0.412,1.861,1.075l8.742,15.146
		c0.289,0.501,0.364,1.084,0.212,1.643c-0.152,0.557-0.513,1.02-1.016,1.303c-4.19,2.361-8.705,3.705-13.42,3.995
		C33.399,61.648,32.708,61.669,32.03,61.669z M19.474,55.19c2.861,1.476,7.102,2.968,12.556,2.968c0.607,0,1.224-0.019,1.835-0.057
		c3.729-0.23,7.321-1.205,10.696-2.902l-7.417-12.85c-1.702,0.704-3.424,1.06-5.136,1.06c-1.709,0-3.429-0.355-5.128-1.057
		L19.474,55.19z"/>
	<path fill="#2E79BE" d="M19.854,31.576H2.414c-1.114,0-2.055-0.871-2.142-1.983c-0.359-4.533,1.2-10.18,4.277-15.494
		C7.622,8.791,11.764,4.585,15.913,2.56c0.293-0.143,0.62-0.219,0.945-0.219c0.766,0,1.479,0.412,1.861,1.074l8.733,15.132
		c0.566,0.981,0.272,2.239-0.671,2.863c-2.978,1.973-4.543,4.644-4.782,8.166C21.924,30.698,20.981,31.576,19.854,31.576z
		 M3.731,28.066h14.903c0.532-3.608,2.264-6.57,5.163-8.83L16.343,6.319C9.735,10.295,3.825,20.486,3.731,28.066z"/>
	<path fill="#2E79BE" d="M61.63,31.589H44.178c-1.128,0-2.07-0.88-2.144-2.003c-0.231-3.511-1.798-6.185-4.791-8.173
		c-0.941-0.625-1.234-1.882-0.668-2.863l8.74-15.143c0.383-0.664,1.097-1.076,1.863-1.076c0.389,0,0.771,0.106,1.105,0.307
		c4.641,2.791,8.376,6.542,11.101,11.147c2.811,4.75,4.29,10.004,4.396,15.616c0.011,0.572-0.213,1.135-0.614,1.543
		C62.763,31.354,62.204,31.589,61.63,31.589z M45.402,28.078h14.81c-0.285-4.516-1.551-8.62-3.85-12.506
		c-2.192-3.704-5.12-6.788-8.716-9.183L40.229,19.24C43.141,21.511,44.876,24.475,45.402,28.078z"/>
	<circle fill="#2D3E4F" cx="31.88" cy="30.041" r="6.043"/>
</g>
</svg>
