<?xml version="1.0" encoding="utf-8"?>
<!-- Generator: Adobe Illustrator 18.0.0, SVG Export Plug-In . SVG Version: 6.00 Build 0)  -->
<!DOCTYPE svg PUBLIC "-//W3C//DTD SVG 1.1//EN" "http://www.w3.org/Graphics/SVG/1.1/DTD/svg11.dtd">
<svg version="1.1" id="Layer_1" xmlns="http://www.w3.org/2000/svg" xmlns:xlink="http://www.w3.org/1999/xlink" x="0px" y="0px"
	 width="64px" height="64px" viewBox="0 0 64 64" enable-background="new 0 0 64 64" xml:space="preserve">
<g>
	<path fill="#2D3E4F" d="M58.549,34.831c-1.247-2.249-2.399-4.343-3.509-6.377l2.214-3.65l-3.742-2.27L51.27,26.23
		c-0.692-0.013-1.384-0.027-2.077-0.042c-1.746-0.036-3.551-0.073-5.329-0.092c-0.236-0.003-0.236-0.003-0.334-0.184
		c-0.833-1.548-1.692-3.112-2.524-4.625c-0.439-0.799-0.878-1.597-1.314-2.396l2.406-3.967l-3.742-2.27l-2.628,4.332
		c-2.281-0.041-4.587-0.089-6.868-0.142l-2.782-3.618l-3.47,2.668l2.386,3.103c-0.578,0.962-1.159,1.923-1.739,2.884
		c-0.753,1.246-1.505,2.491-2.253,3.74c-1.94-0.051-3.88-0.091-5.821-0.131c-0.78-0.016-1.561-0.032-2.341-0.049l-2.742-3.566
		l-3.47,2.668l2.623,3.41c-1.015,1.689-2.107,3.495-3.387,5.602L2.2,32.311l-1.409,4.144l4.801,1.632
		c1.234,2.228,2.457,4.45,3.641,6.615l-1.359,4.41l4.183,1.289l1.108-3.598c0.687,0.013,1.374,0.028,2.06,0.043l1.264,0.027
		c0.46,0.009,0.92,0.018,1.38,0.026c0.644,0.012,1.287,0.023,1.931,0.038l2.094,3.777l3.828-2.122l-1.899-3.424
		c0.739-1.235,1.484-2.467,2.228-3.698c0.661-1.094,1.323-2.188,1.98-3.285c0.002-0.003,0.003-0.005,0.005-0.008
		c2.746,0.075,5.455,0.13,8.052,0.165c0.007,0.012,0.016,0.027,0.026,0.045c0.713,1.308,1.43,2.614,2.148,3.92
		c0.604,1.1,1.209,2.199,1.81,3.3l-1.275,4.14l4.183,1.289l1.107-3.593c2.195,0.04,4.424,0.086,6.642,0.136l2.09,3.77l3.828-2.122
		l-2.013-3.631c1.189-1.982,2.458-4.08,3.863-6.386l4.681,0.031l0.029-4.377L58.549,34.831z M55.679,36.998
		c-0.726,1.216-1.458,2.428-2.191,3.64c-0.686,1.135-1.372,2.27-2.064,3.426c-1.004-0.029-2.008-0.048-3.011-0.068l-1.121-0.022
		c-0.421-0.008-0.843-0.017-1.264-0.026c-0.933-0.02-1.898-0.041-2.851-0.05c-1.412-2.591-2.703-4.933-3.943-7.158
		c1.436-2.351,2.892-4.758,4.33-7.156c1.126,0.028,2.252,0.051,3.379,0.075c1.586,0.033,3.171,0.067,4.757,0.111
		C53.003,32.097,54.341,34.527,55.679,36.998z M40.471,27.689c0,0.001,0,0.001,0,0.001c-0.911,1.535-1.851,3.089-2.759,4.592
		c-0.516,0.854-1.032,1.708-1.547,2.562c-2.71-0.069-5.412-0.123-8.059-0.163c-0.492-0.9-0.986-1.798-1.48-2.696
		c-0.834-1.516-1.695-3.083-2.531-4.63c1.393-2.342,2.814-4.688,4.225-6.974c1.022,0.001,2.065,0.025,3.075,0.048l1.019,0.023
		c0.365,0.008,0.729,0.014,1.094,0.021c0.996,0.018,2.025,0.038,3.032,0.078C37.914,22.998,39.236,25.399,40.471,27.689z
		 M24.96,36.444c-1.317,2.149-2.701,4.438-4.23,6.996c-1.012-0.036-2.037-0.054-3.029-0.072l-2.238-0.045
		c-0.976-0.021-1.984-0.044-2.979-0.053c-1.4-2.571-2.704-4.936-3.987-7.237c1.193-1.959,2.748-4.518,4.282-7.081
		c2.904,0.075,5.573,0.129,8.156,0.168C22.405,31.822,23.722,34.218,24.96,36.444z"/>
</g>
</svg>
