<?xml version="1.0" encoding="utf-8"?>
<!-- Generator: Adobe Illustrator 18.0.0, SVG Export Plug-In . SVG Version: 6.00 Build 0)  -->
<!DOCTYPE svg PUBLIC "-//W3C//DTD SVG 1.1//EN" "http://www.w3.org/Graphics/SVG/1.1/DTD/svg11.dtd">
<svg version="1.1" id="Layer_1" xmlns="http://www.w3.org/2000/svg" xmlns:xlink="http://www.w3.org/1999/xlink" x="0px" y="0px"
	 width="64px" height="64px" viewBox="0 0 64 64" enable-background="new 0 0 64 64" xml:space="preserve">
<g>
	<path fill="#2E79BE" d="M45.514,33.93c-0.158,0.112-0.344,0.189-0.525,0.264c-0.125,0.052-0.266,0.018-0.292-0.123
		c-0.015-0.085,0.043-0.218,0.112-0.28c0.661-0.585,1.312-1.132,1.905-1.79c-1.079-0.864-2.259-1.433-3.545-1.764
		c0.159,0.37,0.363,0.716,0.452,1.089c0.091,0.382,0.127,0.798,0.078,1.186c-0.047,0.38-0.177,0.773-0.369,1.105
		c-0.195,0.339-0.473,0.651-0.775,0.903c-1.045,0.874-2.648,0.864-3.742,0.011c-0.576-0.449-0.952-1.032-1.107-1.744
		c-0.2-0.911-0.006-1.751,0.57-2.561c-1.433,0.384-2.659,1.019-3.781,1.944c-0.153,0.127,2.247,1.691,2.123,1.918
		c-0.114,0.211-0.3,0.064-0.438-0.002c-1.005-0.483-1.937-1.087-2.831-1.75c-0.31-0.23-0.334-0.496-0.065-0.778
		c0.172-0.18,0.359-0.348,0.555-0.502c2.327-1.839,4.972-2.62,7.923-2.354c2.14,0.193,4.062,0.95,5.744,2.297
		c0.165,0.132,0.324,0.275,0.466,0.43c0.232,0.254,0.216,0.558-0.056,0.76C47.123,32.777,46.321,33.357,45.514,33.93z"/>
	<path fill="#2E79BE" d="M60.071,30.667c-1.342-0.018-2.684-0.035-4.027-0.053l-4.613-0.055l-0.036-0.187
		c-1.064-5.859-6.243-9.813-12.049-9.191c-1.306,0.139-2.561,0.504-3.735,1.085c-3.641,1.803-5.997,5.405-6.148,9.409
		c-0.211,5.541,3.592,10.311,9.041,11.341c2.278,0.426,4.721,0.078,6.876-0.988c3.089-1.53,5.273-4.391,5.986-7.841l0.044-0.212
		l0.218,0.036c0.043,0.004,0.084,0.015,0.129,0.023c0.086,0.019,0.177,0.036,0.265,0.038c2.676,0.039,5.348,0.081,8.02,0.112
		c0.337,0.007,0.646-0.063,0.926-0.202c0.589-0.292,0.945-0.868,0.956-1.54C61.937,31.431,61.158,30.687,60.071,30.667z
		 M49.215,32.399c-0.066,2.405-1.084,4.617-2.859,6.23c-0.591,0.537-1.258,0.995-1.98,1.352c-3.406,1.686-7.479,0.997-10.135-1.717
		c-1.646-1.68-2.531-3.886-2.492-6.212c0.036-2.371,1.025-4.602,2.78-6.285c0.613-0.586,1.308-1.076,2.071-1.454
		c3.379-1.673,7.562-0.943,10.169,1.775C48.389,27.735,49.283,30.036,49.215,32.399z"/>
	<path fill="#2D3E4F" d="M52.86,38.428c-0.304,0.569-0.754,1.109-1.87,1.346c-0.871,1.196-1.943,2.239-3.178,3.08
		c-0.027,0.106-0.057,0.21-0.088,0.31c-2.037,6.568-8.788,16.399-16.81,16.64c-0.234,0.006-0.467,0.006-0.698,0l-0.058-0.003
		l-0.06,0.003c-0.231,0.007-0.461,0.006-0.701,0c-8.019-0.241-14.769-10.072-16.808-16.645c-0.111-0.355-0.196-0.756-0.284-1.182
		c-0.048-0.223-0.094-0.448-0.147-0.674l-0.317-1.371l-1.407-0.039c-1.959-0.054-2.59-0.736-2.979-1.467
		c-1.154-2.157-1.739-4.633-1.741-7.354c0-1.078,0.151-1.373,1.528-1.567c0.286-0.039,0.552-0.093,0.789-0.141
		c0.087-0.018,0.172-0.036,0.257-0.051l1.745-0.332l-0.289-1.753c-0.058-0.356-0.118-0.696-0.177-1.027
		c-0.108-0.621-0.211-1.208-0.284-1.775c-0.582-4.495,0.195-8.098,2.375-11.012c4.244-5.676,10.295-8.691,18.498-9.216
		c8.201,0.525,14.253,3.54,18.498,9.216c2.179,2.914,2.956,6.517,2.375,11.009c-0.006,0.049-0.013,0.099-0.021,0.148
		c0.874,1.221,1.542,2.594,1.97,4.059l4.826,0.061c-0.564-1.325-1.681-2.202-3.344-2.619c0.066-0.394,0.126-0.781,0.178-1.178
		c0.711-5.481-0.293-9.951-3.07-13.662C46.629,4.625,39.661,1.133,30.27,0.558L30.159,0.55l-0.112,0.007
		C20.656,1.133,13.688,4.625,8.745,11.233c-2.775,3.711-3.78,8.18-3.07,13.663c0.052,0.397,0.112,0.783,0.178,1.175
		c-2.509,0.63-3.778,2.31-3.778,5.002c0.001,3.327,0.732,6.378,2.17,9.068c0.953,1.787,2.512,2.877,4.642,3.25
		c0.066,0.28,0.138,0.564,0.228,0.852c1.341,4.323,4.05,8.966,7.245,12.421c3.976,4.3,8.447,6.643,12.925,6.778
		c0.292,0.01,0.584,0.01,0.873,0.003c0.136,0.003,0.271,0.004,0.407,0.004c0.156,0,0.311-0.001,0.463-0.007
		c4.483-0.135,8.954-2.477,12.93-6.778c3.196-3.455,5.904-8.098,7.243-12.416c0.091-0.29,0.163-0.576,0.229-0.856
		c2.13-0.373,3.688-1.462,4.642-3.25c0.68-1.269,1.2-2.621,1.561-4.043c-1.263-0.016-2.528-0.034-3.769-0.054
		C53.6,36.876,53.266,37.672,52.86,38.428z"/>
	<path fill="#2D3E4F" d="M36.533,50.223c-1.999-1.159-4.017-1.678-5.133-1.678c-2.798,0.018-4.824,0.477-6.993,1.588
		c-0.448,0.229-0.739,0.523-0.842,0.85c-0.085,0.269-0.046,0.561,0.115,0.865c0.334,0.63,1.029,0.801,1.777,0.416
		c3.441-1.769,6.76-1.757,9.918,0.031c0.217,0.122,0.452,0.187,0.679,0.187c0.418,0,0.781-0.208,0.996-0.572
		c0.172-0.291,0.224-0.598,0.148-0.886C37.117,50.704,36.886,50.427,36.533,50.223z"/>
	<path fill="#2D3E4F" d="M33.937,43.361c-0.864,1.238-2.061,1.849-3.646,1.864h-0.009c-1.498-0.036-2.687-0.701-3.533-1.977
		c-0.43-0.65-0.329-1.356,0.253-1.757c0.563-0.386,1.175-0.248,1.672,0.374c0.971,1.214,2.326,1.251,3.333,0.121
		C32.603,42.499,33.249,42.96,33.937,43.361z"/>
	<path fill="#2D3E4F" d="M14.559,30.633c1.92-0.619,4.034-0.79,6.015-0.488c0.58,0.089,1.184,0.279,1.768,0.462
		c0.889,0.28,1.808,0.569,2.776,0.569c0.293,0,0.581-0.027,0.857-0.081c0.607-0.119,1.052-0.453,1.19-0.895
		c0.072-0.233,0.119-0.699-0.378-1.21c-0.432-0.444-1.109-0.616-1.715-0.725c-0.545-0.098-1.091-0.209-1.665-0.325
		c-1.667-0.338-3.391-0.688-5.136-0.688c-0.42,0-0.83,0.02-1.218,0.06c-0.89,0.091-1.616,0.369-2.507,0.962
		c-0.596,0.395-1.209,0.88-1.233,1.484c-0.011,0.291,0.122,0.561,0.377,0.76C13.917,30.695,14.239,30.738,14.559,30.633z"/>
	<path fill="#2D3E4F" d="M24.906,35.343c0.267-0.069,0.558-0.097,0.882-0.125c0.355-0.029,0.631-0.307,0.656-0.661
		c0.025-0.356-0.209-0.672-0.558-0.751c-0.745-0.169-1.589-0.252-2.579-0.252c-0.845,0-1.684,0.057-2.497,0.113
		c-0.308,0.021-0.611,0.042-0.908,0.059c-1.936,0.111-3.623-0.243-5.173-1.101l-0.112-0.046l-0.16-0.019
		c-0.2,0-0.388,0.098-0.504,0.262c-0.181,0.26-0.138,0.61,0.097,0.813c0.143,0.126,0.28,0.261,0.43,0.408
		c0.284,0.279,0.578,0.566,0.931,0.803c0.067,0.046,0.136,0.09,0.206,0.132c0.419,0.258,0.891,0.484,1.44,0.69
		c0.919,0.345,1.896,0.553,2.987,0.636c0.368,0.027,0.74,0.048,1.112,0.048c0.788,0,1.431-0.093,2.022-0.292
		c0.302-0.101,0.583-0.236,0.841-0.36C24.323,35.556,24.609,35.419,24.906,35.343z"/>
</g>
</svg>
