<?xml version="1.0" encoding="utf-8"?>
<!-- Generator: Adobe Illustrator 18.0.0, SVG Export Plug-In . SVG Version: 6.00 Build 0)  -->
<!DOCTYPE svg PUBLIC "-//W3C//DTD SVG 1.1//EN" "http://www.w3.org/Graphics/SVG/1.1/DTD/svg11.dtd">
<svg version="1.1" id="Layer_1" xmlns="http://www.w3.org/2000/svg" xmlns:xlink="http://www.w3.org/1999/xlink" x="0px" y="0px"
	 width="64px" height="64px" viewBox="0 0 64 64" enable-background="new 0 0 64 64" xml:space="preserve">
<g>
	<path fill="#2D3E4F" d="M58.477,43.659c-0.63-1.681-1.644-3.287-3.099-4.909c-2.759-3.077-4.9-6.602-6.366-10.477
		c-1.76-4.652-2.716-9.702-2.923-15.44c-0.13-3.612-0.007-6.887,0.376-10.01c0.064-0.525-0.08-1.043-0.405-1.46
		c-0.326-0.417-0.794-0.682-1.319-0.746c-0.08-0.01-0.162-0.015-0.242-0.015c-0.998,0-1.842,0.748-1.964,1.739
		c-0.409,3.333-0.54,6.811-0.403,10.634c0.223,6.175,1.262,11.637,3.177,16.698c1.639,4.334,4.035,8.277,7.122,11.72
		c1.12,1.249,1.885,2.444,2.339,3.654c0.633,1.691,0.569,3.236-0.197,4.701c-0.454-0.342-1.018-0.599-1.664-0.758
		c-0.285-0.07-0.618-0.144-0.96-0.144c-0.128,0-0.251,0.011-0.366,0.032c-0.422,0.078-0.857,0.15-1.277,0.219
		c-1.274,0.211-2.591,0.428-3.841,0.852c-2.024,0.686-3.915,1.74-5.623,3.132c-0.183,0.114-0.355,0.243-0.511,0.386
		c-0.511,0.464-0.982,0.952-1.334,1.322L38.984,54.8c-0.052,0.055-0.105,0.109-0.155,0.163c-0.191,0.203-0.38,0.406-0.567,0.607
		c-1.292,1.394-2.513,2.71-3.992,3.363c-0.672,0.247-1.36,0.372-2.045,0.372c-1.558,0-3.049-0.651-4.311-1.883
		c-1.203-1.174-2.459-2.342-3.732-3.473c-0.184-0.179-0.351-0.338-0.512-0.484c-0.119-0.108-0.248-0.21-0.385-0.303l-0.07-0.061
		c-0.04-0.035-0.08-0.07-0.12-0.105c-2.308-1.994-4.621-3.23-7.073-3.779l-0.258-0.058c-0.81-0.184-1.649-0.374-2.5-0.374
		c-0.916,0-1.698,0.223-2.391,0.683c-0.369,0.245-0.717,0.597-1.003,1.007c-1.164-1.684-1.371-3.466-0.639-5.425
		c0.454-1.21,1.219-2.406,2.34-3.656c3.086-3.443,5.482-7.386,7.121-11.719c1.914-5.061,2.954-10.523,3.177-16.699
		c0.137-3.824,0.005-7.302-0.403-10.633c-0.121-0.991-0.966-1.739-1.963-1.739c-0.081,0-0.162,0.005-0.243,0.015
		c-1.083,0.133-1.857,1.122-1.724,2.206c0.383,3.122,0.506,6.396,0.376,10.009c-0.207,5.738-1.164,10.789-2.923,15.44
		c-1.466,3.875-3.608,7.399-6.366,10.477c-1.456,1.623-2.47,3.229-3.1,4.911c-1.395,3.731-0.652,7.324,2.15,10.391
		c0.173,0.189,0.348,0.37,0.521,0.539c0.276,0.323,0.613,0.618,1.002,0.878c0.593,0.395,1.331,0.718,2.193,0.961
		c0.302,0.084,0.617,0.159,0.964,0.228c0.977,0.193,2.004,0.29,3.142,0.294c0.898-0.002,1.809-0.053,2.784-0.155
		c0.343-0.036,0.691-0.099,1.06-0.166c0.317-0.058,1.059-0.193,1.535-0.193c0.098,0,0.158,0.006,0.192,0.011
		c0.59,0.542,1.162,1.16,1.768,1.813c1.673,1.804,3.402,3.669,5.992,4.57c0.954,0.332,1.951,0.52,2.955,0.558
		c0.058,0.003,0.131,0.002,0.197,0.006l0.022,0l0.014,0c0.072,0,0.147-0.003,0.198-0.005c1.011-0.039,2.007-0.227,2.961-0.559
		c2.591-0.901,4.32-2.766,5.993-4.57c0.605-0.653,1.178-1.271,1.768-1.813c0.034-0.005,0.095-0.011,0.193-0.011
		c0.475,0,1.217,0.135,1.534,0.193c0.368,0.067,0.716,0.131,1.059,0.166c0.971,0.102,1.882,0.152,2.791,0.155
		c1.133-0.005,2.159-0.101,3.14-0.295c0.346-0.069,0.662-0.144,0.965-0.229c0.859-0.242,1.596-0.566,2.193-0.963
		c0.385-0.258,0.72-0.552,0.997-0.875c0.173-0.169,0.349-0.351,0.523-0.541C59.129,50.984,59.872,47.391,58.477,43.659z"/>
	<path fill="#2E79BE" d="M32.137,53.361c-2.154-0.005-4.029-0.429-5.728-1.517c-0.679-0.435-1.378-0.839-2.059-1.271
		c-0.772-0.489-0.993-1.307-0.566-2.026c0.421-0.71,1.268-0.919,2.045-0.474c0.829,0.474,1.617,1.026,2.466,1.456
		c2.411,1.222,4.851,1.226,7.261-0.005c0.811-0.414,1.564-0.94,2.352-1.401c0.852-0.498,1.72-0.317,2.156,0.431
		c0.424,0.728,0.138,1.598-0.693,2.102c-0.689,0.419-1.387,0.825-2.067,1.258C35.676,52.952,33.874,53.332,32.137,53.361z"/>
</g>
</svg>
