<?xml version="1.0" encoding="utf-8"?>
<!-- Generator: Adobe Illustrator 18.0.0, SVG Export Plug-In . SVG Version: 6.00 Build 0)  -->
<!DOCTYPE svg PUBLIC "-//W3C//DTD SVG 1.1//EN" "http://www.w3.org/Graphics/SVG/1.1/DTD/svg11.dtd">
<svg version="1.1" id="Layer_1" xmlns="http://www.w3.org/2000/svg" xmlns:xlink="http://www.w3.org/1999/xlink" x="0px" y="0px"
	 width="64px" height="64px" viewBox="0 0 64 64" enable-background="new 0 0 64 64" xml:space="preserve">
<path fill="#2E79BE" d="M49.279,28.684c1.518-0.249,3.086-0.24,4.632-0.254c1.083-0.01,2.181,0.278,3.249,0.179
	c2.904-0.269,5.177-2.391,5.652-5.1c0.452-2.58-0.998-5.269-3.538-6.561c-2.391-1.216-5.262-0.619-7.26,1.529
	c-1.066,1.147-2.074,2.35-3.164,3.473c-2.39,2.459-6.134,1.7-7.328-1.459c-0.65-1.719,0.146-3.812,2.032-5.382
	c1.204-1.003,2.462-1.953,3.581-3.044c1.958-1.91,2.417-3.982,1.505-6.104c-1.176-2.739-3.623-4.383-6.403-4.302
	c-2.423,0.071-4.463,1.556-5.156,4.214c-0.401,1.538-0.134,3.238-0.353,4.84c-0.243,1.777-0.526,3.585-1.107,5.27
	c-0.522,1.514-2.117,1.921-3.428,1.503c-1.24-0.395-2.718-1.233-3.266-2.3c-0.658-1.282-0.53-3.01-0.579-4.549
	c-0.043-1.355,0.289-2.728,0.194-4.075c-0.208-2.943-1.816-4.705-4.555-5.264c-2.768-0.565-5.643,0.65-6.886,2.912
	c-1.245,2.265-0.875,5.359,0.952,7.23c1.14,1.168,2.378,2.241,3.581,3.346c1.918,1.762,2.265,4.897,0.725,6.651
	c-1.427,1.625-4.05,1.681-6.067-0.12c-1.511-1.349-2.676-3.084-4.168-4.459c-2.315-2.133-5.626-2.386-7.926-0.809
	c-2.236,1.533-3.101,4.499-2.078,7.118c1.207,3.088,3.571,4.364,6.927,4.137c1.937-0.131,3.965-0.024,5.843,0.428
	c1.635,0.393,2.893,1.657,2.769,3.588c-0.123,1.908-1.029,3.432-2.945,4.003c-1.012,0.302-2.13,0.355-3.198,0.339
	c-1.429-0.022-2.857-0.343-4.282-0.316c-2.97,0.057-5.336,1.883-5.95,4.413c-0.702,2.895,0.658,5.87,3.311,7.242
	c2.375,1.228,5.186,0.621,7.257-1.54c1.177-1.228,2.323-2.497,3.597-3.619c1.28-1.129,2.764-1.723,4.53-1.033
	c3.18,1.243,3.593,5.159,0.773,7.676c-1.222,1.091-2.51,2.109-3.723,3.21c-2.776,2.523-2.807,6.181-0.107,8.827
	c2.606,2.555,6.359,2.293,8.84-0.485c1.842-2.062,1.953-4.299,1.417-6.87c-0.519-2.492,0.129-4.744,2.434-6.26
	c1.395-0.918,2.709-0.696,4.003,0.18c2.203,1.493,2.332,3.674,1.976,6.01c-0.093,0.608-0.308,1.218-0.282,1.818
	c0.056,1.284,0.043,2.618,0.399,3.832c0.9,3.068,4.088,4.713,7.154,3.873c2.374-0.65,3.949-2.159,4.581-4.515
	c0.676-2.522-0.408-4.536-2.156-6.256c-1.163-1.143-2.379-2.232-3.571-3.346c-1.871-2.626-1.565-5.006,0.921-6.551
	c1.927-1.197,4.131-0.737,5.827,1.232c1.159,1.344,2.267,2.734,3.461,4.045c1.598,1.755,3.666,2.193,5.804,1.426
	c2.349-0.842,4.191-2.418,4.519-5.082c0.285-2.32-0.478-4.298-2.516-5.653c-2.125-1.413-4.471-1.36-6.9-1.262
	c-1.437,0.058-3.016-0.147-4.312-0.725c-1.452-0.648-2.462-2.001-2.225-3.797C46.534,30.373,47.428,28.988,49.279,28.684z
	 M27.596,37.799c-0.282,0.271-0.585,0.539-0.905,0.797c-1.046,2.552-6.469,2.736-6.063-0.76c0.7-2.532,2.659-4.396,5.239-5.607
	c0.964-0.295,2.548,0.063,3.169,0.716C30.589,34.578,29.252,37.095,27.596,37.799z M30.511,30.569
	c-1.686-2.015-2.108-4.686-1.639-7.497c0.305-0.96,1.5-2.061,2.39-2.202c2.226-0.351,3.537,2.179,3.176,3.942
	c0.063,0.386,0.112,0.788,0.142,1.198C36.086,28.321,33.158,32.889,30.511,30.569z M42.306,38.962
	c-1.102,1.965-3.901,1.43-5.062,0.056c-0.343-0.19-0.688-0.4-1.029-0.63c-2.747-0.247-4.522-5.374-1.062-6.018
	c2.626-0.078,4.985,1.244,6.903,3.352C42.622,36.556,42.747,38.176,42.306,38.962z"/>
</svg>
