<?xml version="1.0" encoding="utf-8"?>
<!-- Generator: Adobe Illustrator 18.0.0, SVG Export Plug-In . SVG Version: 6.00 Build 0)  -->
<!DOCTYPE svg PUBLIC "-//W3C//DTD SVG 1.1//EN" "http://www.w3.org/Graphics/SVG/1.1/DTD/svg11.dtd">
<svg version="1.1" id="Layer_1" xmlns="http://www.w3.org/2000/svg" xmlns:xlink="http://www.w3.org/1999/xlink" x="0px" y="0px"
	 width="64px" height="64px" viewBox="0 0 64 64" enable-background="new 0 0 64 64" xml:space="preserve">
<g>
	<path fill="#2D3E4F" d="M32.142,19.459c-5.03-0.001-9.123-4.074-9.137-9.094c-0.014-4.96,4.056-9.082,8.939-9.144
		c5.272-0.067,9.324,4.113,9.329,9.143C41.277,15.383,37.169,19.46,32.142,19.459z"/>
	<path fill="#2D3E4F" d="M47.874,39.127c-0.575-3.81-1.572-7.494-3.321-10.942c-1.13-2.228-2.553-4.23-4.67-5.651
		c-1.335-0.897-2.797-1.368-4.376-1.447c-0.13-0.007-0.261-0.011-0.393-0.012c-0.228,0.014-0.456,0.069-0.697,0.178
		c-1.526,0.694-3.074,0.694-4.613-0.021c-0.214-0.1-0.472-0.158-0.711-0.158h-0.14c-1.756,0.005-3.372,0.477-4.836,1.46
		c-2.117,1.421-3.54,3.423-4.67,5.651c-1.75,3.448-2.746,7.132-3.321,10.942c-0.208,1.376,0.629,2.537,2.032,2.771
		c1.194,0.198,2.41-0.745,2.63-2.013c0.022-0.125,0.044-0.249,0.064-0.373c0.033-0.185,0.064-0.37,0.098-0.555
		c0.132-0.742,0.272-1.483,0.448-2.215c0.62-2.563,1.443-5.055,2.772-7.354c0.033-0.055,0.066-0.111,0.103-0.164
		c0.061-0.097,0.128-0.191,0.19-0.288c0.031,0.018,0.061,0.036,0.092,0.053v0.059v1.095c0,1.18-0.001,2.358,0.002,3.538v6.836h0.002
		c-0.003,3.207-0.006,6.413-0.006,9.62c0.093,1.903-0.005,3.817,0.039,5.724c0.068,3,1.479,5.403,3.805,6.395
		c0.264,0.113,0.54,0.208,0.828,0.283c1.143,0.299,2.397,0.234,3.601,0.231c1.061-0.003,2.017-0.172,2.851-0.493
		c2.116-0.811,3.454-2.586,3.762-5.067c0.011-5.565,0.005-11.128,0.001-16.693h0.002v-6.836c0.001-0.237,0.001-0.473,0.001-0.71
		c0.002-0.812,0.001-1.622,0.001-2.434V28.99c0.031-0.018,0.061-0.036,0.092-0.053c0.098,0.151,0.203,0.297,0.293,0.452
		c1.329,2.298,2.153,4.79,2.772,7.354c0.214,0.885,0.374,1.783,0.53,2.681c0.027,0.154,0.053,0.308,0.08,0.462
		c0.22,1.268,1.436,2.211,2.63,2.013C47.244,41.664,48.082,40.503,47.874,39.127z"/>
</g>
</svg>
