<?xml version="1.0" encoding="utf-8"?>
<!-- Generator: Adobe Illustrator 18.0.0, SVG Export Plug-In . SVG Version: 6.00 Build 0)  -->
<!DOCTYPE svg PUBLIC "-//W3C//DTD SVG 1.1//EN" "http://www.w3.org/Graphics/SVG/1.1/DTD/svg11.dtd">
<svg version="1.1" id="Layer_1" xmlns="http://www.w3.org/2000/svg" xmlns:xlink="http://www.w3.org/1999/xlink" x="0px" y="0px"
	 width="64px" height="64px" viewBox="0 0 64 64" enable-background="new 0 0 64 64" xml:space="preserve">
<path fill="#2D3E4F" d="M63.178,41.431c-0.344-0.175-0.869-0.128-1.266-0.009c-0.48,0.143-0.893,0.503-1.365,0.692
	c-1.088,0.431-1.673,0.332-2.23-0.664c-0.683-1.228-1.243-2.538-1.731-3.86c-0.647-1.75-1.414-3.398-2.853-4.656
	c-1.384-1.21-2.927-1.652-4.695-0.977c-0.875,0.336-1.76,0.655-2.595,1.075c-1.402,0.704-2.775,1.462-4.143,2.231
	c-1.044,0.591-1.984,0.655-2.494,0.074c-0.271-0.307-0.525-0.63-0.808-0.983c-0.87-0.796-3.192-3.098-6.301-6.361
	c-0.099-0.095-0.197-0.19-0.296-0.286c-0.392-0.892-0.296-1.396-0.122-2.346c0.196-1.062,0.175-2.15,0.137-3.222
	c-0.071-2.105-0.47-4.191-1.213-6.163c-0.212-0.566-0.536-1.048-0.932-1.429c-0.964-0.938-2.365-1.282-3.656-0.811
	c-1.697,0.617-2.709,2.183-2.462,3.863c0.031,0.222,0.085,0.444,0.163,0.667c0.629,1.808,0.973,3.701,0.853,5.611
	c-0.001,0.01-0.001,0.019-0.002,0.03c-0.127,2.044-3.581,0.224-4.444-0.316c-0.336-0.21-0.489-0.585-0.558-0.961
	c-0.073-0.4-0.025-0.844,0.063-1.247c0.764-3.472-2.988-5.151-5.658-5.41c-2.17-0.211-4.573-1.881-6.726-0.769
	c-1.346,0.695-2.618,1.644-3.71,2.697c-2.364,2.283-3.935,4.979-3.5,8.455c0.846,6.762,8.137,9.54,12.82,6.671
	c0.928-0.569,1.997-1.059,3.062-0.575c1.553,0.706,1.537,2.619,2.262,3.945c3.151,5.776,3.939,5.904,9.017,9.92
	c1.627,1.286,3.359,2.642,5.347,3.31c2.212,0.743,4.177,1.154,6.51,0.565c2.49-0.628,4.259-2.284,6.245-3.808
	c0.51-0.391,1.005-0.8,1.487-1.226c0.908-0.802,1.72-1.685,2.576-2.539c0.181,0.613,1.75,1.542,2.223,1.952
	c1.089,0.944,1.807,1.529,2.312,2.926c0.397,1.099,1.135,2.223,2.471,1.862c0.689-0.186,1.317-0.658,1.929-1.065
	c0.521-0.348,1.004-0.744,1.518-1.108c0.102-0.072,0.206-0.143,0.311-0.212c0.617-0.405,1.207-0.861,1.62-1.483
	c0.598-0.9,0.871-1.977,1.08-3.024C63.481,42.173,63.391,41.543,63.178,41.431z"/>
</svg>
