<?xml version="1.0" encoding="utf-8"?>
<!-- Generator: Adobe Illustrator 18.0.0, SVG Export Plug-In . SVG Version: 6.00 Build 0)  -->
<!DOCTYPE svg PUBLIC "-//W3C//DTD SVG 1.1//EN" "http://www.w3.org/Graphics/SVG/1.1/DTD/svg11.dtd">
<svg version="1.1" id="Layer_1" xmlns="http://www.w3.org/2000/svg" xmlns:xlink="http://www.w3.org/1999/xlink" x="0px" y="0px"
	 width="64px" height="64px" viewBox="0 0 64 64" enable-background="new 0 0 64 64" xml:space="preserve">
<g>
	<path fill="#2E79BE" d="M20.062,52.298c-0.74-0.744-1.224-1.726-1.382-2.83c-0.202-1.41,0.169-2.857,1.018-3.97
		c1-1.31,2.522-2.061,4.178-2.061c0.718,0,1.419,0.148,2.032,0.424L20.062,52.298z"/>
	<path fill="#2E79BE" d="M27.665,45.076c1.55,1.545,2.102,4.356,0.481,6.639c-0.999,1.407-2.564,2.215-4.293,2.215
		c-0.719,0-1.419-0.148-2.032-0.425L27.665,45.076z"/>
	<path fill="#2E79BE" d="M26.439,40.397c-1.427-0.465-2.436-1.347-3.072-2.679c-0.933-1.954-0.734-3.821,0.591-5.55
		c0.901-1.174,2.089-1.822,3.617-1.969L26.439,40.397z"/>
	<path fill="#2E79BE" d="M28.556,40.649l1.136-10.21c1.246,0.392,2.179,1.135,2.841,2.256c1.096,1.856,1.069,3.738-0.081,5.594
		C31.636,39.605,30.065,40.547,28.556,40.649z"/>
	<path fill="#2E79BE" d="M42.168,51.099c-0.527,0.165-1.064,0.249-1.596,0.249h0c-1.909,0-3.719-1.12-4.554-2.744l9.814-2.984
		c0.109,0.928-0.094,1.993-0.576,2.921C44.806,49.408,43.905,50.556,42.168,51.099z"/>
	<path fill="#2E79BE" d="M38.814,41.163c0.57-0.206,1.169-0.311,1.781-0.311c1.98,0,3.787,1.09,4.627,2.723l-9.832,2.99
		c-0.099-0.825,0.055-1.783,0.441-2.64C36.244,43.009,37.096,41.785,38.814,41.163z"/>
	<path fill="#2D3E4F" d="M45.994,13.136h-0.059c0-3.938-0.04-6.222,0.021-9.961c0.019-0.821-0.169-1.455-0.674-1.929
		c-0.268-0.258-0.643-0.376-1.009-0.376H32H19.727c-0.366,0-0.742,0.117-1.009,0.376c-0.505,0.474-0.692,1.108-0.674,1.929
		c0.061,3.739,0.021,6.023,0.021,9.961h-0.059c-5.619,0-10.18,4.56-10.18,10.189V52.95c0,5.619,4.56,10.18,10.18,10.18H32h13.994
		c5.619,0,10.18-4.56,10.18-10.18V23.325C56.173,17.697,51.613,13.136,45.994,13.136z M37.685,4.56h4.413v5.835h-4.413V4.56z
		 M29.817,4.56H32h2.183v5.835H32h-2.183V4.56z M21.903,4.56h4.413v5.835h-4.413V4.56z M51.732,52.95
		c0,0.357-0.031,0.692-0.099,1.04c-0.317,1.742-1.425,3.204-2.948,4.025c-0.803,0.425-1.711,0.674-2.692,0.674H32H18.006
		c-0.981,0-1.889-0.249-2.692-0.674c-1.523-0.821-2.631-2.284-2.948-4.025c-0.068-0.347-0.099-0.683-0.099-1.04V23.325
		c0-3.166,2.572-5.739,5.739-5.739H32h13.994c3.166,0,5.739,2.572,5.739,5.739V52.95z"/>
</g>
</svg>
