<?xml version="1.0" encoding="utf-8"?>
<!-- Generator: Adobe Illustrator 18.0.0, SVG Export Plug-In . SVG Version: 6.00 Build 0)  -->
<!DOCTYPE svg PUBLIC "-//W3C//DTD SVG 1.1//EN" "http://www.w3.org/Graphics/SVG/1.1/DTD/svg11.dtd">
<svg version="1.1" id="Layer_1" xmlns="http://www.w3.org/2000/svg" xmlns:xlink="http://www.w3.org/1999/xlink" x="0px" y="0px"
	 width="64px" height="64px" viewBox="0 0 64 64" enable-background="new 0 0 64 64" xml:space="preserve">
<g>
	<path fill="#2E79BE" d="M48.728,22.939v0.068c0.09,1.173-0.406,2.109-1.398,2.763c-1.308,0.846-2.842,0.553-4.026-0.699
		c-0.124-0.124-0.609-0.429-0.801-0.395c-0.214,0.045-0.35,0.372-0.406,0.643c-0.011,0.09-0.023,0.169-0.023,0.225
		c0.011,0.891,0.079,1.782,0.124,2.673c0,0.124,0.011,0.237,0.011,0.361c0.023,0.767,0.011,1.545,0,2.346v0.485
		c-0.214-0.011-0.451-0.023-0.688-0.034c-1.376-0.068-2.752-0.135-4.128-0.18c-0.35-0.011-0.71-0.023-1.06-0.034
		c-0.045,0-0.113,0-0.169,0.023c-0.225,0.045-0.485,0.18-0.519,0.305c-0.135,0.598,0.575,1.128,0.88,1.534
		c0.35,0.462,0.586,0.97,0.632,1.556c0.068,0.913-0.293,1.827-0.97,2.447c-1.286,1.173-3.259,1.026-4.376-0.305
		c-1.083-1.297-0.868-3.068,0.462-4.331c0.462-0.429,0.417-0.959-0.023-1.15c-0.113-0.045-0.259-0.079-0.429-0.079
		c-0.316,0-0.632,0.011-0.947,0.023c-0.485,0.023-0.959,0.056-1.443,0.068c-1.139,0.023-2.278,0.011-3.485,0.011
		c0-0.101,0.011-0.225,0.011-0.338c0.011-0.271,0.034-0.575,0.045-0.868c0.045-0.981,0.101-1.974,0.147-2.955
		c0.011-0.395,0.192-1.263,0.068-1.827c-0.045-0.214-0.124-0.383-0.271-0.474c-0.643-0.417-1.771,1.038-2.357,1.252
		c-0.891,0.316-1.895,0.214-2.684-0.304c-0.936-0.62-1.421-1.692-1.342-2.774c0.023-0.35,0.113-0.71,0.271-1.06
		c0.643-1.353,2.21-2.075,3.631-1.556c0.553,0.214,1.004,0.699,1.522,1.038c0.677,0.417,1.139,0.406,1.218-0.485
		c0.011-0.079,0.011-0.147,0.011-0.226c0.011-0.406-0.034-0.812-0.068-1.218c-0.068-1.466-0.135-2.921-0.192-4.443
		c1.714-0.09,3.338-0.192,4.951-0.259c0.135-0.011,0.271-0.011,0.406-0.023c0.305-0.011,0.654-0.124,0.936-0.034
		c0.147,0.034,0.271,0.135,0.361,0.327c0.304,0.62-0.327,0.812-0.632,1.139c-0.913,0.947-1.162,2.301-0.609,3.462
		c0.564,1.218,1.737,1.872,3.124,1.737c1.241-0.113,2.267-1.004,2.594-2.256c0.35-1.32-0.113-2.346-1.083-3.237
		c-0.452-0.402-0.443-0.955,0.158-1.105c0.102-0.034,0.214-0.045,0.293-0.045c0.316,0,0.632,0,0.947,0.023
		c0.474,0.023,0.959,0.056,1.432,0.09c1.105,0.056,2.21,0.124,3.372,0.18h0.113c-0.034,0.925-0.079,1.827-0.124,2.718
		c-0.045,0.891-0.068,1.771-0.09,2.661c0,0.068-0.011,0.147-0.011,0.248c0,0.462,0.045,1.139,0.507,1.173
		c0.361,0.023,0.744-0.519,0.981-0.733c0.902-0.868,1.951-1.128,3.124-0.722C47.916,20.785,48.604,21.687,48.728,22.939z"/>
	<path fill="#2D3E4F" d="M58.459,20.369c-1.79-8.611-6.975-14.645-15.41-17.938c-5.037-1.962-10.612-2.265-16.533-0.892
		c-5.069,1.178-8.696,3.4-11.763,7.205c-3.052,3.796-4.559,8.005-4.481,12.527c0.016,0.679,0.071,1.367,0.16,2.043
		c-0.069,0.245-0.184,0.498-0.35,0.77c-0.069,0.111-0.137,0.231-0.193,0.342c-0.497,0.895-0.985,1.781-1.482,2.682
		c-0.912,1.663-1.855,3.383-2.792,5.067c-0.575,1.038-0.697,2.18-0.351,3.435c0.189,0.64,0.496,1.224,0.942,1.776
		c0.62,0.734,1.457,1.272,2.55,1.64c-0.349,0.906-0.301,1.729,0.146,2.448c-0.014,0.073-0.026,0.149-0.037,0.229
		c-0.174,1.301,0.256,2.416,1.245,3.236c-0.682,2.603,0.283,5.451,2.395,6.986c0.64,0.458,1.334,0.849,2.11,1.182
		c0.322,0.133,0.688,0.283,1.082,0.406c2.486,0.81,5.014,1.123,7.458,1.425L23.669,55c3.329,0.44,4.811,3.359,6.274,6.843
		c0.374,0.889,1.238,1.463,2.202,1.463c0.377,0,0.753-0.091,1.088-0.262c1.086-0.557,5.026-2.588,8.304-4.278l2.347-1.21
		c2.349-1.219,4.779-2.48,7.223-3.739l0.258-0.133l0.267-0.252c0.467-0.466,0.959-1.288,0.651-2.562
		c-0.375-1.575-0.633-2.784-0.542-4.018c0.128-1.706,0.628-3.424,1.573-5.406c0.491-1.034,1.014-2.084,1.521-3.101l0.031-0.064
		c0.622-1.247,1.265-2.535,1.878-3.853C58.871,29.852,59.447,25.121,58.459,20.369z M47.925,50.717
		c-1.657,0.856-3.301,1.708-4.911,2.543l-9.973,5.144c-1.397-3.005-3.829-6.923-8.834-7.584l-0.537-0.067
		c-2.353-0.291-4.575-0.566-6.696-1.257c-0.23-0.073-0.479-0.175-0.752-0.287c-0.448-0.194-0.872-0.433-1.257-0.707
		c-0.699-0.512-1.029-1.602-0.77-2.526l0.032-0.101c0.046-0.145,0.098-0.308,0.145-0.489c0.354-1.348-0.088-2.616-1.184-3.429
		c0.245-0.679,0.186-1.352-0.177-2.004c0.233-0.459,0.658-1.416,0.379-2.531c-0.292-1.148-1.15-1.889-2.551-2.202l-0.46-0.106
		c-0.486-0.134-0.805-0.282-0.936-0.427c-0.06-0.077-0.102-0.158-0.13-0.251C9.27,34.274,9.284,34.248,9.3,34.219
		c0.942-1.692,1.888-3.416,2.807-5.093l0.233-0.422c0.415-0.752,0.83-1.506,1.255-2.27l0.082-0.15
		c0.518-0.85,0.837-1.693,0.976-2.576l0.051-0.324l-0.05-0.324c-0.095-0.617-0.151-1.251-0.167-1.885
		c-0.06-3.541,1.101-6.743,3.551-9.79c2.467-3.06,5.288-4.778,9.433-5.742c5.09-1.178,9.801-0.939,14.048,0.713
		c7.022,2.742,11.333,7.745,12.816,14.87c0.799,3.845,0.325,7.689-1.409,11.426c-0.582,1.249-1.214,2.517-1.831,3.754
		c-0.526,1.053-1.068,2.143-1.584,3.229c-1.175,2.466-1.802,4.66-1.971,6.904C47.426,48.085,47.675,49.565,47.925,50.717z"/>
</g>
</svg>
