<?xml version="1.0" encoding="utf-8"?>
<!-- Generator: Adobe Illustrator 18.0.0, SVG Export Plug-In . SVG Version: 6.00 Build 0)  -->
<!DOCTYPE svg PUBLIC "-//W3C//DTD SVG 1.1//EN" "http://www.w3.org/Graphics/SVG/1.1/DTD/svg11.dtd">
<svg version="1.1" id="Layer_1" xmlns="http://www.w3.org/2000/svg" xmlns:xlink="http://www.w3.org/1999/xlink" x="0px" y="0px"
	 width="64px" height="64px" viewBox="0 0 64 64" enable-background="new 0 0 64 64" xml:space="preserve">
<g>
	<g>
		<path fill="#2D3E4F" d="M30.09,36.25c-0.29-2.205-0.964-4.304-1.617-6.334c-0.07-0.219-0.139-0.436-0.208-0.651
			c-0.742,0.603-1.486,1.191-2.223,1.773c0.607,1.892,1.166,3.694,1.413,5.56c0.115,0.875,0.151,1.689,0.111,2.489
			c-0.244,4.814-1.467,7.974-3.847,9.945c-2.551,2.112-5.986,2.838-9.577,3.452c-0.302,0.052-0.611,0.108-0.926,0.164
			c-1.329,0.24-2.703,0.488-4,0.488c-1.473,0-2.564-0.319-3.434-1.003c-3.798-2.992-2.918-8.974-2.365-11.408
			c0.94-4.128,2.489-8.236,3.867-11.762c1.09-2.79,2.373-5.685,4.364-7.973c1.765-2.025,4.629-3.614,7.295-4.048
			c0.271-0.043,0.538-0.065,0.793-0.065c1.103,0,2.069,0.407,2.948,1.245c0.825,0.787,1.159,1.468,1.274,2.606
			c0.04,0.387,0.075,0.776,0.111,1.164c0.033,0.362,0.066,0.729,0.104,1.097c0.008,0.001,0.016,0.001,0.023,0.002l0.034,0.002
			c0.458,0,1.451-0.736,2.444-1.799c-0.023-0.245-0.047-0.491-0.071-0.735c-0.179-1.767-0.802-3.041-2.086-4.263
			c-1.379-1.313-2.987-1.978-4.781-1.978c-0.398,0-0.808,0.034-1.219,0.1c-3.291,0.535-6.691,2.421-8.873,4.925
			c-2.258,2.593-3.659,5.738-4.836,8.751c-1.413,3.615-3.001,7.834-3.983,12.139c-0.417,1.833-0.823,4.598-0.388,7.366
			c0.452,2.882,1.698,5.144,3.7,6.721c1.345,1.058,3.006,1.573,5.079,1.573c1.535,0,3.096-0.282,4.472-0.53
			c0.306-0.056,0.607-0.11,0.9-0.16c3.803-0.65,7.772-1.497,10.825-4.026c3.934-3.256,4.628-8.327,4.807-11.856
			C30.268,38.257,30.226,37.286,30.09,36.25z"/>
		<path fill="#2D3E4F" d="M63.174,40.134c-0.981-4.306-2.569-8.524-3.981-12.139c-1.178-3.012-2.579-6.158-4.837-8.751
			c-2.181-2.502-5.581-4.39-8.873-4.925c-0.411-0.066-0.82-0.1-1.218-0.1c-1.794,0-3.404,0.665-4.783,1.978
			c-1.282,1.222-1.907,2.496-2.084,4.262c-0.024,0.228-0.046,0.458-0.066,0.688c0.599,0.604,1.274,1.208,1.98,1.768
			c0.129,0.103,0.261,0.17,0.503,0.197c0.042-0.41,0.08-0.817,0.117-1.22c0.035-0.388,0.071-0.776,0.11-1.164
			c0.116-1.137,0.449-1.819,1.275-2.605c0.88-0.837,1.844-1.245,2.948-1.245c0.255,0,0.521,0.022,0.791,0.065
			c2.667,0.434,5.531,2.023,7.295,4.048c1.993,2.287,3.276,5.184,4.366,7.971c1.377,3.527,2.925,7.634,3.865,11.763
			c0.555,2.434,1.433,8.416-2.365,11.408c-0.435,0.342-0.924,0.593-1.49,0.758c-0.565,0.166-1.207,0.245-1.944,0.245
			c-1.295,0-2.67-0.248-3.998-0.488c-0.315-0.057-0.623-0.112-0.926-0.164c-3.591-0.614-7.026-1.34-9.578-3.452
			c-2.38-1.971-3.602-5.131-3.846-9.945c-0.041-0.8-0.005-1.614,0.111-2.489c0.242-1.843,0.793-3.624,1.391-5.491
			c-0.056-0.044-0.111-0.087-0.167-0.131c-0.684-0.536-1.373-1.078-2.06-1.632c-0.06,0.19-0.122,0.379-0.184,0.572
			c-0.651,2.031-1.326,4.13-1.617,6.335c-0.137,1.037-0.179,2.008-0.129,2.971c0.179,3.53,0.871,8.6,4.806,11.856
			c3.055,2.529,7.023,3.376,10.827,4.026c0.294,0.05,0.593,0.104,0.899,0.16c1.377,0.249,2.937,0.53,4.472,0.53
			c2.073,0,3.735-0.515,5.079-1.573c2.003-1.577,3.248-3.839,3.701-6.721C63.998,44.732,63.592,41.967,63.174,40.134z"/>
		<g>
			<path fill="#2E79BE" d="M57.49,41.092c-0.392-0.04-1.223-0.124-2.313-0.234c-0.387-0.041-0.795-0.074-1.178-0.166
				c-0.192-0.046-0.375-0.109-0.538-0.192c-0.089-0.047-0.123-0.07-0.234-0.149l-0.006-0.006l-0.013-0.01l-0.025-0.022
				c-0.018-0.013-0.034-0.029-0.051-0.045c-0.034-0.029-0.066-0.064-0.099-0.098c-0.261-0.277-0.472-0.679-0.724-1.135
				c-0.253-0.453-0.524-0.905-0.811-1.35c-0.286-0.445-0.587-0.881-0.897-1.301c-0.308-0.416-0.624-0.829-0.985-1.223
				c-0.36-0.391-0.77-0.758-1.229-1.044c-0.459-0.283-0.926-0.477-1.353-0.607c-0.428-0.131-0.818-0.209-1.158-0.265
				c-0.129-0.022-0.25-0.039-0.365-0.054c-0.122-0.561-0.321-1.118-0.586-1.629l-0.051-0.099l-0.059-0.103l-0.12-0.204
				c-0.019-0.031-0.044-0.074-0.058-0.097l-0.048-0.074l-0.095-0.147l-0.024-0.037l-0.012-0.018l-0.037-0.052l-0.059-0.082
				l-0.121-0.166c-0.081-0.109-0.166-0.211-0.249-0.317c-0.336-0.413-0.692-0.783-1.044-1.125c-0.707-0.681-1.402-1.252-2.001-1.78
				c-0.121-0.105-0.244-0.215-0.366-0.326c0.001,0,0.004,0,0.005-0.001c0.312-0.064,0.646-0.12,0.996-0.167
				c0.349-0.046,0.713-0.082,1.087-0.105c0.186-0.011,0.375-0.023,0.565-0.027c0.191-0.006,0.382-0.011,0.574-0.01
				c0.192-0.001,0.384,0.001,0.576,0.008c0.192,0.002,0.384,0.012,0.575,0.023c0.381,0.019,0.756,0.05,1.12,0.087
				c0.364,0.034,0.721,0.081,1.066,0.12c0.344,0.039,0.675,0.071,0.985,0.089c0.309,0.019,0.596,0.023,0.851,0.014
				c0.255-0.01,0.477-0.031,0.66-0.058c0.082-0.012,0.207-0.036,0.317-0.059c0.139-0.028,0.23-0.162,0.204-0.302
				c-0.023-0.128-0.137-0.22-0.267-0.214c-0.101,0.004-0.216,0.007-0.291,0.006c-0.33-0.005-0.8-0.054-1.363-0.182
				c-0.282-0.063-0.586-0.144-0.911-0.236c-0.327-0.092-0.673-0.196-1.043-0.292c-0.37-0.099-0.754-0.195-1.148-0.279
				c-0.093-0.021-0.186-0.04-0.279-0.06c0.012-0.042,0.028-0.087,0.045-0.134c0.013-0.029,0.025-0.059,0.039-0.089l0.017-0.039
				l0.004-0.01l0.01-0.016l0.018-0.033c0.07-0.131,0.173-0.279,0.292-0.437c0.121-0.158,0.263-0.33,0.414-0.518
				c0.075-0.094,0.15-0.192,0.23-0.3l0.06-0.085l0.047-0.072c0.044-0.063,0.076-0.114,0.111-0.172
				c0.277-0.456,0.463-0.924,0.596-1.376c0.068-0.231,0.115-0.446,0.153-0.656c0.039-0.208,0.064-0.404,0.085-0.582
				c0.04-0.359,0.057-0.651,0.069-0.855c0.001-0.008,0.001-0.017,0.001-0.025v-0.018c0-0.16-0.117-0.295-0.277-0.317
				c-0.166-0.023-0.32,0.085-0.356,0.246c-0.002,0.007-0.004,0.016-0.006,0.023c-0.045,0.196-0.108,0.475-0.199,0.797
				c-0.045,0.161-0.098,0.332-0.162,0.509c-0.063,0.174-0.138,0.359-0.222,0.534c-0.173,0.358-0.399,0.724-0.66,1.022
				c-0.03,0.036-0.068,0.077-0.095,0.105l-0.06,0.064l-0.05,0.048c-0.07,0.068-0.149,0.141-0.227,0.213
				c-0.161,0.144-0.332,0.291-0.504,0.452c-0.172,0.162-0.341,0.333-0.497,0.53l-0.024,0.028l-0.011,0.014l-0.016,0.022
				c-0.021,0.028-0.041,0.057-0.062,0.085c-0.039,0.056-0.07,0.104-0.104,0.157c-0.065,0.105-0.124,0.209-0.174,0.317
				c-0.047,0.099-0.087,0.198-0.121,0.297c-0.173-0.023-0.346-0.041-0.519-0.059c-1.594-0.167-3.17,0.592-4.592-0.533
				c-1.458-1.153-2.387-2.749-3.417-4.301c-0.046-0.074-0.08-0.146-0.117-0.213c-0.017-0.033-0.035-0.065-0.051-0.097
				c-0.018-0.031-0.033-0.06-0.043-0.085c-0.023-0.051-0.045-0.098-0.065-0.141c-0.014-0.029-0.027-0.056-0.042-0.088V8.206h-2.235
				h-0.386H29.52v11.299c-0.016,0.033-0.028,0.059-0.042,0.088c-0.021,0.043-0.042,0.091-0.065,0.141
				c-0.011,0.024-0.025,0.053-0.043,0.085c-0.016,0.031-0.034,0.064-0.051,0.097c-0.037,0.066-0.071,0.139-0.117,0.212
				c-1.07,1.719-3.053,4.951-5.12,4.792c-0.173-0.013-0.352-0.028-0.534-0.031c-0.366-0.016-0.75-0.017-1.145-0.005
				c-0.395,0.012-0.801,0.037-1.21,0.079c-0.173,0.018-0.347,0.036-0.52,0.059c-0.034-0.099-0.074-0.198-0.121-0.297
				c-0.05-0.108-0.109-0.211-0.174-0.317c-0.034-0.053-0.065-0.101-0.104-0.157c-0.021-0.028-0.041-0.057-0.062-0.085l-0.016-0.022
				l-0.011-0.014l-0.024-0.028c-0.156-0.197-0.325-0.369-0.497-0.53c-0.172-0.161-0.343-0.308-0.504-0.452
				c-0.079-0.071-0.157-0.145-0.227-0.213l-0.05-0.048l-0.06-0.064c-0.028-0.028-0.065-0.069-0.095-0.105
				c-0.261-0.298-0.487-0.665-0.66-1.022c-0.085-0.175-0.159-0.36-0.222-0.534c-0.064-0.176-0.117-0.348-0.162-0.509
				c-0.092-0.323-0.155-0.602-0.199-0.797c-0.002-0.007-0.004-0.016-0.006-0.023c-0.036-0.162-0.191-0.269-0.356-0.246
				c-0.159,0.022-0.277,0.157-0.277,0.317v0.018c0,0.008,0,0.017,0.001,0.025c0.012,0.204,0.029,0.497,0.069,0.855
				c0.021,0.179,0.046,0.375,0.085,0.582c0.039,0.21,0.086,0.425,0.153,0.656c0.133,0.452,0.319,0.921,0.596,1.376
				c0.035,0.058,0.068,0.109,0.111,0.172l0.047,0.072l0.06,0.085c0.08,0.108,0.155,0.205,0.23,0.3
				c0.151,0.188,0.294,0.36,0.414,0.518c0.12,0.158,0.222,0.307,0.292,0.437l0.018,0.033l0.01,0.016l0.004,0.01l0.017,0.039
				c0.013,0.03,0.025,0.06,0.039,0.089c0.017,0.047,0.033,0.092,0.045,0.134c-0.093,0.021-0.186,0.04-0.279,0.06
				c-0.394,0.085-0.778,0.18-1.148,0.279c-0.37,0.097-0.715,0.201-1.043,0.292c-0.325,0.092-0.63,0.173-0.911,0.236
				c-0.563,0.128-1.033,0.178-1.363,0.182c-0.075,0.001-0.19-0.002-0.291-0.006c-0.131-0.006-0.244,0.086-0.267,0.214
				c-0.025,0.14,0.065,0.274,0.204,0.302c0.11,0.023,0.234,0.047,0.317,0.059c0.182,0.027,0.405,0.048,0.66,0.058
				c0.255,0.008,0.541,0.005,0.851-0.014c0.309-0.018,0.64-0.051,0.985-0.089c0.344-0.039,0.702-0.086,1.066-0.12
				c0.364-0.037,0.739-0.068,1.12-0.087c0.191-0.011,0.383-0.021,0.575-0.023c0.192-0.007,0.384-0.01,0.576-0.008
				c0.192-0.001,0.383,0.004,0.574,0.01c0.191,0.004,0.379,0.016,0.565,0.027c0.375,0.023,0.738,0.059,1.087,0.105
				c0.349,0.047,0.684,0.103,0.996,0.167c0.001,0.001,0.004,0.001,0.005,0.001c-0.122,0.111-0.245,0.221-0.366,0.326
				c-0.599,0.528-1.294,1.098-2.001,1.78c-0.352,0.342-0.708,0.712-1.044,1.125c-0.083,0.105-0.168,0.208-0.249,0.317l-0.121,0.166
				l-0.059,0.082l-0.037,0.052l-0.012,0.018l-0.024,0.037l-0.095,0.147l-0.048,0.074c-0.014,0.023-0.039,0.065-0.058,0.097
				l-0.12,0.204l-0.059,0.103l-0.051,0.099c-0.265,0.511-0.464,1.068-0.586,1.629c-0.115,0.016-0.236,0.033-0.365,0.054
				c-0.34,0.056-0.73,0.134-1.158,0.265c-0.428,0.129-0.894,0.324-1.353,0.607c-0.459,0.286-0.869,0.652-1.229,1.044
				c-0.361,0.394-0.677,0.807-0.985,1.223c-0.309,0.421-0.61,0.857-0.897,1.301c-0.286,0.445-0.558,0.897-0.811,1.35
				c-0.251,0.456-0.463,0.858-0.724,1.135c-0.033,0.034-0.065,0.069-0.099,0.098c-0.017,0.016-0.033,0.031-0.051,0.045l-0.025,0.022
				l-0.013,0.01l-0.006,0.006c-0.111,0.079-0.145,0.102-0.234,0.149c-0.163,0.083-0.346,0.146-0.538,0.192
				c-0.383,0.092-0.791,0.124-1.178,0.166c-1.09,0.11-1.921,0.195-2.313,0.234c-0.139,0.014-0.242,0.134-0.234,0.273
				c0.004,0.069,0.034,0.132,0.081,0.176c0.046,0.045,0.11,0.071,0.179,0.071c0.394,0,1.23,0.001,2.325,0.002
				c0.383-0.002,0.812,0.011,1.3-0.052c0.243-0.033,0.501-0.088,0.762-0.19c0.122-0.045,0.295-0.135,0.378-0.184l0.105-0.068
				c0.033-0.021,0.062-0.042,0.092-0.064c0.06-0.044,0.116-0.091,0.173-0.138c0.445-0.387,0.737-0.859,1.02-1.259
				c0.21-0.3,0.433-0.597,0.66-0.891c0.022,0.097,0.045,0.195,0.069,0.298c0.051,0.271,0.103,0.567,0.129,0.887
				c0.034,0.319,0.045,0.662,0.045,1.017c-0.001,0.356-0.024,0.726-0.058,1.104c-0.039,0.375-0.094,0.766-0.16,1.138
				c-0.075,0.402-0.152,0.77-0.243,1.152c-0.092,0.377-0.19,0.749-0.29,1.108c-0.201,0.719-0.406,1.391-0.58,1.968
				c-0.173,0.579-0.314,1.063-0.407,1.405c-0.037,0.138-0.069,0.251-0.092,0.338c-0.03,0.111,0.033,0.225,0.143,0.26
				c0.108,0.034,0.224-0.022,0.263-0.128c0.033-0.083,0.074-0.193,0.124-0.325c0.126-0.326,0.312-0.79,0.541-1.346
				c0.23-0.557,0.503-1.206,0.779-1.915c0.138-0.354,0.275-0.724,0.41-1.103c0.131-0.377,0.26-0.785,0.371-1.165
				c0.115-0.41,0.213-0.806,0.295-1.213c0.079-0.404,0.144-0.807,0.186-1.202c0.04-0.395,0.066-0.782,0.065-1.152
				c0.005-0.369-0.019-0.721-0.047-1.048c-0.019-0.162-0.039-0.319-0.059-0.468c-0.027-0.147-0.052-0.289-0.076-0.42
				c-0.03-0.132-0.058-0.255-0.085-0.37c-0.025-0.106-0.058-0.209-0.085-0.302c0.321-0.35,0.638-0.684,0.95-0.959
				c0.324-0.286,0.645-0.51,0.955-0.66c0.313-0.147,0.634-0.248,0.955-0.308c0.305-0.059,0.601-0.089,0.872-0.108
				c0.015,0.411,0.048,0.808,0.091,1.194c0.058,0.479,0.115,0.955,0.172,1.428c0.112,0.94,0.225,1.866,0.332,2.762
				c0.109,0.895,0.213,1.762,0.312,2.583c0.024,0.205,0.05,0.407,0.073,0.607l0.018,0.15l0.01,0.074l0.004,0.036l0.002,0.018v-0.013
				l0.001,0.01c0.008,0.099,0.017,0.197,0.027,0.294c0.004,0.048,0.008,0.097,0.012,0.144c0.004,0.046,0.002,0.082,0.004,0.123
				c0.002,0.08,0.005,0.16,0.007,0.238c0,0.08-0.006,0.161-0.01,0.24c-0.002,0.08-0.006,0.16-0.019,0.233
				c-0.01,0.076-0.019,0.152-0.029,0.226c-0.016,0.071-0.031,0.143-0.048,0.213c-0.012,0.071-0.035,0.138-0.058,0.202
				c-0.023,0.065-0.04,0.133-0.068,0.193c-0.057,0.121-0.105,0.244-0.176,0.35c-0.059,0.114-0.139,0.211-0.21,0.311
				c-0.075,0.097-0.161,0.184-0.239,0.271c-0.089,0.08-0.169,0.162-0.256,0.232c-0.091,0.069-0.173,0.139-0.26,0.201
				c-0.088,0.059-0.172,0.116-0.251,0.17c-0.21,0.128-0.399,0.233-0.559,0.317c-0.025,0.013-0.079,0.04-0.143,0.071
				c-0.225,0.112-0.318,0.384-0.208,0.61c0.002,0.004,0.004,0.007,0.006,0.011c0.103,0.21,0.347,0.309,0.567,0.23
				c0.076-0.028,0.14-0.051,0.172-0.064c0.185-0.075,0.407-0.173,0.662-0.3c0.1-0.054,0.205-0.112,0.315-0.173
				c0.11-0.064,0.222-0.141,0.341-0.216c0.116-0.079,0.232-0.174,0.355-0.267c0.116-0.106,0.24-0.211,0.358-0.336
				c0.114-0.127,0.236-0.255,0.338-0.408c0.114-0.146,0.204-0.312,0.301-0.482c0.048-0.086,0.082-0.176,0.124-0.267
				c0.041-0.092,0.081-0.184,0.109-0.28c0.031-0.097,0.063-0.193,0.095-0.291c0.023-0.099,0.046-0.199,0.069-0.301
				c0.025-0.102,0.041-0.204,0.054-0.307c0.013-0.104,0.03-0.207,0.041-0.314c0.007-0.109,0.013-0.219,0.021-0.33
				c0.002-0.054,0.007-0.115,0.008-0.166v-0.44c-0.002-0.106-0.006-0.214-0.01-0.321c-0.006-0.201-0.011-0.405-0.017-0.611
				c-0.024-0.826-0.05-1.699-0.076-2.6c-0.025-0.903-0.053-1.834-0.08-2.782c-0.013-0.471-0.027-0.946-0.04-1.422
				c-0.01-0.457-0.002-0.9,0.036-1.319c0.072-0.846,0.3-1.56,0.694-2.168l0.035-0.057l0.035-0.047l0.068-0.095
				c0.013-0.017,0.017-0.027,0.037-0.052l0.054-0.069l0.11-0.139l0.175-0.201c0.066-0.072,0.137-0.143,0.204-0.215
				c0.277-0.283,0.582-0.549,0.903-0.807c3.067-2.476,6.29-4.812,8.994-7.703c0.049-0.053,0.096-0.105,0.143-0.156
				c0.047,0.052,0.094,0.104,0.143,0.156c2.732,2.957,5.887,5.194,8.994,7.703c0.32,0.259,0.626,0.524,0.903,0.807
				c0.068,0.072,0.138,0.143,0.204,0.215l0.175,0.201l0.11,0.139l0.054,0.069c0.021,0.025,0.024,0.035,0.037,0.052l0.068,0.095
				l0.035,0.047l0.035,0.057c0.394,0.608,0.621,1.322,0.694,2.168c0.039,0.419,0.046,0.863,0.036,1.319
				c-0.013,0.476-0.027,0.951-0.04,1.422c-0.027,0.947-0.054,1.879-0.08,2.782c-0.027,0.901-0.052,1.774-0.076,2.6
				c-0.006,0.207-0.011,0.411-0.017,0.611c-0.004,0.108-0.007,0.215-0.01,0.321v0.44c0.001,0.051,0.006,0.111,0.008,0.166
				c0.007,0.111,0.013,0.221,0.021,0.33c0.011,0.108,0.028,0.21,0.041,0.314c0.013,0.103,0.029,0.205,0.054,0.307
				c0.023,0.101,0.046,0.202,0.069,0.301c0.033,0.098,0.064,0.195,0.095,0.291c0.028,0.097,0.068,0.188,0.109,0.28
				c0.042,0.091,0.076,0.181,0.124,0.267c0.097,0.17,0.187,0.336,0.301,0.482c0.103,0.153,0.225,0.282,0.338,0.408
				c0.117,0.124,0.242,0.23,0.358,0.336c0.123,0.093,0.239,0.188,0.355,0.267c0.118,0.075,0.231,0.152,0.341,0.216
				c0.11,0.06,0.215,0.118,0.315,0.173c0.255,0.127,0.477,0.225,0.662,0.3c0.031,0.013,0.095,0.036,0.172,0.064
				c0.22,0.08,0.464-0.019,0.567-0.23c0.002-0.004,0.004-0.007,0.006-0.011c0.11-0.226,0.017-0.498-0.208-0.61
				c-0.064-0.031-0.117-0.058-0.143-0.071c-0.161-0.083-0.349-0.188-0.559-0.317c-0.08-0.054-0.163-0.111-0.251-0.17
				c-0.087-0.062-0.169-0.132-0.26-0.201c-0.087-0.07-0.167-0.152-0.256-0.232c-0.079-0.087-0.164-0.174-0.239-0.271
				c-0.071-0.099-0.151-0.197-0.21-0.311c-0.071-0.106-0.12-0.23-0.176-0.35c-0.028-0.06-0.045-0.128-0.068-0.193
				c-0.023-0.064-0.046-0.131-0.058-0.202c-0.017-0.07-0.033-0.141-0.048-0.213c-0.01-0.074-0.019-0.15-0.029-0.226
				c-0.013-0.074-0.017-0.153-0.019-0.233c-0.004-0.08-0.01-0.161-0.01-0.24c0.002-0.079,0.005-0.158,0.007-0.238
				c0.001-0.041,0-0.077,0.004-0.123c0.004-0.047,0.008-0.095,0.012-0.144c0.01-0.097,0.018-0.195,0.027-0.294l0.001-0.01v0.013
				l0.002-0.018l0.004-0.036l0.01-0.074l0.018-0.15c0.023-0.199,0.048-0.401,0.073-0.607c0.099-0.822,0.203-1.688,0.312-2.583
				c0.108-0.897,0.22-1.822,0.332-2.762c0.057-0.474,0.114-0.95,0.172-1.428c0.042-0.385,0.076-0.783,0.091-1.194
				c0.272,0.018,0.568,0.048,0.872,0.108c0.32,0.06,0.642,0.161,0.955,0.308c0.309,0.15,0.631,0.373,0.955,0.66
				c0.312,0.275,0.628,0.609,0.95,0.959c-0.027,0.093-0.059,0.196-0.085,0.302c-0.027,0.115-0.054,0.238-0.085,0.37
				c-0.024,0.132-0.05,0.273-0.076,0.42c-0.021,0.149-0.04,0.306-0.059,0.468c-0.028,0.326-0.052,0.679-0.047,1.048
				c-0.001,0.37,0.025,0.756,0.065,1.152c0.042,0.395,0.108,0.799,0.186,1.202c0.082,0.407,0.18,0.804,0.295,1.213
				c0.111,0.379,0.24,0.788,0.371,1.165c0.134,0.379,0.272,0.749,0.41,1.103c0.277,0.709,0.55,1.358,0.779,1.915
				c0.23,0.556,0.416,1.02,0.541,1.346c0.051,0.132,0.092,0.242,0.124,0.325c0.04,0.106,0.156,0.162,0.263,0.128
				c0.11-0.035,0.173-0.149,0.143-0.26c-0.023-0.087-0.054-0.201-0.092-0.338c-0.093-0.342-0.234-0.826-0.407-1.405
				c-0.174-0.578-0.379-1.249-0.58-1.968c-0.1-0.359-0.198-0.731-0.29-1.108c-0.091-0.382-0.168-0.749-0.243-1.152
				c-0.065-0.372-0.121-0.764-0.16-1.138c-0.034-0.378-0.057-0.748-0.058-1.104c0-0.355,0.011-0.698,0.045-1.017
				c0.027-0.32,0.079-0.616,0.129-0.887c0.024-0.104,0.047-0.202,0.069-0.298c0.227,0.294,0.45,0.591,0.66,0.891
				c0.283,0.4,0.575,0.872,1.02,1.259c0.057,0.047,0.112,0.094,0.173,0.138c0.03,0.022,0.059,0.043,0.092,0.064l0.105,0.068
				c0.083,0.048,0.256,0.139,0.378,0.184c0.261,0.102,0.52,0.157,0.762,0.19c0.488,0.063,0.917,0.05,1.3,0.052
				c1.095-0.001,1.931-0.002,2.325-0.002c0.069,0,0.133-0.027,0.179-0.071c0.047-0.045,0.077-0.108,0.081-0.176
				C57.732,41.226,57.629,41.107,57.49,41.092z"/>
		</g>
	</g>
</g>
</svg>
