<?xml version="1.0" encoding="utf-8"?>
<!-- Generator: Adobe Illustrator 18.0.0, SVG Export Plug-In . SVG Version: 6.00 Build 0)  -->
<!DOCTYPE svg PUBLIC "-//W3C//DTD SVG 1.1//EN" "http://www.w3.org/Graphics/SVG/1.1/DTD/svg11.dtd">
<svg version="1.1" id="Layer_1" xmlns="http://www.w3.org/2000/svg" xmlns:xlink="http://www.w3.org/1999/xlink" x="0px" y="0px"
	 width="64px" height="64px" viewBox="0 0 64 64" enable-background="new 0 0 64 64" xml:space="preserve">
<g>
	<path fill="#2E79BE" d="M50.643,35.794c-5.077-0.015-10.151-0.007-15.228-0.007h-1.516v-2.418v0V31.29
		c0.6-0.034,1.063-0.08,1.523-0.078c4.792,0.017,9.581,0.041,14.372,0.063c0.324,0.002,0.651,0.022,0.972-0.01
		c1.175-0.112,2.055-0.919,2.055-1.864c0-1.021-0.914-1.828-2.179-1.833c-5.077-0.015-10.151-0.007-15.228-0.007h-1.516v-3.427
		c0.146-0.285,0.456-0.385,0.96-0.407c2.876-0.117,5.747-0.31,8.62-0.48c1.294-0.076,2.591-0.134,3.882-0.249
		c1.197-0.107,2.008-0.926,1.977-1.916c-0.032-1.002-0.965-1.862-2.074-1.796c-4.046,0.236-8.092,0.507-12.135,0.768
		c-0.375,0.024-0.751,0.061-1.231,0.102c-0.015,0-0.029,0-0.044,0.002c0.01-1.538,0.002-3.21-1.838-3.239
		c-1.93-0.032-1.884,1.74-2.011,3.203H30c-0.353,0-0.626,0.017-0.899-0.002c-4.124-0.278-8.245-0.573-12.371-0.831
		c-0.931-0.061-1.708,0.327-1.981,1.267c-0.244,0.836-0.09,1.677,0.765,2.103c0.487,0.241,1.087,0.31,1.645,0.346
		c4.046,0.266,8.092,0.492,12.137,0.775c0.227,0.017,0.575,0.268,0.704,0.49v3.285h-1.484c-4.994,0-9.99-0.002-14.984,0.005
		c-1.477,0.002-2.418,0.707-2.452,1.808c-0.037,1.085,0.914,1.847,2.374,1.906c0.163,0.007,0.324,0.002,0.487,0.002
		c4.424-0.029,8.85-0.058,13.276-0.085C28.108,31.185,29,31.19,30,31.19v2.179v0v2.413h-1.484c-4.994,0-9.99-0.002-14.984,0.005
		c-1.477,0.002-2.418,0.707-2.452,1.808c-0.037,1.085,0.914,1.847,2.374,1.906c0.163,0.007,0.324,0.002,0.487,0.002
		c4.424-0.029,8.85-0.058,13.276-0.085C28.108,39.411,29,39.416,30,39.416v1.957v0.222v2.683H16.882
		c-0.834,0-1.06,0.414-1.111,0.729v6.018c0.212,3.022,1.477,3.232,1.477,3.232c1.843,1.024,3.661,0.156,4.962-1.282
		c0.921-1.019,1.621-2.228,2.198-3.466c0.351-0.751,0.631-1.455,1.362-1.923c1.326-0.846,2.715-0.848,4.229-0.848V51
		c0,1.077,0.873,1.95,1.95,1.95c1.077,0,1.95-0.873,1.95-1.95v-4.263c0.456,0,0.912-0.015,1.367-0.005
		c0.965,0.022,1.996,0.236,2.883,0.626c0.765,0.336,1.119,0.775,1.543,1.487c0,0,3.02,7.87,7.448,5.411c0,0,1.265-0.21,1.475-3.232
		V45.15c0-0.675-0.434-0.838-0.726-0.873h-13.99v-2.683v-0.222v-1.857c0.6-0.034,1.063-0.08,1.523-0.078
		c4.792,0.017,9.581,0.041,14.372,0.063c0.324,0.002,0.651,0.022,0.972-0.01c1.175-0.112,2.055-0.919,2.055-1.864
		C52.822,36.605,51.908,35.799,50.643,35.794z"/>
	<path fill="#2D3E4F" d="M58.497,0.965H5.491c-2.494,0-4.526,2.033-4.526,4.538v52.995c0,2.505,2.033,4.538,4.526,4.538h53.006
		c2.496,0,4.538-2.033,4.538-4.538V5.503C63.035,2.998,60.993,0.965,58.497,0.965z M59.378,58.497c0,0.484-0.397,0.881-0.881,0.881
		H5.491c-0.285,0-0.538-0.144-0.703-0.354c-0.11-0.153-0.176-0.329-0.176-0.527V17.475c0-2.548,2.076-4.624,4.624-4.624h46.965
		c1.23,0,2.352,0.484,3.176,1.275V58.497z"/>
</g>
</svg>
