<?xml version="1.0" encoding="utf-8"?>
<!-- Generator: Adobe Illustrator 18.0.0, SVG Export Plug-In . SVG Version: 6.00 Build 0)  -->
<!DOCTYPE svg PUBLIC "-//W3C//DTD SVG 1.1//EN" "http://www.w3.org/Graphics/SVG/1.1/DTD/svg11.dtd">
<svg version="1.1" id="Layer_1" xmlns="http://www.w3.org/2000/svg" xmlns:xlink="http://www.w3.org/1999/xlink" x="0px" y="0px"
	 width="64px" height="64px" viewBox="0 0 64 64" enable-background="new 0 0 64 64" xml:space="preserve">
<g>
	<path fill="#2D3E4F" d="M1.397,8.858C1.599,6.283,1.791,3.84,1.993,1.286c2.682,0.167,5.485,0.248,8.268,0.531
		C19.84,2.789,29.417,3.8,38.986,4.878c1.741,0.196,3.483,0.644,5.146,1.208c4.353,1.478,7.087,6.18,6.366,10.717
		c-0.506,3.179-4.159,6.401-7.552,5.496c-3.81-1.018-5.54-4.762-8.146-7.192c-2.789-2.601-6.75-3.139-10.359-3.73
		C16.998,10.158,9.833,9.5,1.857,8.796C1.684,8.78,1.512,8.842,1.397,8.858z"/>
	<path fill="#2D3E4F" d="M57.549,15.649c-0.003,1.056-0.151,2.118-0.415,3.147c-0.261,1.017-1.231,1.583-2.233,1.425
		c-0.92-0.145-1.413-0.844-1.305-2.029c0.218-2.401-0.404-4.588-1.536-6.677c-0.705-1.3-0.297-2.117,1.163-2.334
		c1.243-0.184,2.252,0.26,2.931,1.336C57.138,12.077,57.554,13.854,57.549,15.649z"/>
	<path fill="#2D3E4F" d="M62.603,62.714l-1.873-29.468c-0.217-3.413-0.641-6.928-3.18-9.108c-1.322-1.133-3.153-1.756-5.155-1.756
		c-0.426,0-0.857,0.028-1.283,0.085c-2.562,0.337-4.932,1.602-6.913,2.795c-0.779,0.47-1.425,1.06-1.922,1.756
		c-0.836,1.174-0.803,2.202-0.628,2.858c0.272,1.023,1.078,1.888,2.268,2.436c2.034,0.937,3.986,1.893,5.501,3.285
		c0.587,0.539,1.079,1.151,1.483,1.678c0.671,0.875,0.896,1.697,1.208,2.833l0.026,0.096c0.263,0.956,0.497,1.968,0.696,3.007
		c0.37,1.933,0.629,4,0.793,6.32c0.087,1.243,0.341,11.458,0.213,12.27c0.035-0.22,0.013,0.905,0.013,0.905L62.603,62.714z"/>
	<path fill="#2D3E4F" d="M40.597,57.581c0,0-0.08-0.301-0.219-0.828c-0.034-0.134-0.075-0.274-0.114-0.44
		c-0.039-0.169-0.081-0.352-0.125-0.547c-0.045-0.196-0.092-0.405-0.142-0.624c-0.044-0.218-0.09-0.446-0.137-0.685
		c-0.101-0.477-0.188-0.999-0.279-1.553c-0.094-0.554-0.165-1.142-0.243-1.753c-0.064-0.612-0.134-1.246-0.172-1.895
		c-0.054-0.648-0.067-1.31-0.089-1.974c-0.005-0.663-0.011-1.33,0.016-1.986c0.01-0.658,0.066-1.303,0.104-1.931
		c0.063-0.624,0.108-1.234,0.191-1.805c0.038-0.287,0.074-0.566,0.11-0.837c0.044-0.269,0.087-0.529,0.128-0.778
		c0.077-0.501,0.17-0.956,0.251-1.36c0.041-0.202,0.078-0.392,0.114-0.567c0.04-0.174,0.077-0.333,0.111-0.477
		c0.136-0.577,0.213-0.907,0.213-0.907c0.443-1.887,2.332-3.057,4.219-2.614c1.887,0.443,3.057,2.332,2.614,4.219
		c-0.054,0.23-0.129,0.449-0.223,0.655l-0.031,0.065c0,0-0.119,0.258-0.328,0.709c-0.052,0.113-0.111,0.238-0.174,0.375
		c-0.058,0.138-0.122,0.288-0.189,0.447c-0.136,0.32-0.292,0.68-0.44,1.082c-0.077,0.2-0.157,0.409-0.241,0.625
		c-0.076,0.219-0.154,0.445-0.234,0.677c-0.17,0.464-0.309,0.964-0.473,1.479c-0.139,0.52-0.302,1.057-0.424,1.613
		c-0.139,0.553-0.25,1.122-0.364,1.694c-0.097,0.573-0.206,1.149-0.274,1.721c-0.084,0.571-0.136,1.138-0.191,1.688
		c-0.041,0.551-0.086,1.086-0.104,1.595c-0.02,0.509-0.039,0.993-0.036,1.44c-0.001,0.224-0.002,0.438-0.003,0.642
		c0.004,0.2,0.008,0.39,0.012,0.569c0.004,0.179,0.007,0.347,0.01,0.503c0.004,0.157,0.016,0.313,0.023,0.447
		c0.03,0.544,0.048,0.855,0.048,0.855c0.046,0.817-0.58,1.517-1.397,1.562C41.398,58.722,40.773,58.247,40.597,57.581z"/>
</g>
</svg>
