<?xml version="1.0" encoding="utf-8"?>
<!-- Generator: Adobe Illustrator 18.0.0, SVG Export Plug-In . SVG Version: 6.00 Build 0)  -->
<!DOCTYPE svg PUBLIC "-//W3C//DTD SVG 1.1//EN" "http://www.w3.org/Graphics/SVG/1.1/DTD/svg11.dtd">
<svg version="1.1" id="Layer_1" xmlns="http://www.w3.org/2000/svg" xmlns:xlink="http://www.w3.org/1999/xlink" x="0px" y="0px"
	 width="64px" height="64px" viewBox="0 0 64 64" enable-background="new 0 0 64 64" xml:space="preserve">
<g>
	<path fill="#2D3E4F" d="M31.759,3.616c0.644-1.588,1.815-2.547,3.633-2.702C36.202,0.847,37,0.95,37.777,1.173
		c0.772,0.241,1.495,0.594,2.134,1.096c1.433,1.13,1.883,2.575,1.547,4.255c-0.05,0.248-0.139,0.48-0.211,0.721
		c-0.523,1.694-1.41,3.19-2.579,4.535c-0.586,0.67-1.306,1.178-2.106,1.591c-0.829,0.428-1.715,0.486-2.508,0.216
		c-0.811-0.21-1.518-0.746-1.975-1.56c-0.441-0.785-0.763-1.605-0.883-2.487c-0.235-1.767-0.154-3.504,0.342-5.206
		C31.611,4.093,31.664,3.851,31.759,3.616z"/>
	<path fill="#2D3E4F" d="M51.354,29.924c-0.218-0.236-0.533-0.469-0.982-0.688c-0.015-0.008-0.031-0.015-0.046-0.022
		c-0.033-0.015-0.194-0.108-0.459-0.268c-0.247-0.15-0.586-0.358-0.995-0.617c-0.841-0.527-1.986-1.27-3.257-2.142
		c-3.675-2.52-6.585-5.666-9.757-8.798c-3.059-3.019-7.682-1.85-11.456-1.397c-1.534,0.184-4.735-0.042-5.141,2.01
		c-0.382,1.932-2.22,11.301-2.575,13.239c-0.209,1.143,0.542,2.219,1.657,2.427c1.136,0.212,2.212-0.532,2.437-1.692
		c0.196-1.007,1.878-7.576,2.354-9.965c0.086-0.434,0.473-0.743,0.915-0.731c0.623,0.016,1.493,0.033,2.319,0.051
		c0.209,0.004,0.352,0.213,0.28,0.41c-1.5,4.115-2.285,8.209-2.896,12.541c-0.421,2.983-0.802,6.015,0.489,8.858
		c0.359,0.79,0.783,1.555,1.291,2.291c0.088,0.126,0.145,0.281,0.181,0.449c0.05,0.212,0.063,0.443,0.068,0.653
		c0.015,1.035,0.015,7.264,0.021,8.3c0.004,1.32,0.011,1.442,0.061,2.762c0.043,1.104,0.23,2.526,0.796,3.647
		c0.438,0.865,1.101,1.551,2.095,1.775c1.713,0.381,2.764-0.479,3.41-1.872c1.205-2.595,0.995-5.836,1.013-7.513
		c0.009-0.681,0.018-6.554,0.036-7.233c0.005-0.209,0.018-0.444,0.068-0.659c0.056-0.238,0.744-0.726,0.919-0.95
		c0.333-0.43,0.608-0.902,0.815-1.405c0.69-1.676,0.438-3.749,0.474-5.523c0.045-2.221,0.166-4.443,0.394-6.653
		c0.04-0.397,0.088-0.772,0.142-1.122c0.282-1.785,0.804-2.868,2.07-2.214c0.047,0.022,0.094,0.047,0.142,0.069
		c2.429,1.359,4.622,2.49,6.671,3.438c0.129,0.061,0.26,0.122,0.389,0.18c0.133,0.061,0.266,0.12,0.397,0.178
		c0.144,0.065,0.291,0.126,0.44,0.183c0.564,0.212,1.158,0.359,1.763,0.473c0.021,0.004,0.04,0.009,0.061,0.012
		c0.042,0.008,0.084,0.016,0.127,0.024c0.419,0.077,0.842,0.141,1.261,0.204l0.217,0.036c0.19,0.036,0.37,0.05,0.548,0.05
		c0.03,0,0.061,0,0.092-0.002c0.304-0.01,0.534,0.281,0.432,0.567c-0.077,0.215-0.179,0.423-0.292,0.613
		c-0.341,0.571-1.094,1.017-1.094,1.733v22.162c0,0.625,0.481,1.164,1.106,1.193c0.667,0.031,1.217-0.5,1.217-1.16
		c0,0,0.027-10.913,0.003-15.978c-0.014-2.788,0.055-5.536,0.967-8.233C53.08,32.014,52.566,30.753,51.354,29.924z"/>
	<path fill="#2E79BE" d="M15.853,42.735c0.005,0.014,0.023,0.05,0.08,0.106c0.046,0.045,0.095,0.088,0.147,0.135
		c0.119,0.106,0.242,0.216,0.345,0.353c0.109,0.146,0.186,0.408,0.113,0.606c-0.074,0.203-0.264,0.362-0.417,0.444
		c-0.472,0.252-0.955,0.501-1.421,0.741c-0.279,0.143-0.557,0.287-0.835,0.431c-0.074,0.039-0.1,0.069-0.108,0.079
		c0.005,0.012,0.022,0.047,0.084,0.102c0.265,0.237,0.532,0.473,0.799,0.709c0.111,0.098,0.223,0.197,0.334,0.295l0.335,0.297
		c0.278,0.247,0.557,0.494,0.837,0.74c0.073,0.064,0.101,0.067,0.101,0.067s0.029-0.004,0.103-0.072
		c0.332-0.304,0.626-0.568,0.899-0.81c0.387-0.342,0.775-0.684,1.163-1.025c0.448-0.395,0.897-0.789,1.344-1.185
		c0.079-0.07,0.085-0.104,0.085-0.104s-0.006-0.038-0.092-0.115c-0.13-0.117-0.261-0.232-0.393-0.348
		c-0.078-0.069-0.156-0.138-0.234-0.207c-0.067-0.059-0.134-0.119-0.2-0.178c-0.199-0.178-0.297-0.372-0.294-0.575
		c0.002-0.134,0.054-0.336,0.289-0.533c0.554-0.464,1.126-0.923,1.679-1.367l0.244-0.196c0.054-0.044,0.176-0.154,0.134-0.236
		c-0.011-0.022-0.025-0.041-0.04-0.054c-0.064-0.056-0.176-0.025-0.238-0.001c-1.825,0.706-3.331,1.291-4.74,1.843
		C15.891,42.702,15.863,42.725,15.853,42.735z"/>
	<path fill="#2E79BE" d="M14.652,39.057c-0.004-0.015-0.011-0.054,0.002-0.133c0.011-0.064,0.024-0.127,0.039-0.195
		c0.033-0.156,0.068-0.317,0.07-0.488c0.002-0.182-0.091-0.439-0.266-0.556c-0.179-0.12-0.427-0.137-0.599-0.113
		c-0.53,0.075-1.066,0.159-1.585,0.241c-0.309,0.049-0.619,0.097-0.929,0.144c-0.083,0.013-0.121,0.004-0.134-0.001
		c-0.003-0.013-0.01-0.051,0.007-0.132c0.074-0.348,0.15-0.696,0.226-1.043c0.032-0.145,0.064-0.29,0.095-0.435l0.095-0.437
		c0.079-0.364,0.158-0.728,0.239-1.091c0.021-0.095,0.042-0.114,0.042-0.114s0.025-0.014,0.126-0.003
		c0.447,0.049,0.841,0.09,1.204,0.123c0.515,0.048,1.029,0.094,1.544,0.141c0.595,0.054,1.19,0.108,1.784,0.163
		c0.105,0.01,0.13,0.034,0.13,0.034s0.018,0.034-0.006,0.147c-0.036,0.171-0.074,0.342-0.112,0.512
		c-0.022,0.102-0.045,0.203-0.067,0.305c-0.019,0.087-0.038,0.175-0.056,0.262c-0.055,0.261-0.021,0.476,0.102,0.638
		c0.081,0.107,0.242,0.239,0.548,0.259c0.721,0.047,1.454,0.081,2.162,0.113l0.312,0.014c0.07,0.003,0.233,0.02,0.248,0.112
		c0.004,0.025,0.004,0.047,0,0.067c-0.018,0.083-0.128,0.124-0.191,0.141c-1.89,0.508-3.451,0.924-4.914,1.31
		C14.702,39.062,14.666,39.059,14.652,39.057z"/>
</g>
</svg>
