<?xml version="1.0" encoding="utf-8"?>
<!-- Generator: Adobe Illustrator 18.0.0, SVG Export Plug-In . SVG Version: 6.00 Build 0)  -->
<!DOCTYPE svg PUBLIC "-//W3C//DTD SVG 1.1//EN" "http://www.w3.org/Graphics/SVG/1.1/DTD/svg11.dtd">
<svg version="1.1" id="Layer_1" xmlns="http://www.w3.org/2000/svg" xmlns:xlink="http://www.w3.org/1999/xlink" x="0px" y="0px"
	 width="64px" height="64px" viewBox="0 0 64 64" enable-background="new 0 0 64 64" xml:space="preserve">
<g>
	<path fill="#2D3E4F" d="M23.001,21.823c0.753,0,1.484,0.09,2.187,0.256c3.739,0.893,6.62,4.024,7.138,7.896
		c1.001-0.267,1.92-0.792,2.67-1.545c0.317-0.317,0.592-0.66,0.819-1.022c-1.157-3.874-4.027-7.016-7.729-8.54
		c-1.569-0.65-3.285-1.006-5.083-1.006c-3.343,0-6.401,1.233-8.749,3.267c-2.828,2.456-4.619,6.074-4.619,10.103
		c0,6.699,4.951,12.261,11.387,13.222v6.538h-6.557c-1.093,0-1.981,0.887-1.981,1.981c0,1.096,0.887,1.981,1.981,1.981h6.557v6.383
		c0,1.093,0.887,1.981,1.981,1.981c1.096,0,1.981-0.887,1.981-1.981v-6.383h6.559c1.093,0,1.981-0.885,1.981-1.981
		c0-1.093-0.887-1.981-1.981-1.981h-6.559v-6.538c2.765-0.412,5.255-1.674,7.199-3.509c-0.467,0.04-0.937,0.058-1.41,0.058
		c-1.735,0-3.43-0.261-5.038-0.766c-0.864,0.264-1.782,0.404-2.73,0.404c-5.186,0-9.406-4.22-9.406-9.409
		c0-1.281,0.259-2.503,0.724-3.618C15.739,24.215,19.095,21.823,23.001,21.823z"/>
	<path fill="#ED1C24" d="M39.547,27.915l-0.673,1.072c0.24-0.404,0.446-0.824,0.618-1.254L39.547,27.915z"/>
	<path fill="#2E79BE" d="M53.786,1.294c-0.14-0.137-0.298-0.256-0.473-0.349c-0.29-0.164-0.623-0.261-0.982-0.261
		c-0.114,0-0.224,0.013-0.333,0.032H38.272c-1.093,0-1.981,0.887-1.981,1.981c0,1.093,0.887,1.981,1.981,1.981h9.227l-8.78,8.78
		c-5.131-3.8-12.385-3.457-17.13,1.033c0.467-0.04,0.94-0.061,1.413-0.061c1.73,0,3.42,0.259,5.041,0.776
		c3.214-0.969,6.847-0.187,9.382,2.348c2.746,2.746,3.436,6.784,2.068,10.18c-0.172,0.43-0.378,0.85-0.618,1.254
		c-0.008,0.013-0.016,0.026-0.024,0.04c-0.217,0.364-0.457,0.713-0.729,1.051c-0.106,0.135-0.219,0.269-0.338,0.399
		c-0.114,0.129-0.235,0.259-0.359,0.383h-0.003c-0.074,0.074-0.145,0.145-0.222,0.214c-0.151,0.143-0.304,0.28-0.462,0.407
		c-0.071,0.061-0.14,0.116-0.214,0.172c-0.172,0.132-0.346,0.259-0.525,0.378c-0.066,0.045-0.132,0.087-0.198,0.129
		c-0.111,0.071-0.227,0.14-0.341,0.206c-0.082,0.048-0.166,0.095-0.251,0.137c-0.066,0.037-0.135,0.071-0.201,0.106
		c-0.18,0.09-0.359,0.174-0.541,0.251c-0.05,0.021-0.1,0.042-0.153,0.063c-0.14,0.058-0.283,0.111-0.428,0.161
		c-0.063,0.024-0.127,0.045-0.193,0.066c-0.177,0.058-0.356,0.108-0.536,0.156c-1.249,0.325-2.554,0.391-3.824,0.195
		c-1.909-0.293-3.747-1.175-5.215-2.643c-1.516-1.513-2.406-3.422-2.667-5.398c-1.437,0.386-2.683,1.297-3.488,2.567
		c0.613,2.065,1.73,4.006,3.356,5.633c1.629,1.629,3.575,2.749,5.643,3.362c0.312,0.09,0.623,0.172,0.937,0.24
		c0.211,0.045,0.423,0.087,0.634,0.121c0.1,0.018,0.203,0.034,0.304,0.048c0.145,0.021,0.293,0.04,0.441,0.055
		c0.153,0.018,0.312,0.034,0.467,0.045c0.169,0.013,0.335,0.024,0.504,0.029h0.011c0.169,0.008,0.341,0.011,0.51,0.011
		c0.132,0,0.261-0.003,0.391-0.005c0.085-0.003,0.166-0.005,0.251-0.011c0.108-0.005,0.214-0.013,0.32-0.018
		c3.095-0.222,6.132-1.516,8.492-3.877c4.737-4.737,5.168-12.171,1.297-17.402l8.83-8.83v9.353c0.003,1.093,0.887,1.978,1.981,1.981
		c1.096,0,1.981-0.887,1.983-1.981V3.145C54.346,3,54.367,2.849,54.367,2.696C54.367,2.15,54.145,1.653,53.786,1.294z"/>
</g>
</svg>
